G04 Layer: TopSilkLayer*
G04 EasyEDA v6.2.46, 2019-11-12T10:27:12+01:00*
G04 201d7097f1e54f75af69d8895503a090,f684c74a6e3d460ab4b866ead519826c,10*
G04 Gerber Generator version 0.2*
G04 Scale: 100 percent, Rotated: No, Reflected: No *
G04 Dimensions in inches *
G04 leading zeros omitted , absolute positions ,2 integer and 4 decimal *
%FSLAX24Y24*%
%MOIN*%
G90*
G70D02*

%ADD10C,0.010000*%
%ADD50C,0.007870*%
%ADD51C,0.006000*%
%ADD52C,0.007874*%
%ADD53C,0.005000*%
%ADD54C,0.007008*%
%ADD55C,0.007000*%
%ADD56C,0.004724*%
%ADD57C,0.008000*%

%LPD*%
G54D10*
G01X9800Y8320D02*
G01X9800Y8240D01*
G01X3500Y8240D01*
G01X3500Y8320D01*
G01X3500Y14459D02*
G01X3500Y14540D01*
G01X9800Y14540D01*
G01X9800Y14459D01*
G01X9800Y8950D02*
G01X9800Y9109D01*
G01X9800Y9740D02*
G01X9800Y9890D01*
G01X9800Y10520D02*
G01X9800Y10680D01*
G01X9800Y11309D02*
G01X9800Y11470D01*
G01X9800Y12100D02*
G01X9800Y12259D01*
G01X9800Y12890D02*
G01X9800Y13040D01*
G01X9800Y13670D02*
G01X9800Y13830D01*
G01X3500Y8950D02*
G01X3500Y9109D01*
G01X3500Y9740D02*
G01X3500Y9890D01*
G01X3500Y10520D02*
G01X3500Y10680D01*
G01X3500Y11309D02*
G01X3500Y11470D01*
G01X3500Y12100D02*
G01X3500Y12259D01*
G01X3500Y12890D02*
G01X3500Y13040D01*
G01X3500Y13670D02*
G01X3500Y13830D01*
G01X5807Y56D02*
G01X2028Y56D01*
G01X2028Y5568D01*
G01X5807Y5568D01*
G01X5807Y56D01*
G54D50*
G01X9557Y5908D02*
G01X9557Y6428D01*
G01X8742Y6428D01*
G01X8742Y5908D01*
G01X9557Y5462D02*
G01X9557Y4943D01*
G01X8742Y4943D01*
G01X8742Y5462D01*
G01X10457Y5908D02*
G01X10457Y6428D01*
G01X9642Y6428D01*
G01X9642Y5908D01*
G01X10457Y5462D02*
G01X10457Y4943D01*
G01X9642Y4943D01*
G01X9642Y5462D01*
G01X142Y1521D02*
G01X142Y1001D01*
G01X957Y1001D01*
G01X957Y1521D01*
G01X142Y1967D02*
G01X142Y2486D01*
G01X957Y2486D01*
G01X957Y1967D01*
G01X942Y1521D02*
G01X942Y1001D01*
G01X1757Y1001D01*
G01X1757Y1521D01*
G01X942Y1967D02*
G01X942Y2486D01*
G01X1757Y2486D01*
G01X1757Y1967D01*
G54D10*
G01X8810Y149D02*
G01X7589Y149D01*
G01X7589Y149D02*
G01X7589Y1330D01*
G01X8810Y149D02*
G01X8810Y1330D01*
G01X8810Y1330D02*
G01X7589Y1330D01*
G01X8306Y684D02*
G01X8306Y78D01*
G01X8101Y78D01*
G01X8101Y669D01*
G01X8806Y306D02*
G01X8810Y303D01*
G01X8656Y303D01*
G01X8656Y1188D01*
G01X8810Y1188D01*
G01X7603Y1180D02*
G01X7599Y1184D01*
G01X7752Y1184D01*
G01X7752Y298D01*
G01X7599Y298D01*
G54D50*
G01X8018Y1732D02*
G01X8538Y1732D01*
G01X8538Y2547D01*
G01X8018Y2547D01*
G01X7572Y1732D02*
G01X7053Y1732D01*
G01X7053Y2547D01*
G01X7572Y2547D01*
G01X6092Y1371D02*
G01X6092Y851D01*
G01X6907Y851D01*
G01X6907Y1371D01*
G01X6092Y1817D02*
G01X6092Y2336D01*
G01X6907Y2336D01*
G01X6907Y1817D01*
G01X592Y4671D02*
G01X592Y4151D01*
G01X1407Y4151D01*
G01X1407Y4671D01*
G01X592Y5117D02*
G01X592Y5636D01*
G01X1407Y5636D01*
G01X1407Y5117D01*
G54D51*
G01X14900Y9340D02*
G01X14900Y10140D01*
G01X15300Y9740D02*
G01X14500Y9740D01*
G01X14550Y11885D02*
G01X14550Y12485D01*
G01X17300Y9140D02*
G01X17700Y9140D01*
G01X17700Y7940D01*
G01X17657Y7897D01*
G01X14900Y7897D01*
G01X12142Y7897D01*
G01X12100Y7940D01*
G01X12100Y9140D01*
G01X12500Y9140D01*
G54D10*
G01X1009Y13529D02*
G01X1009Y14750D01*
G01X1009Y14750D02*
G01X2190Y14750D01*
G01X1009Y13529D02*
G01X2190Y13529D01*
G01X2190Y13529D02*
G01X2190Y14750D01*
G01X1544Y14033D02*
G01X938Y14033D01*
G01X938Y14238D01*
G01X1529Y14238D01*
G01X1166Y13533D02*
G01X1163Y13529D01*
G01X1163Y13683D01*
G01X2048Y13683D01*
G01X2048Y13529D01*
G01X2040Y14736D02*
G01X2044Y14740D01*
G01X2044Y14587D01*
G01X1158Y14587D01*
G01X1158Y14740D01*
G54D50*
G01X1292Y10371D02*
G01X1292Y9851D01*
G01X2107Y9851D01*
G01X2107Y10371D01*
G01X1292Y10817D02*
G01X1292Y11336D01*
G01X2107Y11336D01*
G01X2107Y10817D01*
G01X11707Y12408D02*
G01X11707Y12928D01*
G01X10892Y12928D01*
G01X10892Y12408D01*
G01X11707Y11962D02*
G01X11707Y11443D01*
G01X10892Y11443D01*
G01X10892Y11962D01*
G54D10*
G01X9659Y6650D02*
G01X9659Y7270D01*
G01X10440Y7270D02*
G01X10440Y6650D01*
G01X8759Y6650D02*
G01X8759Y7270D01*
G01X9540Y7270D02*
G01X9540Y6650D01*
G54D50*
G01X5268Y26132D02*
G01X5788Y26132D01*
G01X5788Y26947D01*
G01X5268Y26947D01*
G01X4822Y26132D02*
G01X4303Y26132D01*
G01X4303Y26947D01*
G01X4822Y26947D01*
G54D10*
G01X4305Y27325D02*
G01X4305Y27065D01*
G01X4305Y27325D01*
G01X4305Y27065D01*
G01X3984Y27065D01*
G01X3984Y28214D02*
G01X4305Y28214D01*
G01X4305Y27955D01*
G54D52*
G01X3695Y27758D02*
G01X3695Y27521D01*
G54D50*
G01X3207Y27758D02*
G01X3207Y28278D01*
G01X2392Y28278D01*
G01X2392Y27758D01*
G01X3207Y27312D02*
G01X3207Y26793D01*
G01X2392Y26793D01*
G01X2392Y27312D01*
G01X3207Y29258D02*
G01X3207Y29778D01*
G01X2392Y29778D01*
G01X2392Y29258D01*
G01X3207Y28812D02*
G01X3207Y28293D01*
G01X2392Y28293D01*
G01X2392Y28812D01*
G01X5018Y29632D02*
G01X5538Y29632D01*
G01X5538Y30447D01*
G01X5018Y30447D01*
G01X4572Y29632D02*
G01X4053Y29632D01*
G01X4053Y30447D01*
G01X4572Y30447D01*
G54D10*
G01X4305Y28675D02*
G01X4305Y28415D01*
G01X4305Y28675D01*
G01X4305Y28415D01*
G01X3984Y28415D01*
G01X3984Y29564D02*
G01X4305Y29564D01*
G01X4305Y29305D01*
G54D52*
G01X3695Y29108D02*
G01X3695Y28871D01*
G54D53*
G01X5150Y20568D02*
G01X5350Y20968D01*
G01X5350Y20968D02*
G01X4950Y20968D01*
G01X4950Y20968D02*
G01X5150Y20568D01*
G01X5150Y20568D02*
G01X5350Y20568D01*
G01X5350Y20568D02*
G01X4950Y20568D01*
G01X5150Y21044D02*
G01X5150Y20368D01*
G54D10*
G01X5850Y20378D02*
G01X4450Y20378D01*
G01X5850Y21540D02*
G01X5850Y19840D01*
G01X4450Y19840D02*
G01X4450Y21540D01*
G54D50*
G01X22957Y19558D02*
G01X22957Y20078D01*
G01X22142Y20078D01*
G01X22142Y19558D01*
G01X22957Y19112D02*
G01X22957Y18593D01*
G01X22142Y18593D01*
G01X22142Y19112D01*
G01X12107Y19608D02*
G01X12107Y20128D01*
G01X11292Y20128D01*
G01X11292Y19608D01*
G01X12107Y19162D02*
G01X12107Y18643D01*
G01X11292Y18643D01*
G01X11292Y19162D01*
G54D10*
G01X26130Y28930D02*
G01X26130Y28150D01*
G01X30069Y31850D02*
G01X29200Y31850D01*
G01X29200Y31450D01*
G01X27000Y31450D01*
G01X27000Y31850D01*
G01X26130Y31850D01*
G01X26130Y29170D01*
G01X26130Y27950D01*
G01X30069Y27950D01*
G01X30069Y29170D01*
G01X30069Y31850D01*
G01X26130Y29170D02*
G01X30069Y29170D01*
G01X22030Y28930D02*
G01X22030Y28150D01*
G01X25969Y31850D02*
G01X25100Y31850D01*
G01X25100Y31450D01*
G01X22900Y31450D01*
G01X22900Y31850D01*
G01X22030Y31850D01*
G01X22030Y29170D01*
G01X22030Y27950D01*
G01X25969Y27950D01*
G01X25969Y29170D01*
G01X25969Y31850D01*
G01X22030Y29170D02*
G01X25969Y29170D01*
G01X17930Y28930D02*
G01X17930Y28150D01*
G01X21869Y31850D02*
G01X21000Y31850D01*
G01X21000Y31450D01*
G01X18800Y31450D01*
G01X18800Y31850D01*
G01X17930Y31850D01*
G01X17930Y29170D01*
G01X17930Y27950D01*
G01X21869Y27950D01*
G01X21869Y29170D01*
G01X21869Y31850D01*
G01X17930Y29170D02*
G01X21869Y29170D01*
G01X13830Y28930D02*
G01X13830Y28150D01*
G01X17769Y31850D02*
G01X16900Y31850D01*
G01X16900Y31450D01*
G01X14700Y31450D01*
G01X14700Y31850D01*
G01X13830Y31850D01*
G01X13830Y29170D01*
G01X13830Y27950D01*
G01X17769Y27950D01*
G01X17769Y29170D01*
G01X17769Y31850D01*
G01X13830Y29170D02*
G01X17769Y29170D01*
G01X9730Y28930D02*
G01X9730Y28150D01*
G01X13669Y31850D02*
G01X12800Y31850D01*
G01X12800Y31450D01*
G01X10600Y31450D01*
G01X10600Y31850D01*
G01X9730Y31850D01*
G01X9730Y29170D01*
G01X9730Y27950D01*
G01X13669Y27950D01*
G01X13669Y29170D01*
G01X13669Y31850D01*
G01X9730Y29170D02*
G01X13669Y29170D01*
G01X5630Y28930D02*
G01X5630Y28150D01*
G01X9569Y31850D02*
G01X8700Y31850D01*
G01X8700Y31450D01*
G01X6500Y31450D01*
G01X6500Y31850D01*
G01X5630Y31850D01*
G01X5630Y29170D01*
G01X5630Y27950D01*
G01X9569Y27950D01*
G01X9569Y29170D01*
G01X9569Y31850D01*
G01X5630Y29170D02*
G01X9569Y29170D01*
G54D54*
G01X1471Y18840D02*
G01X2930Y18840D01*
G01X1480Y16440D02*
G01X2919Y16440D01*
G01X2928Y16439D02*
G01X2928Y18840D01*
G54D55*
G01X1471Y18840D02*
G01X1471Y16439D01*
G54D56*
G01X20615Y10744D02*
G01X20615Y10036D01*
G01X21883Y10036D02*
G01X21883Y11000D01*
G54D50*
G01X20231Y12097D02*
G01X19711Y12097D01*
G01X19711Y11282D01*
G01X20231Y11282D01*
G01X20677Y12097D02*
G01X21197Y12097D01*
G01X21197Y11282D01*
G01X20677Y11282D01*
G01X20281Y9447D02*
G01X19761Y9447D01*
G01X19761Y8632D01*
G01X20281Y8632D01*
G01X20727Y9447D02*
G01X21247Y9447D01*
G01X21247Y8632D01*
G01X20727Y8632D01*
G54D10*
G01X22500Y7390D02*
G01X22750Y7640D01*
G01X22750Y7640D02*
G01X23250Y7640D01*
G01X23250Y7640D02*
G01X23500Y7390D01*
G01X23500Y6890D02*
G01X23250Y6640D01*
G01X23250Y6640D02*
G01X22750Y6640D01*
G01X22750Y6640D02*
G01X22500Y6890D01*
G01X20750Y7640D02*
G01X21250Y7640D01*
G01X21250Y7640D02*
G01X21500Y7390D01*
G01X21500Y6890D02*
G01X21250Y6640D01*
G01X21500Y7390D02*
G01X21750Y7640D01*
G01X21750Y7640D02*
G01X22250Y7640D01*
G01X22250Y7640D02*
G01X22500Y7390D01*
G01X22500Y6890D02*
G01X22250Y6640D01*
G01X22250Y6640D02*
G01X21750Y6640D01*
G01X21750Y6640D02*
G01X21500Y6890D01*
G01X20500Y7390D02*
G01X20500Y6890D01*
G01X20750Y7640D02*
G01X20500Y7390D01*
G01X20500Y6890D02*
G01X20750Y6640D01*
G01X21250Y6640D02*
G01X20750Y6640D01*
G01X23500Y7390D02*
G01X23500Y6890D01*
G54D50*
G01X20281Y8597D02*
G01X19761Y8597D01*
G01X19761Y7782D01*
G01X20281Y7782D01*
G01X20727Y8597D02*
G01X21247Y8597D01*
G01X21247Y7782D01*
G01X20727Y7782D01*
G01X22807Y10608D02*
G01X22807Y11128D01*
G01X21992Y11128D01*
G01X21992Y10608D01*
G01X22807Y10162D02*
G01X22807Y9643D01*
G01X21992Y9643D01*
G01X21992Y10162D01*
G01X23607Y10608D02*
G01X23607Y11128D01*
G01X22792Y11128D01*
G01X22792Y10608D01*
G01X23607Y10162D02*
G01X23607Y9643D01*
G01X22792Y9643D01*
G01X22792Y10162D01*
G54D10*
G01X24846Y8816D02*
G01X27445Y8816D01*
G01X24846Y7286D02*
G01X27456Y7286D01*
G01X24846Y8816D02*
G01X24846Y7286D01*
G01X27456Y8816D02*
G01X27456Y8276D01*
G01X27456Y7836D02*
G01X27456Y7286D01*
G54D50*
G01X28557Y6758D02*
G01X28557Y7278D01*
G01X27742Y7278D01*
G01X27742Y6758D01*
G01X28557Y6312D02*
G01X28557Y5793D01*
G01X27742Y5793D01*
G01X27742Y6312D01*
G01X28018Y9832D02*
G01X28538Y9832D01*
G01X28538Y10647D01*
G01X28018Y10647D01*
G01X27572Y9832D02*
G01X27052Y9832D01*
G01X27052Y10647D01*
G01X27572Y10647D01*
G01X24281Y10447D02*
G01X23761Y10447D01*
G01X23761Y9632D01*
G01X24281Y9632D01*
G01X24727Y10447D02*
G01X25247Y10447D01*
G01X25247Y9632D01*
G01X24727Y9632D01*
G54D10*
G01X27329Y17990D02*
G01X28057Y17990D01*
G01X28057Y18990D01*
G01X27329Y18990D01*
G01X26729Y18990D02*
G01X25998Y18990D01*
G01X25998Y17990D01*
G01X26729Y17990D01*
G54D57*
G01X27200Y21840D02*
G01X28189Y21840D01*
G01X28189Y19840D01*
G01X27200Y19840D01*
G01X27200Y21840D01*
G54D10*
G01X4200Y24524D02*
G01X1200Y24524D01*
G01X1200Y24524D01*
G01X4200Y24524D02*
G01X4200Y20524D01*
G01X1200Y24524D02*
G01X1200Y20524D01*
G01X4200Y20524D02*
G01X1200Y20524D01*
G01X12394Y5105D02*
G01X12394Y5364D01*
G01X12394Y5105D01*
G01X12394Y5364D01*
G01X12715Y5364D01*
G01X12715Y4215D02*
G01X12394Y4215D01*
G01X12394Y4475D01*
G54D52*
G01X13004Y4671D02*
G01X13004Y4908D01*
G54D10*
G01X16302Y5129D02*
G01X16302Y5388D01*
G01X16302Y5129D01*
G01X16302Y5388D01*
G01X16623Y5388D01*
G01X16623Y4239D02*
G01X16302Y4239D01*
G01X16302Y4499D01*
G54D52*
G01X16912Y4696D02*
G01X16912Y4932D01*
G54D10*
G01X19994Y5255D02*
G01X19994Y5514D01*
G01X19994Y5255D01*
G01X19994Y5514D01*
G01X20314Y5514D01*
G01X20314Y4365D02*
G01X19994Y4365D01*
G01X19994Y4625D01*
G54D52*
G01X20604Y4821D02*
G01X20604Y5058D01*
G54D10*
G01X11824Y889D02*
G01X12434Y889D01*
G01X12434Y1689D01*
G01X11824Y1689D01*
G01X11514Y879D02*
G01X10934Y879D01*
G01X10774Y1039D01*
G01X10774Y1539D01*
G01X10924Y1689D01*
G01X11524Y1689D01*
G01X11735Y1092D02*
G01X11735Y1486D01*
G01X11735Y1486D01*
G01X11538Y1289D01*
G01X11538Y1289D01*
G01X11735Y1092D01*
G01X10869Y974D02*
G01X10869Y1604D01*
G01X15488Y989D02*
G01X16098Y989D01*
G01X16098Y1789D01*
G01X15488Y1789D01*
G01X15178Y979D02*
G01X14598Y979D01*
G01X14438Y1139D01*
G01X14438Y1639D01*
G01X14588Y1789D01*
G01X15188Y1789D01*
G01X15399Y1192D02*
G01X15399Y1586D01*
G01X15399Y1586D01*
G01X15202Y1389D01*
G01X15202Y1389D01*
G01X15399Y1192D01*
G01X14533Y1074D02*
G01X14533Y1704D01*
G54D50*
G01X13507Y1908D02*
G01X13507Y2428D01*
G01X12692Y2428D01*
G01X12692Y1908D01*
G01X13507Y1462D02*
G01X13507Y943D01*
G01X12692Y943D01*
G01X12692Y1462D01*
G01X12692Y3021D02*
G01X12692Y2501D01*
G01X13507Y2501D01*
G01X13507Y3021D01*
G01X12692Y3467D02*
G01X12692Y3986D01*
G01X13507Y3986D01*
G01X13507Y3467D01*
G01X17307Y1958D02*
G01X17307Y2478D01*
G01X16492Y2478D01*
G01X16492Y1958D01*
G01X17307Y1512D02*
G01X17307Y993D01*
G01X16492Y993D01*
G01X16492Y1512D01*
G01X16492Y3071D02*
G01X16492Y2551D01*
G01X17307Y2551D01*
G01X17307Y3071D01*
G01X16492Y3517D02*
G01X16492Y4037D01*
G01X17307Y4037D01*
G01X17307Y3517D01*
G01X21107Y1958D02*
G01X21107Y2478D01*
G01X20292Y2478D01*
G01X20292Y1958D01*
G01X21107Y1512D02*
G01X21107Y993D01*
G01X20292Y993D01*
G01X20292Y1512D01*
G54D10*
G01X19324Y889D02*
G01X19934Y889D01*
G01X19934Y1689D01*
G01X19324Y1689D01*
G01X19014Y879D02*
G01X18434Y879D01*
G01X18274Y1039D01*
G01X18274Y1539D01*
G01X18424Y1689D01*
G01X19024Y1689D01*
G01X19235Y1092D02*
G01X19235Y1486D01*
G01X19235Y1486D01*
G01X19038Y1289D01*
G01X19038Y1289D01*
G01X19235Y1092D01*
G01X18369Y974D02*
G01X18369Y1604D01*
G54D50*
G01X21107Y3558D02*
G01X21107Y4078D01*
G01X20292Y4078D01*
G01X20292Y3558D01*
G01X21107Y3112D02*
G01X21107Y2593D01*
G01X20292Y2593D01*
G01X20292Y3112D01*
G54D10*
G01X18150Y2440D02*
G01X18150Y1840D01*
G01X20150Y1840D01*
G01X20150Y4040D01*
G01X18150Y4040D01*
G01X18150Y2440D01*
G01X10600Y2440D02*
G01X10600Y1840D01*
G01X12600Y1840D01*
G01X12600Y4040D01*
G01X10600Y4040D01*
G01X10600Y2440D01*
G01X14350Y2540D02*
G01X14350Y1940D01*
G01X16350Y1940D01*
G01X16350Y4140D01*
G01X14350Y4140D01*
G01X14350Y2540D01*
G54D57*
G01X28100Y17640D02*
G01X28100Y16650D01*
G01X26100Y16650D01*
G01X26100Y17640D01*
G01X28100Y17640D01*
G54D10*
G01X30119Y3750D02*
G01X30119Y4530D01*
G01X26180Y830D02*
G01X27050Y830D01*
G01X27050Y1230D01*
G01X29250Y1230D01*
G01X29250Y830D01*
G01X30119Y830D01*
G01X30119Y3509D01*
G01X30119Y4730D01*
G01X26180Y4730D01*
G01X26180Y3509D01*
G01X26180Y830D01*
G01X30119Y3509D02*
G01X26180Y3509D01*
G01X26019Y3750D02*
G01X26019Y4530D01*
G01X22080Y830D02*
G01X22950Y830D01*
G01X22950Y1230D01*
G01X25150Y1230D01*
G01X25150Y830D01*
G01X26019Y830D01*
G01X26019Y3509D01*
G01X26019Y4730D01*
G01X22080Y4730D01*
G01X22080Y3509D01*
G01X22080Y830D01*
G01X26019Y3509D02*
G01X22080Y3509D01*
G54D57*
G01X4650Y16640D02*
G01X3659Y16640D01*
G01X3659Y18640D01*
G01X4650Y18640D01*
G01X4650Y16640D01*
G54D10*
G01X28000Y13042D02*
G01X28250Y13292D01*
G01X28250Y13292D02*
G01X28750Y13292D01*
G01X28750Y13292D02*
G01X29000Y13042D01*
G01X29000Y12542D02*
G01X28750Y12292D01*
G01X28750Y12292D02*
G01X28250Y12292D01*
G01X28250Y12292D02*
G01X28000Y12542D01*
G01X26250Y13292D02*
G01X26750Y13292D01*
G01X26750Y13292D02*
G01X27000Y13042D01*
G01X27000Y12542D02*
G01X26750Y12292D01*
G01X27000Y13042D02*
G01X27250Y13292D01*
G01X27250Y13292D02*
G01X27750Y13292D01*
G01X27750Y13292D02*
G01X28000Y13042D01*
G01X28000Y12542D02*
G01X27750Y12292D01*
G01X27750Y12292D02*
G01X27250Y12292D01*
G01X27250Y12292D02*
G01X27000Y12542D01*
G01X26000Y13042D02*
G01X26000Y12542D01*
G01X26250Y13292D02*
G01X26000Y13042D01*
G01X26000Y12542D02*
G01X26250Y12292D01*
G01X26750Y12292D02*
G01X26250Y12292D01*
G01X29000Y13042D02*
G01X29000Y12542D01*
G54D53*
G01X25675Y23190D02*
G01X25675Y14940D01*
G01X8675Y14940D01*
G01X8675Y23190D01*
G01X25675Y23190D01*
G54D57*
G01X25885Y11894D02*
G01X25522Y11894D01*
G01X25485Y11567D01*
G01X25522Y11603D01*
G01X25631Y11640D01*
G01X25740Y11640D01*
G01X25850Y11603D01*
G01X25922Y11531D01*
G01X25959Y11422D01*
G01X25959Y11349D01*
G01X25922Y11240D01*
G01X25850Y11167D01*
G01X25740Y11131D01*
G01X25631Y11131D01*
G01X25522Y11167D01*
G01X25485Y11203D01*
G01X25450Y11276D01*
G01X26198Y11894D02*
G01X26489Y11131D01*
G01X26781Y11894D02*
G01X26489Y11131D01*
G01X27581Y12040D02*
G01X27581Y10876D01*
G01X28453Y11894D02*
G01X28853Y11894D01*
G01X28635Y11603D01*
G01X28744Y11603D01*
G01X28817Y11567D01*
G01X28853Y11531D01*
G01X28889Y11422D01*
G01X28889Y11349D01*
G01X28853Y11240D01*
G01X28781Y11167D01*
G01X28672Y11131D01*
G01X28563Y11131D01*
G01X28453Y11167D01*
G01X28417Y11203D01*
G01X28381Y11276D01*
G01X29165Y11313D02*
G01X29130Y11276D01*
G01X29165Y11240D01*
G01X29202Y11276D01*
G01X29165Y11313D01*
G01X29514Y11894D02*
G01X29914Y11894D01*
G01X29697Y11603D01*
G01X29806Y11603D01*
G01X29878Y11567D01*
G01X29914Y11531D01*
G01X29952Y11422D01*
G01X29952Y11349D01*
G01X29914Y11240D01*
G01X29843Y11167D01*
G01X29734Y11131D01*
G01X29625Y11131D01*
G01X29514Y11167D01*
G01X29478Y11203D01*
G01X29443Y11276D01*
G01X30192Y11894D02*
G01X30482Y11131D01*
G01X30773Y11894D02*
G01X30482Y11131D01*
G01X29356Y19190D02*
G01X29835Y19190D01*
G01X29356Y19190D02*
G01X29356Y19395D01*
G01X29380Y19463D01*
G01X29402Y19484D01*
G01X29447Y19507D01*
G01X29515Y19507D01*
G01X29561Y19484D01*
G01X29585Y19463D01*
G01X29606Y19395D01*
G01X29606Y19190D01*
G01X29515Y19772D02*
G01X29539Y19726D01*
G01X29585Y19680D01*
G01X29652Y19657D01*
G01X29697Y19657D01*
G01X29765Y19680D01*
G01X29811Y19726D01*
G01X29835Y19772D01*
G01X29835Y19840D01*
G01X29811Y19884D01*
G01X29765Y19930D01*
G01X29697Y19953D01*
G01X29652Y19953D01*
G01X29585Y19930D01*
G01X29539Y19884D01*
G01X29515Y19840D01*
G01X29515Y19772D01*
G01X29515Y20103D02*
G01X29835Y20195D01*
G01X29515Y20284D02*
G01X29835Y20195D01*
G01X29515Y20284D02*
G01X29835Y20376D01*
G01X29515Y20467D02*
G01X29835Y20376D01*
G01X29652Y20617D02*
G01X29652Y20890D01*
G01X29606Y20890D01*
G01X29561Y20867D01*
G01X29539Y20845D01*
G01X29515Y20799D01*
G01X29515Y20730D01*
G01X29539Y20684D01*
G01X29585Y20640D01*
G01X29652Y20617D01*
G01X29697Y20617D01*
G01X29765Y20640D01*
G01X29811Y20684D01*
G01X29835Y20730D01*
G01X29835Y20799D01*
G01X29811Y20845D01*
G01X29765Y20890D01*
G01X29515Y21040D02*
G01X29835Y21040D01*
G01X29652Y21040D02*
G01X29585Y21063D01*
G01X29539Y21107D01*
G01X29515Y21153D01*
G01X29515Y21222D01*
G01X29356Y21857D02*
G01X29380Y21813D01*
G01X29425Y21767D01*
G01X29471Y21745D01*
G01X29539Y21722D01*
G01X29652Y21722D01*
G01X29721Y21745D01*
G01X29765Y21767D01*
G01X29811Y21813D01*
G01X29835Y21857D01*
G01X29835Y21949D01*
G01X29811Y21995D01*
G01X29765Y22040D01*
G01X29721Y22063D01*
G01X29652Y22084D01*
G01X29539Y22084D01*
G01X29471Y22063D01*
G01X29425Y22040D01*
G01X29380Y21995D01*
G01X29356Y21949D01*
G01X29356Y21857D01*
G01X29515Y22234D02*
G01X29743Y22234D01*
G01X29811Y22257D01*
G01X29835Y22303D01*
G01X29835Y22372D01*
G01X29811Y22417D01*
G01X29743Y22484D01*
G01X29515Y22484D02*
G01X29835Y22484D01*
G01X29356Y22703D02*
G01X29743Y22703D01*
G01X29811Y22726D01*
G01X29835Y22772D01*
G01X29835Y22817D01*
G01X29515Y22634D02*
G01X29515Y22795D01*
G01X28541Y19803D02*
G01X28541Y19575D01*
G01X28746Y19553D01*
G01X28723Y19575D01*
G01X28700Y19644D01*
G01X28700Y19712D01*
G01X28723Y19780D01*
G01X28769Y19825D01*
G01X28837Y19848D01*
G01X28882Y19848D01*
G01X28950Y19825D01*
G01X28996Y19780D01*
G01X29019Y19712D01*
G01X29019Y19644D01*
G01X28996Y19575D01*
G01X28973Y19553D01*
G01X28928Y19530D01*
G01X28541Y19998D02*
G01X29019Y20180D01*
G01X28541Y20362D02*
G01X29019Y20180D01*
G01X28450Y20862D02*
G01X29178Y20862D01*
G01X28655Y21703D02*
G01X28609Y21680D01*
G01X28564Y21635D01*
G01X28541Y21589D01*
G01X28541Y21498D01*
G01X28564Y21453D01*
G01X28609Y21407D01*
G01X28655Y21385D01*
G01X28723Y21362D01*
G01X28837Y21362D01*
G01X28905Y21385D01*
G01X28950Y21407D01*
G01X28996Y21453D01*
G01X29019Y21498D01*
G01X29019Y21589D01*
G01X28996Y21635D01*
G01X28950Y21680D01*
G01X28905Y21703D01*
G01X28837Y21703D01*
G01X28837Y21589D02*
G01X28837Y21703D01*
G01X28541Y21853D02*
G01X29019Y21853D01*
G01X28541Y21853D02*
G01X29019Y22171D01*
G01X28541Y22171D02*
G01X29019Y22171D01*
G01X28541Y22321D02*
G01X29019Y22321D01*
G01X28541Y22321D02*
G01X28541Y22480D01*
G01X28564Y22548D01*
G01X28609Y22594D01*
G01X28655Y22616D01*
G01X28723Y22639D01*
G01X28837Y22639D01*
G01X28905Y22616D01*
G01X28950Y22594D01*
G01X28996Y22548D01*
G01X29019Y22480D01*
G01X29019Y22321D01*
G01X26114Y16340D02*
G01X26068Y16317D01*
G01X26022Y16271D01*
G01X26000Y16203D01*
G01X26000Y16158D01*
G01X26022Y16090D01*
G01X26068Y16044D01*
G01X26114Y16021D01*
G01X26181Y16021D01*
G01X26227Y16044D01*
G01X26272Y16090D01*
G01X26294Y16158D01*
G01X26294Y16203D01*
G01X26272Y16271D01*
G01X26227Y16317D01*
G01X26181Y16340D01*
G01X26114Y16340D01*
G01X26444Y16340D02*
G01X26444Y16021D01*
G01X26444Y16249D02*
G01X26514Y16317D01*
G01X26559Y16340D01*
G01X26627Y16340D01*
G01X26672Y16317D01*
G01X26694Y16249D01*
G01X26694Y16021D01*
G01X27255Y16590D02*
G01X26844Y15862D01*
G01X27518Y16340D02*
G01X27472Y16317D01*
G01X27427Y16271D01*
G01X27405Y16203D01*
G01X27405Y16158D01*
G01X27427Y16090D01*
G01X27472Y16044D01*
G01X27518Y16021D01*
G01X27585Y16021D01*
G01X27631Y16044D01*
G01X27677Y16090D01*
G01X27700Y16158D01*
G01X27700Y16203D01*
G01X27677Y16271D01*
G01X27631Y16317D01*
G01X27585Y16340D01*
G01X27518Y16340D01*
G01X28031Y16499D02*
G01X27985Y16499D01*
G01X27940Y16476D01*
G01X27918Y16408D01*
G01X27918Y16021D01*
G01X27850Y16340D02*
G01X28009Y16340D01*
G01X28364Y16499D02*
G01X28318Y16499D01*
G01X28272Y16476D01*
G01X28250Y16408D01*
G01X28250Y16021D01*
G01X28181Y16340D02*
G01X28340Y16340D01*
G01X26700Y15599D02*
G01X26700Y15121D01*
G01X26700Y15599D02*
G01X26905Y15599D01*
G01X26972Y15576D01*
G01X26994Y15553D01*
G01X27018Y15508D01*
G01X27018Y15440D01*
G01X26994Y15394D01*
G01X26972Y15371D01*
G01X26905Y15349D01*
G01X26700Y15349D01*
G01X27168Y15599D02*
G01X27281Y15121D01*
G01X27394Y15599D02*
G01X27281Y15121D01*
G01X27394Y15599D02*
G01X27509Y15121D01*
G01X27622Y15599D02*
G01X27509Y15121D01*
G01X626Y21590D02*
G01X626Y20936D01*
G01X300Y21263D02*
G01X955Y21263D01*
G01X832Y24445D02*
G01X904Y24480D01*
G01X977Y24553D01*
G01X1013Y24626D01*
G01X1013Y24772D01*
G01X977Y24845D01*
G01X904Y24917D01*
G01X832Y24953D01*
G01X722Y24990D01*
G01X541Y24990D01*
G01X432Y24953D01*
G01X359Y24917D01*
G01X286Y24845D01*
G01X250Y24772D01*
G01X250Y24626D01*
G01X286Y24553D01*
G01X359Y24480D01*
G01X432Y24445D01*
G01X541Y24445D01*
G01X541Y24626D02*
G01X541Y24445D01*
G01X1013Y24205D02*
G01X250Y24205D01*
G01X1013Y24205D02*
G01X250Y23695D01*
G01X1013Y23695D02*
G01X250Y23695D01*
G01X1013Y23455D02*
G01X250Y23455D01*
G01X1013Y23455D02*
G01X1013Y23201D01*
G01X977Y23092D01*
G01X904Y23019D01*
G01X832Y22982D01*
G01X722Y22946D01*
G01X541Y22946D01*
G01X432Y22982D01*
G01X359Y23019D01*
G01X286Y23092D01*
G01X250Y23201D01*
G01X250Y23455D01*
G01X7305Y23267D02*
G01X7305Y22867D01*
G01X7014Y23084D01*
G01X7014Y22976D01*
G01X6978Y22903D01*
G01X6942Y22867D01*
G01X6833Y22830D01*
G01X6760Y22830D01*
G01X6651Y22867D01*
G01X6578Y22940D01*
G01X6542Y23049D01*
G01X6542Y23157D01*
G01X6578Y23267D01*
G01X6614Y23303D01*
G01X6687Y23340D01*
G01X6869Y22591D02*
G01X6869Y21936D01*
G01X7305Y21624D02*
G01X7305Y21224D01*
G01X7014Y21442D01*
G01X7014Y21332D01*
G01X6978Y21259D01*
G01X6942Y21224D01*
G01X6833Y21186D01*
G01X6760Y21186D01*
G01X6651Y21224D01*
G01X6578Y21296D01*
G01X6542Y21405D01*
G01X6542Y21515D01*
G01X6578Y21624D01*
G01X6614Y21659D01*
G01X6687Y21696D01*
G01X7305Y20728D02*
G01X7269Y20838D01*
G01X7160Y20911D01*
G01X6978Y20947D01*
G01X6869Y20947D01*
G01X6687Y20911D01*
G01X6578Y20838D01*
G01X6542Y20728D01*
G01X6542Y20655D01*
G01X6578Y20547D01*
G01X6687Y20475D01*
G01X6869Y20438D01*
G01X6978Y20438D01*
G01X7160Y20475D01*
G01X7269Y20547D01*
G01X7305Y20655D01*
G01X7305Y20728D01*
G01X7305Y20198D02*
G01X6542Y19907D01*
G01X7305Y19616D02*
G01X6542Y19907D01*
G01X1231Y18290D02*
G01X849Y18290D01*
G01X1231Y18290D02*
G01X1231Y18126D01*
G01X1213Y18072D01*
G01X1195Y18053D01*
G01X1158Y18034D01*
G01X1122Y18034D01*
G01X1086Y18053D01*
G01X1068Y18072D01*
G01X1049Y18126D01*
G01X1049Y18290D01*
G01X1049Y18163D02*
G01X849Y18034D01*
G01X995Y17915D02*
G01X995Y17697D01*
G01X1031Y17697D01*
G01X1068Y17715D01*
G01X1086Y17734D01*
G01X1104Y17770D01*
G01X1104Y17825D01*
G01X1086Y17861D01*
G01X1049Y17897D01*
G01X995Y17915D01*
G01X958Y17915D01*
G01X904Y17897D01*
G01X868Y17861D01*
G01X849Y17825D01*
G01X849Y17770D01*
G01X868Y17734D01*
G01X904Y17697D01*
G01X1049Y17377D02*
G01X1086Y17395D01*
G01X1104Y17450D01*
G01X1104Y17505D01*
G01X1086Y17559D01*
G01X1049Y17577D01*
G01X1013Y17559D01*
G01X995Y17523D01*
G01X977Y17432D01*
G01X958Y17395D01*
G01X922Y17377D01*
G01X904Y17377D01*
G01X868Y17395D01*
G01X849Y17450D01*
G01X849Y17505D01*
G01X868Y17559D01*
G01X904Y17577D01*
G01X995Y17257D02*
G01X995Y17038D01*
G01X1031Y17038D01*
G01X1068Y17057D01*
G01X1086Y17075D01*
G01X1104Y17111D01*
G01X1104Y17166D01*
G01X1086Y17203D01*
G01X1049Y17238D01*
G01X995Y17257D01*
G01X958Y17257D01*
G01X904Y17238D01*
G01X868Y17203D01*
G01X849Y17166D01*
G01X849Y17111D01*
G01X868Y17075D01*
G01X904Y17038D01*
G01X1231Y16865D02*
G01X922Y16865D01*
G01X868Y16846D01*
G01X849Y16809D01*
G01X849Y16774D01*
G01X1104Y16919D02*
G01X1104Y16792D01*
G01X667Y14990D02*
G01X285Y14990D01*
G01X285Y14990D02*
G01X285Y14772D01*
G01X540Y14561D02*
G01X522Y14597D01*
G01X485Y14634D01*
G01X431Y14651D01*
G01X394Y14651D01*
G01X340Y14634D01*
G01X304Y14597D01*
G01X285Y14561D01*
G01X285Y14505D01*
G01X304Y14470D01*
G01X340Y14434D01*
G01X394Y14415D01*
G01X431Y14415D01*
G01X485Y14434D01*
G01X522Y14470D01*
G01X540Y14505D01*
G01X540Y14561D01*
G01X667Y14295D02*
G01X285Y14295D01*
G01X667Y14295D02*
G01X667Y14132D01*
G01X649Y14076D01*
G01X631Y14059D01*
G01X594Y14041D01*
G01X558Y14041D01*
G01X522Y14059D01*
G01X504Y14076D01*
G01X485Y14132D01*
G01X485Y14295D01*
G01X485Y14168D02*
G01X285Y14041D01*
G01X540Y13703D02*
G01X285Y13703D01*
G01X485Y13703D02*
G01X522Y13738D01*
G01X540Y13775D01*
G01X540Y13830D01*
G01X522Y13866D01*
G01X485Y13903D01*
G01X431Y13921D01*
G01X394Y13921D01*
G01X340Y13903D01*
G01X304Y13866D01*
G01X285Y13830D01*
G01X285Y13775D01*
G01X304Y13738D01*
G01X340Y13703D01*
G01X9773Y799D02*
G01X9755Y836D01*
G01X9717Y872D01*
G01X9682Y890D01*
G01X9609Y890D01*
G01X9573Y872D01*
G01X9536Y836D01*
G01X9517Y799D01*
G01X9500Y745D01*
G01X9500Y654D01*
G01X9517Y599D01*
G01X9536Y563D01*
G01X9573Y527D01*
G01X9609Y508D01*
G01X9682Y508D01*
G01X9717Y527D01*
G01X9755Y563D01*
G01X9773Y599D01*
G01X9773Y654D01*
G01X9682Y654D02*
G01X9773Y654D01*
G01X9892Y890D02*
G01X9892Y508D01*
G01X9892Y890D02*
G01X10055Y890D01*
G01X10111Y872D01*
G01X10128Y854D01*
G01X10146Y817D01*
G01X10146Y763D01*
G01X10128Y727D01*
G01X10111Y708D01*
G01X10055Y690D01*
G01X9892Y690D01*
G01X10521Y836D02*
G01X10484Y872D01*
G01X10430Y890D01*
G01X10357Y890D01*
G01X10303Y872D01*
G01X10267Y836D01*
G01X10267Y799D01*
G01X10284Y763D01*
G01X10303Y745D01*
G01X10340Y727D01*
G01X10448Y690D01*
G01X10484Y672D01*
G01X10503Y654D01*
G01X10521Y617D01*
G01X10521Y563D01*
G01X10484Y527D01*
G01X10430Y508D01*
G01X10357Y508D01*
G01X10303Y527D01*
G01X10267Y563D01*
G01X19950Y758D02*
G01X19950Y376D01*
G01X19950Y758D02*
G01X20114Y758D01*
G01X20168Y740D01*
G01X20185Y722D01*
G01X20205Y685D01*
G01X20205Y631D01*
G01X20185Y595D01*
G01X20168Y576D01*
G01X20114Y558D01*
G01X19950Y558D01*
G01X20414Y631D02*
G01X20378Y613D01*
G01X20343Y576D01*
G01X20325Y522D01*
G01X20325Y485D01*
G01X20343Y431D01*
G01X20378Y395D01*
G01X20414Y376D01*
G01X20469Y376D01*
G01X20506Y395D01*
G01X20543Y431D01*
G01X20560Y485D01*
G01X20560Y522D01*
G01X20543Y576D01*
G01X20506Y613D01*
G01X20469Y631D01*
G01X20414Y631D01*
G01X20681Y631D02*
G01X20753Y376D01*
G01X20826Y631D02*
G01X20753Y376D01*
G01X20826Y631D02*
G01X20898Y376D01*
G01X20972Y631D02*
G01X20898Y376D01*
G01X21092Y522D02*
G01X21310Y522D01*
G01X21310Y558D01*
G01X21292Y595D01*
G01X21273Y613D01*
G01X21236Y631D01*
G01X21182Y631D01*
G01X21146Y613D01*
G01X21110Y576D01*
G01X21092Y522D01*
G01X21092Y485D01*
G01X21110Y431D01*
G01X21146Y395D01*
G01X21182Y376D01*
G01X21236Y376D01*
G01X21273Y395D01*
G01X21310Y431D01*
G01X21430Y631D02*
G01X21430Y376D01*
G01X21430Y522D02*
G01X21447Y576D01*
G01X21485Y613D01*
G01X21521Y631D01*
G01X21575Y631D01*
G01X22222Y549D02*
G01X22205Y586D01*
G01X22168Y622D01*
G01X22131Y640D01*
G01X22059Y640D01*
G01X22022Y622D01*
G01X21985Y586D01*
G01X21968Y549D01*
G01X21950Y495D01*
G01X21950Y404D01*
G01X21968Y349D01*
G01X21985Y313D01*
G01X22022Y277D01*
G01X22059Y258D01*
G01X22131Y258D01*
G01X22168Y277D01*
G01X22205Y313D01*
G01X22222Y349D01*
G01X22222Y404D01*
G01X22131Y404D02*
G01X22222Y404D01*
G01X22343Y640D02*
G01X22343Y258D01*
G01X22343Y640D02*
G01X22506Y640D01*
G01X22560Y622D01*
G01X22578Y604D01*
G01X22597Y567D01*
G01X22597Y513D01*
G01X22578Y477D01*
G01X22560Y458D01*
G01X22506Y440D01*
G01X22343Y440D01*
G01X22717Y640D02*
G01X22717Y258D01*
G01X22946Y640D02*
G01X22910Y622D01*
G01X22873Y586D01*
G01X22855Y549D01*
G01X22836Y495D01*
G01X22836Y404D01*
G01X22855Y349D01*
G01X22873Y313D01*
G01X22910Y277D01*
G01X22946Y258D01*
G01X23018Y258D01*
G01X23055Y277D01*
G01X23092Y313D01*
G01X23110Y349D01*
G01X23127Y404D01*
G01X23127Y495D01*
G01X23110Y549D01*
G01X23092Y586D01*
G01X23055Y622D01*
G01X23018Y640D01*
G01X22946Y640D01*
G01X23546Y549D02*
G01X23546Y567D01*
G01X23564Y604D01*
G01X23582Y622D01*
G01X23618Y640D01*
G01X23692Y640D01*
G01X23727Y622D01*
G01X23746Y604D01*
G01X23764Y567D01*
G01X23764Y531D01*
G01X23746Y495D01*
G01X23710Y440D01*
G01X23527Y258D01*
G01X23782Y258D01*
G01X23939Y640D02*
G01X24139Y640D01*
G01X24030Y495D01*
G01X24085Y495D01*
G01X24121Y477D01*
G01X24139Y458D01*
G01X24156Y404D01*
G01X24156Y367D01*
G01X24139Y313D01*
G01X24102Y277D01*
G01X24047Y258D01*
G01X23993Y258D01*
G01X23939Y277D01*
G01X23921Y295D01*
G01X23902Y331D01*
G01X24575Y549D02*
G01X24575Y567D01*
G01X24593Y604D01*
G01X24611Y622D01*
G01X24647Y640D01*
G01X24721Y640D01*
G01X24756Y622D01*
G01X24775Y604D01*
G01X24793Y567D01*
G01X24793Y531D01*
G01X24775Y495D01*
G01X24739Y440D01*
G01X24556Y258D01*
G01X24811Y258D01*
G01X24950Y549D02*
G01X24950Y567D01*
G01X24968Y604D01*
G01X24985Y622D01*
G01X25022Y640D01*
G01X25094Y640D01*
G01X25131Y622D01*
G01X25150Y604D01*
G01X25168Y567D01*
G01X25168Y531D01*
G01X25150Y495D01*
G01X25114Y440D01*
G01X24931Y258D01*
G01X25185Y258D01*
G01X26272Y587D02*
G01X26255Y624D01*
G01X26218Y660D01*
G01X26181Y678D01*
G01X26109Y678D01*
G01X26072Y660D01*
G01X26035Y624D01*
G01X26018Y587D01*
G01X26000Y533D01*
G01X26000Y442D01*
G01X26018Y387D01*
G01X26035Y351D01*
G01X26072Y315D01*
G01X26109Y296D01*
G01X26181Y296D01*
G01X26218Y315D01*
G01X26255Y351D01*
G01X26272Y387D01*
G01X26272Y442D01*
G01X26181Y442D02*
G01X26272Y442D01*
G01X26393Y678D02*
G01X26393Y296D01*
G01X26393Y678D02*
G01X26556Y678D01*
G01X26610Y660D01*
G01X26628Y642D01*
G01X26647Y605D01*
G01X26647Y551D01*
G01X26628Y515D01*
G01X26610Y496D01*
G01X26556Y478D01*
G01X26393Y478D01*
G01X26767Y678D02*
G01X26767Y296D01*
G01X26996Y678D02*
G01X26960Y660D01*
G01X26923Y624D01*
G01X26905Y587D01*
G01X26886Y533D01*
G01X26886Y442D01*
G01X26905Y387D01*
G01X26923Y351D01*
G01X26960Y315D01*
G01X26996Y296D01*
G01X27068Y296D01*
G01X27105Y315D01*
G01X27142Y351D01*
G01X27160Y387D01*
G01X27177Y442D01*
G01X27177Y533D01*
G01X27160Y587D01*
G01X27142Y624D01*
G01X27105Y660D01*
G01X27068Y678D01*
G01X26996Y678D01*
G01X27596Y587D02*
G01X27596Y605D01*
G01X27614Y642D01*
G01X27632Y660D01*
G01X27668Y678D01*
G01X27742Y678D01*
G01X27777Y660D01*
G01X27796Y642D01*
G01X27814Y605D01*
G01X27814Y569D01*
G01X27796Y533D01*
G01X27760Y478D01*
G01X27577Y296D01*
G01X27832Y296D01*
G01X28171Y678D02*
G01X27989Y678D01*
G01X27971Y515D01*
G01X27989Y533D01*
G01X28043Y551D01*
G01X28097Y551D01*
G01X28152Y533D01*
G01X28189Y496D01*
G01X28206Y442D01*
G01X28206Y405D01*
G01X28189Y351D01*
G01X28152Y315D01*
G01X28097Y296D01*
G01X28043Y296D01*
G01X27989Y315D01*
G01X27971Y333D01*
G01X27952Y369D01*
G01X28625Y587D02*
G01X28625Y605D01*
G01X28643Y642D01*
G01X28661Y660D01*
G01X28697Y678D01*
G01X28771Y678D01*
G01X28806Y660D01*
G01X28825Y642D01*
G01X28843Y605D01*
G01X28843Y569D01*
G01X28825Y533D01*
G01X28789Y478D01*
G01X28606Y296D01*
G01X28861Y296D01*
G01X29164Y678D02*
G01X28981Y424D01*
G01X29255Y424D01*
G01X29164Y678D02*
G01X29164Y296D01*
G01X24466Y27308D02*
G01X24466Y27690D01*
G01X24328Y27399D02*
G01X24328Y27381D01*
G01X24310Y27344D01*
G01X24291Y27326D01*
G01X24255Y27308D01*
G01X24182Y27308D01*
G01X24146Y27326D01*
G01X24128Y27344D01*
G01X24110Y27381D01*
G01X24110Y27417D01*
G01X24128Y27453D01*
G01X24164Y27508D01*
G01X24346Y27690D01*
G01X24091Y27690D01*
G01X23699Y27399D02*
G01X23717Y27362D01*
G01X23753Y27326D01*
G01X23790Y27308D01*
G01X23862Y27308D01*
G01X23899Y27326D01*
G01X23935Y27362D01*
G01X23953Y27399D01*
G01X23971Y27453D01*
G01X23971Y27544D01*
G01X23953Y27599D01*
G01X23935Y27635D01*
G01X23899Y27671D01*
G01X23862Y27690D01*
G01X23790Y27690D01*
G01X23753Y27671D01*
G01X23717Y27635D01*
G01X23699Y27599D01*
G01X27666Y26658D02*
G01X27666Y27040D01*
G01X27528Y26749D02*
G01X27528Y26731D01*
G01X27510Y26694D01*
G01X27491Y26676D01*
G01X27455Y26658D01*
G01X27382Y26658D01*
G01X27346Y26676D01*
G01X27328Y26694D01*
G01X27310Y26731D01*
G01X27310Y26767D01*
G01X27328Y26803D01*
G01X27364Y26858D01*
G01X27546Y27040D01*
G01X27291Y27040D01*
G01X26899Y26749D02*
G01X26917Y26712D01*
G01X26953Y26676D01*
G01X26990Y26658D01*
G01X27062Y26658D01*
G01X27099Y26676D01*
G01X27135Y26712D01*
G01X27153Y26749D01*
G01X27171Y26803D01*
G01X27171Y26894D01*
G01X27153Y26949D01*
G01X27135Y26985D01*
G01X27099Y27021D01*
G01X27062Y27040D01*
G01X26990Y27040D01*
G01X26953Y27021D01*
G01X26917Y26985D01*
G01X26899Y26949D01*
G54D51*
G01X30048Y27424D02*
G01X30064Y27392D01*
G01X30096Y27359D01*
G01X30128Y27344D01*
G01X30192Y27344D01*
G01X30223Y27359D01*
G01X30255Y27392D01*
G01X30271Y27424D01*
G01X30287Y27471D01*
G01X30287Y27551D01*
G01X30271Y27599D01*
G01X30255Y27630D01*
G01X30223Y27661D01*
G01X30192Y27678D01*
G01X30128Y27678D01*
G01X30096Y27661D01*
G01X30064Y27630D01*
G01X30048Y27599D01*
G01X30048Y27551D01*
G01X30128Y27551D02*
G01X30048Y27551D01*
G01X29943Y27344D02*
G01X29943Y27678D01*
G01X29943Y27344D02*
G01X29721Y27678D01*
G01X29721Y27344D02*
G01X29721Y27678D01*
G01X29616Y27344D02*
G01X29616Y27678D01*
G01X29616Y27344D02*
G01X29504Y27344D01*
G01X29457Y27359D01*
G01X29425Y27392D01*
G01X29409Y27424D01*
G01X29393Y27471D01*
G01X29393Y27551D01*
G01X29409Y27599D01*
G01X29425Y27630D01*
G01X29457Y27661D01*
G01X29504Y27678D01*
G01X29616Y27678D01*
G01X29288Y27280D02*
G01X29288Y27790D01*
G01X29183Y27344D02*
G01X29056Y27678D01*
G01X28928Y27344D02*
G01X29056Y27678D01*
G01X28585Y27424D02*
G01X28601Y27392D01*
G01X28632Y27359D01*
G01X28664Y27344D01*
G01X28728Y27344D01*
G01X28760Y27359D01*
G01X28792Y27392D01*
G01X28807Y27424D01*
G01X28823Y27471D01*
G01X28823Y27551D01*
G01X28807Y27599D01*
G01X28792Y27630D01*
G01X28760Y27661D01*
G01X28728Y27678D01*
G01X28664Y27678D01*
G01X28632Y27661D01*
G01X28601Y27630D01*
G01X28585Y27599D01*
G01X28241Y27424D02*
G01X28257Y27392D01*
G01X28289Y27359D01*
G01X28321Y27344D01*
G01X28384Y27344D01*
G01X28416Y27359D01*
G01X28448Y27392D01*
G01X28464Y27424D01*
G01X28480Y27471D01*
G01X28480Y27551D01*
G01X28464Y27599D01*
G01X28448Y27630D01*
G01X28416Y27661D01*
G01X28384Y27678D01*
G01X28321Y27678D01*
G01X28289Y27661D01*
G01X28257Y27630D01*
G01X28241Y27599D01*
G01X28136Y27280D02*
G01X28136Y27790D01*
G01X27808Y27392D02*
G01X27840Y27359D01*
G01X27888Y27344D01*
G01X27952Y27344D01*
G01X27999Y27359D01*
G01X28031Y27392D01*
G01X28031Y27424D01*
G01X28015Y27455D01*
G01X27999Y27471D01*
G01X27967Y27486D01*
G01X27872Y27519D01*
G01X27840Y27534D01*
G01X27824Y27551D01*
G01X27808Y27582D01*
G01X27808Y27630D01*
G01X27840Y27661D01*
G01X27888Y27678D01*
G01X27952Y27678D01*
G01X27999Y27661D01*
G01X28031Y27630D01*
G01X27703Y27344D02*
G01X27703Y27678D01*
G01X27703Y27344D02*
G01X27592Y27344D01*
G01X27544Y27359D01*
G01X27512Y27392D01*
G01X27497Y27424D01*
G01X27481Y27471D01*
G01X27481Y27551D01*
G01X27497Y27599D01*
G01X27512Y27630D01*
G01X27544Y27661D01*
G01X27592Y27678D01*
G01X27703Y27678D01*
G01X27248Y27344D02*
G01X27376Y27678D01*
G01X27248Y27344D02*
G01X27121Y27678D01*
G01X27328Y27567D02*
G01X27169Y27567D01*
G01X27016Y27280D02*
G01X27016Y27790D01*
G01X26688Y27392D02*
G01X26720Y27359D01*
G01X26768Y27344D01*
G01X26832Y27344D01*
G01X26879Y27359D01*
G01X26911Y27392D01*
G01X26911Y27424D01*
G01X26895Y27455D01*
G01X26879Y27471D01*
G01X26847Y27486D01*
G01X26752Y27519D01*
G01X26720Y27534D01*
G01X26704Y27551D01*
G01X26688Y27582D01*
G01X26688Y27630D01*
G01X26720Y27661D01*
G01X26768Y27678D01*
G01X26832Y27678D01*
G01X26879Y27661D01*
G01X26911Y27630D01*
G01X26345Y27424D02*
G01X26361Y27392D01*
G01X26392Y27359D01*
G01X26424Y27344D01*
G01X26488Y27344D01*
G01X26520Y27359D01*
G01X26552Y27392D01*
G01X26567Y27424D01*
G01X26583Y27471D01*
G01X26583Y27551D01*
G01X26567Y27599D01*
G01X26552Y27630D01*
G01X26520Y27661D01*
G01X26488Y27678D01*
G01X26424Y27678D01*
G01X26392Y27661D01*
G01X26361Y27630D01*
G01X26345Y27599D01*
G01X26240Y27344D02*
G01X26240Y27678D01*
G01X26240Y27678D02*
G01X26049Y27678D01*
G54D57*
G01X20500Y27302D02*
G01X20500Y27684D01*
G01X20361Y27393D02*
G01X20361Y27375D01*
G01X20343Y27338D01*
G01X20325Y27320D01*
G01X20289Y27302D01*
G01X20215Y27302D01*
G01X20180Y27320D01*
G01X20161Y27338D01*
G01X20143Y27375D01*
G01X20143Y27411D01*
G01X20161Y27447D01*
G01X20197Y27502D01*
G01X20380Y27684D01*
G01X20125Y27684D01*
G01X19732Y27393D02*
G01X19751Y27355D01*
G01X19786Y27320D01*
G01X19823Y27302D01*
G01X19896Y27302D01*
G01X19932Y27320D01*
G01X19968Y27355D01*
G01X19986Y27393D01*
G01X20005Y27447D01*
G01X20005Y27538D01*
G01X19986Y27593D01*
G01X19968Y27628D01*
G01X19932Y27665D01*
G01X19896Y27684D01*
G01X19823Y27684D01*
G01X19786Y27665D01*
G01X19751Y27628D01*
G01X19732Y27593D01*
G01X16400Y27302D02*
G01X16400Y27684D01*
G01X16261Y27393D02*
G01X16261Y27375D01*
G01X16244Y27338D01*
G01X16225Y27320D01*
G01X16188Y27302D01*
G01X16115Y27302D01*
G01X16080Y27320D01*
G01X16061Y27338D01*
G01X16044Y27375D01*
G01X16044Y27411D01*
G01X16061Y27447D01*
G01X16098Y27502D01*
G01X16280Y27684D01*
G01X16025Y27684D01*
G01X15632Y27393D02*
G01X15651Y27355D01*
G01X15686Y27320D01*
G01X15723Y27302D01*
G01X15796Y27302D01*
G01X15832Y27320D01*
G01X15869Y27355D01*
G01X15886Y27393D01*
G01X15905Y27447D01*
G01X15905Y27538D01*
G01X15886Y27593D01*
G01X15869Y27628D01*
G01X15832Y27665D01*
G01X15796Y27684D01*
G01X15723Y27684D01*
G01X15686Y27665D01*
G01X15651Y27628D01*
G01X15632Y27593D01*
G01X12250Y27352D02*
G01X12250Y27734D01*
G01X12111Y27443D02*
G01X12111Y27425D01*
G01X12094Y27388D01*
G01X12075Y27370D01*
G01X12038Y27352D01*
G01X11965Y27352D01*
G01X11930Y27370D01*
G01X11911Y27388D01*
G01X11894Y27425D01*
G01X11894Y27461D01*
G01X11911Y27497D01*
G01X11948Y27552D01*
G01X12130Y27734D01*
G01X11875Y27734D01*
G01X11482Y27443D02*
G01X11501Y27405D01*
G01X11536Y27370D01*
G01X11573Y27352D01*
G01X11646Y27352D01*
G01X11682Y27370D01*
G01X11719Y27405D01*
G01X11736Y27443D01*
G01X11755Y27497D01*
G01X11755Y27588D01*
G01X11736Y27643D01*
G01X11719Y27678D01*
G01X11682Y27715D01*
G01X11646Y27734D01*
G01X11573Y27734D01*
G01X11536Y27715D01*
G01X11501Y27678D01*
G01X11482Y27643D01*
G01X8150Y27302D02*
G01X8150Y27684D01*
G01X8011Y27393D02*
G01X8011Y27375D01*
G01X7994Y27338D01*
G01X7975Y27320D01*
G01X7938Y27302D01*
G01X7865Y27302D01*
G01X7830Y27320D01*
G01X7811Y27338D01*
G01X7794Y27375D01*
G01X7794Y27411D01*
G01X7811Y27447D01*
G01X7848Y27502D01*
G01X8030Y27684D01*
G01X7775Y27684D01*
G01X7382Y27393D02*
G01X7401Y27355D01*
G01X7436Y27320D01*
G01X7473Y27302D01*
G01X7546Y27302D01*
G01X7582Y27320D01*
G01X7619Y27355D01*
G01X7636Y27393D01*
G01X7655Y27447D01*
G01X7655Y27538D01*
G01X7636Y27593D01*
G01X7619Y27628D01*
G01X7582Y27665D01*
G01X7546Y27684D01*
G01X7473Y27684D01*
G01X7436Y27665D01*
G01X7401Y27628D01*
G01X7382Y27593D01*
G01X22655Y8124D02*
G01X22618Y8160D01*
G01X22564Y8178D01*
G01X22490Y8178D01*
G01X22435Y8160D01*
G01X22400Y8124D01*
G01X22400Y8087D01*
G01X22418Y8051D01*
G01X22435Y8033D01*
G01X22472Y8015D01*
G01X22581Y7978D01*
G01X22618Y7960D01*
G01X22635Y7942D01*
G01X22655Y7905D01*
G01X22655Y7851D01*
G01X22618Y7815D01*
G01X22564Y7796D01*
G01X22490Y7796D01*
G01X22435Y7815D01*
G01X22400Y7851D01*
G01X22775Y8178D02*
G01X22775Y7796D01*
G01X22775Y8178D02*
G01X23010Y8178D01*
G01X22775Y7996D02*
G01X22919Y7996D01*
G01X22775Y7796D02*
G01X23010Y7796D01*
G01X23257Y8178D02*
G01X23257Y7796D01*
G01X23131Y8178D02*
G01X23385Y8178D01*
G01X23523Y8087D02*
G01X23523Y8105D01*
G01X23542Y8142D01*
G01X23560Y8160D01*
G01X23596Y8178D01*
G01X23668Y8178D01*
G01X23705Y8160D01*
G01X23723Y8142D01*
G01X23742Y8105D01*
G01X23742Y8069D01*
G01X23723Y8033D01*
G01X23686Y7978D01*
G01X23505Y7796D01*
G01X23760Y7796D01*
G01X23922Y7237D02*
G01X23905Y7274D01*
G01X23868Y7310D01*
G01X23831Y7328D01*
G01X23759Y7328D01*
G01X23722Y7310D01*
G01X23685Y7274D01*
G01X23668Y7237D01*
G01X23650Y7183D01*
G01X23650Y7092D01*
G01X23668Y7037D01*
G01X23685Y7001D01*
G01X23722Y6965D01*
G01X23759Y6946D01*
G01X23831Y6946D01*
G01X23868Y6965D01*
G01X23905Y7001D01*
G01X23922Y7037D01*
G01X23922Y7092D01*
G01X23831Y7092D02*
G01X23922Y7092D01*
G01X24043Y7328D02*
G01X24043Y6946D01*
G01X24043Y7328D02*
G01X24297Y6946D01*
G01X24297Y7328D02*
G01X24297Y6946D01*
G01X24417Y7328D02*
G01X24417Y6946D01*
G01X24417Y7328D02*
G01X24544Y7328D01*
G01X24598Y7310D01*
G01X24635Y7274D01*
G01X24653Y7237D01*
G01X24672Y7183D01*
G01X24672Y7092D01*
G01X24653Y7037D01*
G01X24635Y7001D01*
G01X24598Y6965D01*
G01X24544Y6946D01*
G01X24417Y6946D01*
G01X19200Y7278D02*
G01X19344Y6896D01*
G01X19490Y7278D02*
G01X19344Y6896D01*
G01X19884Y7187D02*
G01X19864Y7224D01*
G01X19828Y7260D01*
G01X19793Y7278D01*
G01X19719Y7278D01*
G01X19684Y7260D01*
G01X19647Y7224D01*
G01X19628Y7187D01*
G01X19610Y7133D01*
G01X19610Y7042D01*
G01X19628Y6987D01*
G01X19647Y6951D01*
G01X19684Y6915D01*
G01X19719Y6896D01*
G01X19793Y6896D01*
G01X19828Y6915D01*
G01X19864Y6951D01*
G01X19884Y6987D01*
G01X20276Y7187D02*
G01X20257Y7224D01*
G01X20222Y7260D01*
G01X20185Y7278D01*
G01X20113Y7278D01*
G01X20076Y7260D01*
G01X20039Y7224D01*
G01X20022Y7187D01*
G01X20003Y7133D01*
G01X20003Y7042D01*
G01X20022Y6987D01*
G01X20039Y6951D01*
G01X20076Y6915D01*
G01X20113Y6896D01*
G01X20185Y6896D01*
G01X20222Y6915D01*
G01X20257Y6951D01*
G01X20276Y6987D01*
G01X19759Y6377D02*
G01X19705Y6359D01*
G01X19668Y6304D01*
G01X19650Y6214D01*
G01X19650Y6159D01*
G01X19668Y6068D01*
G01X19705Y6014D01*
G01X19759Y5995D01*
G01X19794Y5995D01*
G01X19850Y6014D01*
G01X19885Y6068D01*
G01X19905Y6159D01*
G01X19905Y6214D01*
G01X19885Y6304D01*
G01X19850Y6359D01*
G01X19794Y6377D01*
G01X19759Y6377D01*
G01X20305Y6214D02*
G01X20631Y6214D01*
G01X20305Y6104D02*
G01X20631Y6104D01*
G01X21031Y6377D02*
G01X21122Y5995D01*
G01X21214Y6377D02*
G01X21122Y5995D01*
G01X21214Y6377D02*
G01X21305Y5995D01*
G01X21394Y6377D02*
G01X21305Y5995D01*
G01X21514Y6377D02*
G01X21514Y5995D01*
G01X21514Y6377D02*
G01X21643Y6377D01*
G01X21697Y6359D01*
G01X21734Y6323D01*
G01X21752Y6286D01*
G01X21769Y6232D01*
G01X21769Y6141D01*
G01X21752Y6086D01*
G01X21734Y6050D01*
G01X21697Y6014D01*
G01X21643Y5995D01*
G01X21514Y5995D01*
G01X22388Y6377D02*
G01X22388Y5995D01*
G01X22388Y6195D02*
G01X22352Y6232D01*
G01X22314Y6250D01*
G01X22260Y6250D01*
G01X22225Y6232D01*
G01X22188Y6195D01*
G01X22169Y6141D01*
G01X22169Y6104D01*
G01X22188Y6050D01*
G01X22225Y6014D01*
G01X22260Y5995D01*
G01X22314Y5995D01*
G01X22352Y6014D01*
G01X22388Y6050D01*
G01X22507Y6377D02*
G01X22526Y6359D01*
G01X22544Y6377D01*
G01X22526Y6395D01*
G01X22507Y6377D01*
G01X22526Y6250D02*
G01X22526Y5995D01*
G01X22864Y6195D02*
G01X22846Y6232D01*
G01X22792Y6250D01*
G01X22736Y6250D01*
G01X22682Y6232D01*
G01X22664Y6195D01*
G01X22682Y6159D01*
G01X22718Y6141D01*
G01X22810Y6123D01*
G01X22846Y6104D01*
G01X22864Y6068D01*
G01X22864Y6050D01*
G01X22846Y6014D01*
G01X22792Y5995D01*
G01X22736Y5995D01*
G01X22682Y6014D01*
G01X22664Y6050D01*
G01X23202Y6250D02*
G01X23202Y5995D01*
G01X23202Y6195D02*
G01X23165Y6232D01*
G01X23130Y6250D01*
G01X23075Y6250D01*
G01X23039Y6232D01*
G01X23002Y6195D01*
G01X22985Y6141D01*
G01X22985Y6104D01*
G01X23002Y6050D01*
G01X23039Y6014D01*
G01X23075Y5995D01*
G01X23130Y5995D01*
G01X23165Y6014D01*
G01X23202Y6050D01*
G01X23322Y6377D02*
G01X23322Y5995D01*
G01X23322Y6195D02*
G01X23359Y6232D01*
G01X23394Y6250D01*
G01X23450Y6250D01*
G01X23485Y6232D01*
G01X23522Y6195D01*
G01X23540Y6141D01*
G01X23540Y6104D01*
G01X23522Y6050D01*
G01X23485Y6014D01*
G01X23450Y5995D01*
G01X23394Y5995D01*
G01X23359Y6014D01*
G01X23322Y6050D01*
G01X23660Y6377D02*
G01X23660Y5995D01*
G01X23781Y6141D02*
G01X23998Y6141D01*
G01X23998Y6177D01*
G01X23981Y6214D01*
G01X23963Y6232D01*
G01X23926Y6250D01*
G01X23872Y6250D01*
G01X23835Y6232D01*
G01X23798Y6195D01*
G01X23781Y6141D01*
G01X23781Y6104D01*
G01X23798Y6050D01*
G01X23835Y6014D01*
G01X23872Y5995D01*
G01X23926Y5995D01*
G01X23963Y6014D01*
G01X23998Y6050D01*
G01X24336Y6377D02*
G01X24336Y5995D01*
G01X24336Y6195D02*
G01X24301Y6232D01*
G01X24264Y6250D01*
G01X24210Y6250D01*
G01X24173Y6232D01*
G01X24136Y6195D01*
G01X24118Y6141D01*
G01X24118Y6104D01*
G01X24136Y6050D01*
G01X24173Y6014D01*
G01X24210Y5995D01*
G01X24264Y5995D01*
G01X24301Y6014D01*
G01X24336Y6050D01*
G01X18350Y14136D02*
G01X18485Y13565D01*
G01X18622Y14136D02*
G01X18485Y13565D01*
G01X18622Y14136D02*
G01X18759Y13565D01*
G01X18894Y14136D02*
G01X18759Y13565D01*
G01X19075Y13782D02*
G01X19402Y13782D01*
G01X19402Y13836D01*
G01X19375Y13892D01*
G01X19347Y13919D01*
G01X19293Y13946D01*
G01X19211Y13946D01*
G01X19156Y13919D01*
G01X19102Y13865D01*
G01X19075Y13782D01*
G01X19075Y13728D01*
G01X19102Y13646D01*
G01X19156Y13592D01*
G01X19211Y13565D01*
G01X19293Y13565D01*
G01X19347Y13592D01*
G01X19402Y13646D01*
G01X19910Y13946D02*
G01X19910Y13565D01*
G01X19910Y13865D02*
G01X19855Y13919D01*
G01X19801Y13946D01*
G01X19718Y13946D01*
G01X19664Y13919D01*
G01X19610Y13865D01*
G01X19582Y13782D01*
G01X19582Y13728D01*
G01X19610Y13646D01*
G01X19664Y13592D01*
G01X19718Y13565D01*
G01X19801Y13565D01*
G01X19855Y13592D01*
G01X19910Y13646D01*
G01X20172Y14136D02*
G01X20172Y13674D01*
G01X20198Y13592D01*
G01X20253Y13565D01*
G01X20307Y13565D01*
G01X20089Y13946D02*
G01X20281Y13946D01*
G01X20488Y14136D02*
G01X20488Y13565D01*
G01X20488Y13836D02*
G01X20569Y13919D01*
G01X20625Y13946D01*
G01X20706Y13946D01*
G01X20760Y13919D01*
G01X20788Y13836D01*
G01X20788Y13565D01*
G01X20968Y13782D02*
G01X21294Y13782D01*
G01X21294Y13836D01*
G01X21268Y13892D01*
G01X21240Y13919D01*
G01X21185Y13946D01*
G01X21105Y13946D01*
G01X21050Y13919D01*
G01X20994Y13865D01*
G01X20968Y13782D01*
G01X20968Y13728D01*
G01X20994Y13646D01*
G01X21050Y13592D01*
G01X21105Y13565D01*
G01X21185Y13565D01*
G01X21240Y13592D01*
G01X21294Y13646D01*
G01X21475Y13946D02*
G01X21475Y13565D01*
G01X21475Y13782D02*
G01X21502Y13865D01*
G01X21556Y13919D01*
G01X21611Y13946D01*
G01X21693Y13946D01*
G01X21873Y14136D02*
G01X21873Y13565D01*
G01X21873Y13865D02*
G01X21927Y13919D01*
G01X21982Y13946D01*
G01X22064Y13946D01*
G01X22118Y13919D01*
G01X22173Y13865D01*
G01X22201Y13782D01*
G01X22201Y13728D01*
G01X22173Y13646D01*
G01X22118Y13592D01*
G01X22064Y13565D01*
G01X21982Y13565D01*
G01X21927Y13592D01*
G01X21873Y13646D01*
G01X22707Y13946D02*
G01X22707Y13565D01*
G01X22707Y13865D02*
G01X22653Y13919D01*
G01X22598Y13946D01*
G01X22517Y13946D01*
G01X22463Y13919D01*
G01X22407Y13865D01*
G01X22381Y13782D01*
G01X22381Y13728D01*
G01X22407Y13646D01*
G01X22463Y13592D01*
G01X22517Y13565D01*
G01X22598Y13565D01*
G01X22653Y13592D01*
G01X22707Y13646D01*
G01X22888Y14136D02*
G01X22888Y13565D01*
G01X23068Y14136D02*
G01X23068Y13565D01*
G01X23385Y13946D02*
G01X23330Y13919D01*
G01X23275Y13865D01*
G01X23247Y13782D01*
G01X23247Y13728D01*
G01X23275Y13646D01*
G01X23330Y13592D01*
G01X23385Y13565D01*
G01X23465Y13565D01*
G01X23521Y13592D01*
G01X23575Y13646D01*
G01X23602Y13728D01*
G01X23602Y13782D01*
G01X23575Y13865D01*
G01X23521Y13919D01*
G01X23465Y13946D01*
G01X23385Y13946D01*
G01X23918Y13946D02*
G01X23864Y13919D01*
G01X23810Y13865D01*
G01X23782Y13782D01*
G01X23782Y13728D01*
G01X23810Y13646D01*
G01X23864Y13592D01*
G01X23918Y13565D01*
G01X24001Y13565D01*
G01X24055Y13592D01*
G01X24110Y13646D01*
G01X24136Y13728D01*
G01X24136Y13782D01*
G01X24110Y13865D01*
G01X24055Y13919D01*
G01X24001Y13946D01*
G01X23918Y13946D01*
G01X24317Y13946D02*
G01X24317Y13565D01*
G01X24317Y13836D02*
G01X24398Y13919D01*
G01X24453Y13946D01*
G01X24535Y13946D01*
G01X24589Y13919D01*
G01X24617Y13836D01*
G01X24617Y13565D01*
G01X18759Y13001D02*
G01X18731Y13055D01*
G01X18677Y13109D01*
G01X18622Y13136D01*
G01X18514Y13136D01*
G01X18459Y13109D01*
G01X18405Y13055D01*
G01X18377Y13001D01*
G01X18350Y12919D01*
G01X18350Y12782D01*
G01X18377Y12701D01*
G01X18405Y12646D01*
G01X18459Y12592D01*
G01X18514Y12565D01*
G01X18622Y12565D01*
G01X18677Y12592D01*
G01X18731Y12646D01*
G01X18759Y12701D01*
G01X19075Y12946D02*
G01X19021Y12919D01*
G01X18965Y12865D01*
G01X18939Y12782D01*
G01X18939Y12728D01*
G01X18965Y12646D01*
G01X19021Y12592D01*
G01X19075Y12565D01*
G01X19156Y12565D01*
G01X19211Y12592D01*
G01X19265Y12646D01*
G01X19293Y12728D01*
G01X19293Y12782D01*
G01X19265Y12865D01*
G01X19211Y12919D01*
G01X19156Y12946D01*
G01X19075Y12946D01*
G01X19473Y12946D02*
G01X19473Y12565D01*
G01X19473Y12836D02*
G01X19555Y12919D01*
G01X19610Y12946D01*
G01X19692Y12946D01*
G01X19746Y12919D01*
G01X19773Y12836D01*
G01X19773Y12565D01*
G01X20035Y13136D02*
G01X20035Y12674D01*
G01X20063Y12592D01*
G01X20117Y12565D01*
G01X20172Y12565D01*
G01X19953Y12946D02*
G01X20144Y12946D01*
G01X20352Y12946D02*
G01X20352Y12565D01*
G01X20352Y12782D02*
G01X20378Y12865D01*
G01X20434Y12919D01*
G01X20488Y12946D01*
G01X20569Y12946D01*
G01X20885Y12946D02*
G01X20831Y12919D01*
G01X20777Y12865D01*
G01X20750Y12782D01*
G01X20750Y12728D01*
G01X20777Y12646D01*
G01X20831Y12592D01*
G01X20885Y12565D01*
G01X20968Y12565D01*
G01X21022Y12592D01*
G01X21077Y12646D01*
G01X21105Y12728D01*
G01X21105Y12782D01*
G01X21077Y12865D01*
G01X21022Y12919D01*
G01X20968Y12946D01*
G01X20885Y12946D01*
G01X21285Y13136D02*
G01X21285Y12565D01*
G01X21464Y13136D02*
G01X21464Y12565D01*
G01X21644Y12782D02*
G01X21972Y12782D01*
G01X21972Y12836D01*
G01X21944Y12892D01*
G01X21917Y12919D01*
G01X21863Y12946D01*
G01X21781Y12946D01*
G01X21726Y12919D01*
G01X21672Y12865D01*
G01X21644Y12782D01*
G01X21644Y12728D01*
G01X21672Y12646D01*
G01X21726Y12592D01*
G01X21781Y12565D01*
G01X21863Y12565D01*
G01X21917Y12592D01*
G01X21972Y12646D01*
G01X22152Y12946D02*
G01X22152Y12565D01*
G01X22152Y12782D02*
G01X22178Y12865D01*
G01X22234Y12919D01*
G01X22288Y12946D01*
G01X22369Y12946D01*
G01X22969Y13136D02*
G01X22969Y12565D01*
G01X22969Y13136D02*
G01X23214Y13136D01*
G01X23297Y13109D01*
G01X23325Y13082D01*
G01X23352Y13028D01*
G01X23352Y12974D01*
G01X23325Y12919D01*
G01X23297Y12892D01*
G01X23214Y12865D01*
G01X22969Y12865D02*
G01X23214Y12865D01*
G01X23297Y12836D01*
G01X23325Y12809D01*
G01X23352Y12755D01*
G01X23352Y12674D01*
G01X23325Y12619D01*
G01X23297Y12592D01*
G01X23214Y12565D01*
G01X22969Y12565D01*
G01X23668Y12946D02*
G01X23614Y12919D01*
G01X23559Y12865D01*
G01X23531Y12782D01*
G01X23531Y12728D01*
G01X23559Y12646D01*
G01X23614Y12592D01*
G01X23668Y12565D01*
G01X23750Y12565D01*
G01X23805Y12592D01*
G01X23859Y12646D01*
G01X23885Y12728D01*
G01X23885Y12782D01*
G01X23859Y12865D01*
G01X23805Y12919D01*
G01X23750Y12946D01*
G01X23668Y12946D01*
G01X24393Y12946D02*
G01X24393Y12565D01*
G01X24393Y12865D02*
G01X24339Y12919D01*
G01X24285Y12946D01*
G01X24202Y12946D01*
G01X24147Y12919D01*
G01X24093Y12865D01*
G01X24065Y12782D01*
G01X24065Y12728D01*
G01X24093Y12646D01*
G01X24147Y12592D01*
G01X24202Y12565D01*
G01X24285Y12565D01*
G01X24339Y12592D01*
G01X24393Y12646D01*
G01X24573Y12946D02*
G01X24573Y12565D01*
G01X24573Y12782D02*
G01X24601Y12865D01*
G01X24655Y12919D01*
G01X24710Y12946D01*
G01X24792Y12946D01*
G01X25298Y13136D02*
G01X25298Y12565D01*
G01X25298Y12865D02*
G01X25244Y12919D01*
G01X25189Y12946D01*
G01X25107Y12946D01*
G01X25053Y12919D01*
G01X24998Y12865D01*
G01X24972Y12782D01*
G01X24972Y12728D01*
G01X24998Y12646D01*
G01X25053Y12592D01*
G01X25107Y12565D01*
G01X25189Y12565D01*
G01X25244Y12592D01*
G01X25298Y12646D01*

%LPD*%
G36*
G01X23378Y24416D02*
G01X23348Y24422D01*
G01X23318Y24416D01*
G01X23293Y24402D01*
G01X23277Y24378D01*
G01X23271Y24349D01*
G01X23277Y24319D01*
G01X23293Y24295D01*
G01X23318Y24279D01*
G01X23348Y24274D01*
G01X23378Y24279D01*
G01X23403Y24295D01*
G01X23419Y24319D01*
G01X23426Y24349D01*
G01X23419Y24378D01*
G01X23403Y24402D01*
G01X23378Y24416D01*
G37*

%LPD*%
G36*
G01X20609Y24416D02*
G01X20580Y24422D01*
G01X20549Y24416D01*
G01X20524Y24402D01*
G01X20507Y24378D01*
G01X20502Y24349D01*
G01X20507Y24319D01*
G01X20524Y24295D01*
G01X20549Y24279D01*
G01X20580Y24274D01*
G01X20609Y24279D01*
G01X20634Y24295D01*
G01X20650Y24319D01*
G01X20656Y24349D01*
G01X20650Y24378D01*
G01X20634Y24402D01*
G01X20609Y24416D01*
G37*

%LPD*%
G36*
G01X24003Y24134D02*
G01X23978Y24136D01*
G01X23960Y24135D01*
G01X23941Y24132D01*
G01X23922Y24128D01*
G01X23903Y24122D01*
G01X23884Y24115D01*
G01X23865Y24106D01*
G01X23847Y24096D01*
G01X23829Y24084D01*
G01X23811Y24071D01*
G01X23794Y24057D01*
G01X23777Y24041D01*
G01X23761Y24025D01*
G01X23752Y24124D01*
G01X23735Y24134D01*
G01X23567Y24069D01*
G01X23567Y24032D01*
G01X23661Y24023D01*
G01X23663Y24005D01*
G01X23663Y23987D01*
G01X23665Y23951D01*
G01X23665Y23729D01*
G01X23664Y23676D01*
G01X23664Y23649D01*
G01X23663Y23624D01*
G01X23663Y23600D01*
G01X23573Y23586D01*
G01X23573Y23549D01*
G01X23852Y23549D01*
G01X23852Y23586D01*
G01X23768Y23600D01*
G01X23767Y23624D01*
G01X23767Y23676D01*
G01X23766Y23702D01*
G01X23766Y23755D01*
G01X23765Y23779D01*
G01X23765Y23980D01*
G01X23788Y23999D01*
G01X23810Y24016D01*
G01X23832Y24030D01*
G01X23852Y24041D01*
G01X23873Y24049D01*
G01X23893Y24055D01*
G01X23913Y24059D01*
G01X23934Y24059D01*
G01X23958Y24058D01*
G01X23979Y24052D01*
G01X23996Y24042D01*
G01X24010Y24027D01*
G01X24020Y24008D01*
G01X24028Y23982D01*
G01X24032Y23951D01*
G01X24034Y23913D01*
G01X24034Y23779D01*
G01X24033Y23754D01*
G01X24033Y23701D01*
G01X24032Y23675D01*
G01X24032Y23623D01*
G01X24031Y23600D01*
G01X23943Y23586D01*
G01X23943Y23549D01*
G01X24219Y23549D01*
G01X24219Y23586D01*
G01X24135Y23600D01*
G01X24134Y23623D01*
G01X24134Y23675D01*
G01X24133Y23701D01*
G01X24133Y23754D01*
G01X24132Y23779D01*
G01X24132Y23917D01*
G01X24131Y23953D01*
G01X24128Y23987D01*
G01X24123Y24017D01*
G01X24115Y24043D01*
G01X24106Y24065D01*
G01X24094Y24084D01*
G01X24080Y24101D01*
G01X24064Y24113D01*
G01X24046Y24123D01*
G01X24026Y24130D01*
G01X24003Y24134D01*
G37*

%LPD*%
G36*
G01X23402Y24124D02*
G01X23385Y24134D01*
G01X23200Y24070D01*
G01X23200Y24034D01*
G01X23297Y24025D01*
G01X23298Y24005D01*
G01X23300Y23969D01*
G01X23300Y23951D01*
G01X23301Y23932D01*
G01X23301Y23911D01*
G01X23302Y23890D01*
G01X23302Y23779D01*
G01X23301Y23755D01*
G01X23301Y23729D01*
G01X23300Y23702D01*
G01X23300Y23676D01*
G01X23299Y23649D01*
G01X23299Y23624D01*
G01X23298Y23600D01*
G01X23206Y23586D01*
G01X23206Y23549D01*
G01X23484Y23549D01*
G01X23484Y23586D01*
G01X23402Y23600D01*
G01X23401Y23624D01*
G01X23401Y23676D01*
G01X23400Y23702D01*
G01X23400Y23963D01*
G01X23402Y24124D01*
G37*

%LPD*%
G36*
G01X21753Y24355D02*
G01X21534Y24355D01*
G01X21534Y24313D01*
G01X21643Y24300D01*
G01X21643Y23605D01*
G01X21534Y23591D01*
G01X21534Y23549D01*
G01X21802Y23549D01*
G01X21802Y23591D01*
G01X21698Y23605D01*
G01X21698Y24014D01*
G01X21697Y24032D01*
G01X21697Y24052D01*
G01X21696Y24076D01*
G01X21695Y24101D01*
G01X21695Y24128D01*
G01X21692Y24212D01*
G01X21692Y24240D01*
G01X21973Y23549D01*
G01X22026Y23549D01*
G01X22297Y24242D01*
G01X22296Y23919D01*
G01X22296Y23813D01*
G01X22295Y23786D01*
G01X22295Y23681D01*
G01X22294Y23628D01*
G01X22293Y23603D01*
G01X22189Y23591D01*
G01X22189Y23549D01*
G01X22517Y23549D01*
G01X22517Y23591D01*
G01X22406Y23603D01*
G01X22405Y23629D01*
G01X22404Y23682D01*
G01X22404Y23789D01*
G01X22403Y23816D01*
G01X22403Y24088D01*
G01X22404Y24115D01*
G01X22404Y24222D01*
G01X22405Y24248D01*
G01X22405Y24275D01*
G01X22406Y24301D01*
G01X22518Y24313D01*
G01X22518Y24355D01*
G01X22285Y24355D01*
G01X22026Y23686D01*
G01X21753Y24355D01*
G37*

%LPD*%
G36*
G01X21235Y24134D02*
G01X21210Y24136D01*
G01X21192Y24135D01*
G01X21173Y24132D01*
G01X21153Y24128D01*
G01X21135Y24122D01*
G01X21115Y24115D01*
G01X21097Y24106D01*
G01X21078Y24096D01*
G01X21060Y24084D01*
G01X21043Y24071D01*
G01X21026Y24057D01*
G01X21009Y24041D01*
G01X20993Y24025D01*
G01X20984Y24124D01*
G01X20967Y24134D01*
G01X20797Y24069D01*
G01X20797Y24032D01*
G01X20893Y24023D01*
G01X20895Y23987D01*
G01X20895Y23969D01*
G01X20896Y23951D01*
G01X20896Y23911D01*
G01X20897Y23889D01*
G01X20897Y23779D01*
G01X20896Y23755D01*
G01X20896Y23676D01*
G01X20895Y23649D01*
G01X20895Y23624D01*
G01X20894Y23600D01*
G01X20806Y23586D01*
G01X20806Y23549D01*
G01X21082Y23549D01*
G01X21082Y23586D01*
G01X20998Y23600D01*
G01X20998Y23649D01*
G01X20997Y23676D01*
G01X20997Y23980D01*
G01X21020Y23999D01*
G01X21042Y24016D01*
G01X21063Y24030D01*
G01X21084Y24041D01*
G01X21105Y24049D01*
G01X21125Y24055D01*
G01X21145Y24059D01*
G01X21164Y24059D01*
G01X21189Y24058D01*
G01X21210Y24052D01*
G01X21228Y24042D01*
G01X21242Y24027D01*
G01X21252Y24008D01*
G01X21260Y23982D01*
G01X21264Y23951D01*
G01X21265Y23913D01*
G01X21265Y23728D01*
G01X21264Y23701D01*
G01X21264Y23675D01*
G01X21263Y23648D01*
G01X21263Y23600D01*
G01X21173Y23586D01*
G01X21173Y23549D01*
G01X21451Y23549D01*
G01X21451Y23586D01*
G01X21367Y23600D01*
G01X21366Y23623D01*
G01X21366Y23648D01*
G01X21365Y23675D01*
G01X21365Y23754D01*
G01X21364Y23779D01*
G01X21364Y23953D01*
G01X21360Y23987D01*
G01X21355Y24017D01*
G01X21347Y24043D01*
G01X21338Y24065D01*
G01X21326Y24084D01*
G01X21312Y24101D01*
G01X21296Y24113D01*
G01X21277Y24123D01*
G01X21257Y24130D01*
G01X21235Y24134D01*
G37*

%LPD*%
G36*
G01X20632Y24124D02*
G01X20617Y24134D01*
G01X20431Y24070D01*
G01X20431Y24034D01*
G01X20530Y24025D01*
G01X20530Y24005D01*
G01X20531Y23987D01*
G01X20531Y23969D01*
G01X20532Y23951D01*
G01X20532Y23702D01*
G01X20531Y23676D01*
G01X20531Y23600D01*
G01X20438Y23586D01*
G01X20438Y23549D01*
G01X20715Y23549D01*
G01X20715Y23586D01*
G01X20632Y23600D01*
G01X20632Y23649D01*
G01X20631Y23676D01*
G01X20631Y23963D01*
G01X20632Y24124D01*
G37*

%LPD*%
G36*
G01X19289Y24430D02*
G01X19272Y24440D01*
G01X19090Y24388D01*
G01X19090Y24353D01*
G01X19189Y24344D01*
G01X19189Y23779D01*
G01X19188Y23755D01*
G01X19188Y23676D01*
G01X19187Y23649D01*
G01X19187Y23624D01*
G01X19186Y23600D01*
G01X19096Y23586D01*
G01X19096Y23549D01*
G01X19373Y23549D01*
G01X19373Y23586D01*
G01X19289Y23600D01*
G01X19289Y23676D01*
G01X19288Y23702D01*
G01X19288Y23980D01*
G01X19311Y24001D01*
G01X19335Y24018D01*
G01X19356Y24032D01*
G01X19378Y24042D01*
G01X19398Y24050D01*
G01X19419Y24055D01*
G01X19439Y24059D01*
G01X19460Y24059D01*
G01X19484Y24058D01*
G01X19505Y24052D01*
G01X19522Y24043D01*
G01X19536Y24028D01*
G01X19547Y24009D01*
G01X19555Y23983D01*
G01X19560Y23952D01*
G01X19561Y23913D01*
G01X19561Y23701D01*
G01X19560Y23675D01*
G01X19560Y23648D01*
G01X19559Y23623D01*
G01X19559Y23600D01*
G01X19468Y23586D01*
G01X19468Y23549D01*
G01X19746Y23549D01*
G01X19746Y23586D01*
G01X19663Y23600D01*
G01X19662Y23623D01*
G01X19662Y23648D01*
G01X19661Y23675D01*
G01X19661Y23754D01*
G01X19660Y23779D01*
G01X19660Y23916D01*
G01X19659Y23953D01*
G01X19656Y23987D01*
G01X19651Y24017D01*
G01X19643Y24043D01*
G01X19633Y24066D01*
G01X19621Y24085D01*
G01X19607Y24101D01*
G01X19591Y24113D01*
G01X19572Y24123D01*
G01X19552Y24130D01*
G01X19529Y24134D01*
G01X19505Y24136D01*
G01X19465Y24132D01*
G01X19446Y24128D01*
G01X19426Y24121D01*
G01X19407Y24114D01*
G01X19388Y24105D01*
G01X19370Y24094D01*
G01X19352Y24082D01*
G01X19334Y24069D01*
G01X19317Y24055D01*
G01X19285Y24023D01*
G01X19285Y24259D01*
G01X19289Y24430D01*
G37*

%LPD*%
G36*
G01X17252Y24430D02*
G01X17235Y24440D01*
G01X17050Y24388D01*
G01X17050Y24353D01*
G01X17147Y24344D01*
G01X17147Y23675D01*
G01X17146Y23650D01*
G01X17146Y23600D01*
G01X17050Y23586D01*
G01X17050Y23549D01*
G01X17346Y23549D01*
G01X17346Y23586D01*
G01X17248Y23600D01*
G01X17248Y23650D01*
G01X17247Y23675D01*
G01X17247Y24259D01*
G01X17252Y24430D01*
G37*

%LPD*%
G36*
G01X15819Y24430D02*
G01X15803Y24440D01*
G01X15621Y24388D01*
G01X15621Y24353D01*
G01X15719Y24344D01*
G01X15719Y23779D01*
G01X15718Y23755D01*
G01X15718Y23702D01*
G01X15717Y23676D01*
G01X15717Y23600D01*
G01X15626Y23586D01*
G01X15626Y23549D01*
G01X15903Y23549D01*
G01X15903Y23586D01*
G01X15821Y23600D01*
G01X15820Y23624D01*
G01X15819Y23649D01*
G01X15819Y23676D01*
G01X15818Y23729D01*
G01X15818Y23755D01*
G01X15817Y23779D01*
G01X15817Y23980D01*
G01X15842Y24001D01*
G01X15865Y24018D01*
G01X15887Y24032D01*
G01X15908Y24042D01*
G01X15929Y24050D01*
G01X15950Y24055D01*
G01X15970Y24059D01*
G01X15990Y24059D01*
G01X16014Y24058D01*
G01X16035Y24052D01*
G01X16052Y24043D01*
G01X16067Y24028D01*
G01X16078Y24009D01*
G01X16085Y23983D01*
G01X16090Y23952D01*
G01X16092Y23913D01*
G01X16092Y23779D01*
G01X16091Y23754D01*
G01X16091Y23701D01*
G01X16090Y23675D01*
G01X16090Y23600D01*
G01X16000Y23586D01*
G01X16000Y23549D01*
G01X16276Y23549D01*
G01X16276Y23586D01*
G01X16192Y23600D01*
G01X16192Y23675D01*
G01X16191Y23701D01*
G01X16191Y23754D01*
G01X16190Y23779D01*
G01X16190Y23916D01*
G01X16189Y23953D01*
G01X16186Y23987D01*
G01X16181Y24017D01*
G01X16173Y24043D01*
G01X16163Y24066D01*
G01X16151Y24085D01*
G01X16137Y24101D01*
G01X16121Y24113D01*
G01X16103Y24123D01*
G01X16082Y24130D01*
G01X16060Y24134D01*
G01X16036Y24136D01*
G01X15996Y24132D01*
G01X15977Y24128D01*
G01X15957Y24121D01*
G01X15938Y24114D01*
G01X15919Y24105D01*
G01X15901Y24094D01*
G01X15882Y24082D01*
G01X15865Y24069D01*
G01X15848Y24055D01*
G01X15831Y24039D01*
G01X15815Y24023D01*
G01X15815Y24259D01*
G01X15819Y24430D01*
G37*

%LPD*%
G36*
G01X13996Y24430D02*
G01X13980Y24440D01*
G01X13798Y24388D01*
G01X13798Y24353D01*
G01X13896Y24344D01*
G01X13896Y23779D01*
G01X13895Y23755D01*
G01X13895Y23729D01*
G01X13894Y23702D01*
G01X13894Y23676D01*
G01X13893Y23649D01*
G01X13893Y23624D01*
G01X13892Y23600D01*
G01X13803Y23586D01*
G01X13803Y23549D01*
G01X14080Y23549D01*
G01X14080Y23586D01*
G01X13996Y23600D01*
G01X13996Y23649D01*
G01X13995Y23676D01*
G01X13995Y23702D01*
G01X13994Y23729D01*
G01X13994Y23980D01*
G01X14018Y24001D01*
G01X14041Y24018D01*
G01X14063Y24032D01*
G01X14084Y24042D01*
G01X14105Y24050D01*
G01X14126Y24055D01*
G01X14146Y24059D01*
G01X14167Y24059D01*
G01X14190Y24058D01*
G01X14211Y24052D01*
G01X14228Y24043D01*
G01X14242Y24028D01*
G01X14253Y24009D01*
G01X14261Y23983D01*
G01X14266Y23952D01*
G01X14267Y23913D01*
G01X14267Y23675D01*
G01X14266Y23648D01*
G01X14266Y23623D01*
G01X14265Y23600D01*
G01X14176Y23586D01*
G01X14176Y23549D01*
G01X14453Y23549D01*
G01X14453Y23586D01*
G01X14369Y23600D01*
G01X14369Y23648D01*
G01X14368Y23675D01*
G01X14368Y23701D01*
G01X14367Y23728D01*
G01X14367Y23916D01*
G01X14365Y23953D01*
G01X14362Y23987D01*
G01X14357Y24017D01*
G01X14349Y24043D01*
G01X14340Y24066D01*
G01X14328Y24085D01*
G01X14314Y24101D01*
G01X14298Y24113D01*
G01X14279Y24123D01*
G01X14259Y24130D01*
G01X14236Y24134D01*
G01X14211Y24136D01*
G01X14192Y24134D01*
G01X14172Y24132D01*
G01X14153Y24128D01*
G01X14133Y24121D01*
G01X14114Y24114D01*
G01X14095Y24105D01*
G01X14076Y24094D01*
G01X14058Y24082D01*
G01X14041Y24069D01*
G01X14023Y24055D01*
G01X14007Y24039D01*
G01X13992Y24023D01*
G01X13992Y24259D01*
G01X13996Y24430D01*
G37*

%LPD*%
G36*
G01X11996Y24355D02*
G01X11659Y24355D01*
G01X11659Y24313D01*
G01X11771Y24301D01*
G01X11771Y24274D01*
G01X11772Y24222D01*
G01X11773Y24195D01*
G01X11773Y23708D01*
G01X11772Y23682D01*
G01X11771Y23629D01*
G01X11771Y23603D01*
G01X11659Y23591D01*
G01X11659Y23549D01*
G01X11996Y23549D01*
G01X11996Y23591D01*
G01X11886Y23603D01*
G01X11885Y23628D01*
G01X11885Y23655D01*
G01X11884Y23682D01*
G01X11884Y23938D01*
G01X12276Y23938D01*
G01X12276Y23818D01*
G01X12275Y23790D01*
G01X12275Y23681D01*
G01X12274Y23628D01*
G01X12273Y23603D01*
G01X12163Y23591D01*
G01X12163Y23549D01*
G01X12501Y23549D01*
G01X12501Y23591D01*
G01X12388Y23603D01*
G01X12387Y23629D01*
G01X12386Y23682D01*
G01X12386Y24222D01*
G01X12387Y24248D01*
G01X12387Y24275D01*
G01X12388Y24301D01*
G01X12501Y24313D01*
G01X12501Y24355D01*
G01X12163Y24355D01*
G01X12163Y24313D01*
G01X12273Y24301D01*
G01X12274Y24275D01*
G01X12275Y24222D01*
G01X12275Y24117D01*
G01X12276Y24091D01*
G01X12276Y23986D01*
G01X11884Y23986D01*
G01X11884Y24223D01*
G01X11885Y24275D01*
G01X11886Y24301D01*
G01X11996Y24313D01*
G01X11996Y24355D01*
G37*

%LPD*%
G36*
G01X18664Y24355D02*
G01X18326Y24355D01*
G01X18326Y24313D01*
G01X18438Y24301D01*
G01X18438Y24274D01*
G01X18439Y24222D01*
G01X18440Y24195D01*
G01X18440Y23708D01*
G01X18439Y23682D01*
G01X18438Y23629D01*
G01X18438Y23603D01*
G01X18326Y23591D01*
G01X18326Y23549D01*
G01X18664Y23549D01*
G01X18664Y23591D01*
G01X18552Y23603D01*
G01X18552Y23629D01*
G01X18551Y23681D01*
G01X18551Y23925D01*
G01X18614Y23925D01*
G01X18649Y23923D01*
G01X18679Y23920D01*
G01X18704Y23912D01*
G01X18725Y23901D01*
G01X18742Y23886D01*
G01X18756Y23865D01*
G01X18768Y23838D01*
G01X18777Y23805D01*
G01X18827Y23613D01*
G01X18833Y23594D01*
G01X18842Y23578D01*
G01X18852Y23565D01*
G01X18865Y23554D01*
G01X18881Y23546D01*
G01X18901Y23541D01*
G01X18923Y23538D01*
G01X18950Y23536D01*
G01X18976Y23537D01*
G01X19000Y23540D01*
G01X19022Y23543D01*
G01X19040Y23549D01*
G01X19040Y23591D01*
G01X18947Y23600D01*
G01X18892Y23788D01*
G01X18880Y23821D01*
G01X18868Y23849D01*
G01X18854Y23873D01*
G01X18838Y23893D01*
G01X18819Y23909D01*
G01X18798Y23923D01*
G01X18774Y23933D01*
G01X18747Y23941D01*
G01X18780Y23948D01*
G01X18810Y23957D01*
G01X18838Y23969D01*
G01X18862Y23983D01*
G01X18883Y23999D01*
G01X18902Y24016D01*
G01X18918Y24034D01*
G01X18931Y24055D01*
G01X18940Y24076D01*
G01X18948Y24098D01*
G01X18952Y24120D01*
G01X18953Y24144D01*
G01X18952Y24168D01*
G01X18948Y24191D01*
G01X18943Y24212D01*
G01X18934Y24232D01*
G01X18923Y24251D01*
G01X18910Y24269D01*
G01X18895Y24284D01*
G01X18877Y24299D01*
G01X18857Y24312D01*
G01X18836Y24323D01*
G01X18812Y24332D01*
G01X18786Y24340D01*
G01X18758Y24347D01*
G01X18728Y24351D01*
G01X18697Y24354D01*
G01X18664Y24355D01*
G37*

%LPC*%
G36*
G01X18656Y24307D02*
G01X18552Y24307D01*
G01X18552Y24254D01*
G01X18551Y24227D01*
G01X18551Y23971D01*
G01X18648Y23971D01*
G01X18679Y23972D01*
G01X18707Y23977D01*
G01X18732Y23984D01*
G01X18755Y23993D01*
G01X18775Y24005D01*
G01X18793Y24020D01*
G01X18807Y24036D01*
G01X18819Y24055D01*
G01X18828Y24075D01*
G01X18835Y24097D01*
G01X18839Y24120D01*
G01X18840Y24145D01*
G01X18839Y24170D01*
G01X18836Y24193D01*
G01X18830Y24214D01*
G01X18821Y24233D01*
G01X18810Y24250D01*
G01X18796Y24265D01*
G01X18780Y24278D01*
G01X18761Y24288D01*
G01X18739Y24297D01*
G01X18714Y24303D01*
G01X18687Y24306D01*
G01X18656Y24307D01*
G37*

%LPD*%
G36*
G01X22877Y24135D02*
G01X22855Y24136D01*
G01X22824Y24134D01*
G01X22796Y24131D01*
G01X22769Y24125D01*
G01X22744Y24118D01*
G01X22721Y24108D01*
G01X22699Y24096D01*
G01X22680Y24082D01*
G01X22664Y24067D01*
G01X22649Y24050D01*
G01X22638Y24030D01*
G01X22628Y24010D01*
G01X22622Y23988D01*
G01X22627Y23968D01*
G01X22637Y23953D01*
G01X22653Y23945D01*
G01X22676Y23942D01*
G01X22697Y23945D01*
G01X22713Y23955D01*
G01X22726Y23973D01*
G01X22735Y23998D01*
G01X22759Y24080D01*
G01X22777Y24084D01*
G01X22795Y24087D01*
G01X22811Y24089D01*
G01X22827Y24090D01*
G01X22856Y24088D01*
G01X22880Y24083D01*
G01X22900Y24074D01*
G01X22915Y24059D01*
G01X22927Y24040D01*
G01X22936Y24013D01*
G01X22941Y23981D01*
G01X22943Y23941D01*
G01X22943Y23903D01*
G01X22906Y23894D01*
G01X22870Y23884D01*
G01X22835Y23874D01*
G01X22803Y23863D01*
G01X22767Y23850D01*
G01X22734Y23836D01*
G01X22706Y23822D01*
G01X22682Y23808D01*
G01X22662Y23793D01*
G01X22645Y23779D01*
G01X22632Y23764D01*
G01X22621Y23748D01*
G01X22614Y23732D01*
G01X22608Y23716D01*
G01X22606Y23699D01*
G01X22605Y23680D01*
G01X22606Y23657D01*
G01X22610Y23636D01*
G01X22617Y23617D01*
G01X22627Y23599D01*
G01X22638Y23584D01*
G01X22652Y23571D01*
G01X22667Y23559D01*
G01X22684Y23550D01*
G01X22702Y23543D01*
G01X22722Y23538D01*
G01X22743Y23534D01*
G01X22764Y23534D01*
G01X22790Y23535D01*
G01X22814Y23539D01*
G01X22836Y23547D01*
G01X22857Y23557D01*
G01X22877Y23571D01*
G01X22899Y23587D01*
G01X22921Y23607D01*
G01X22944Y23630D01*
G01X22950Y23609D01*
G01X22957Y23590D01*
G01X22968Y23574D01*
G01X22980Y23561D01*
G01X22995Y23550D01*
G01X23012Y23542D01*
G01X23031Y23537D01*
G01X23052Y23536D01*
G01X23082Y23539D01*
G01X23110Y23549D01*
G01X23134Y23568D01*
G01X23156Y23597D01*
G01X23134Y23621D01*
G01X23122Y23608D01*
G01X23111Y23598D01*
G01X23099Y23593D01*
G01X23085Y23591D01*
G01X23067Y23595D01*
G01X23053Y23608D01*
G01X23044Y23632D01*
G01X23042Y23668D01*
G01X23042Y23930D01*
G01X23041Y23956D01*
G01X23039Y23981D01*
G01X23035Y24004D01*
G01X23030Y24025D01*
G01X23024Y24043D01*
G01X23016Y24060D01*
G01X23006Y24075D01*
G01X22996Y24088D01*
G01X22983Y24100D01*
G01X22969Y24110D01*
G01X22954Y24118D01*
G01X22937Y24124D01*
G01X22919Y24129D01*
G01X22899Y24133D01*
G01X22877Y24135D01*
G37*

%LPC*%
G36*
G01X22943Y23674D02*
G01X22943Y23866D01*
G01X22911Y23856D01*
G01X22854Y23837D01*
G01X22831Y23828D01*
G01X22796Y23813D01*
G01X22767Y23797D01*
G01X22746Y23781D01*
G01X22730Y23765D01*
G01X22719Y23748D01*
G01X22712Y23731D01*
G01X22709Y23714D01*
G01X22707Y23698D01*
G01X22709Y23675D01*
G01X22715Y23655D01*
G01X22723Y23639D01*
G01X22735Y23626D01*
G01X22749Y23616D01*
G01X22766Y23609D01*
G01X22784Y23605D01*
G01X22805Y23603D01*
G01X22820Y23604D01*
G01X22835Y23607D01*
G01X22849Y23612D01*
G01X22864Y23619D01*
G01X22881Y23628D01*
G01X22899Y23641D01*
G01X22919Y23655D01*
G01X22943Y23674D01*
G37*

%LPD*%
G36*
G01X20138Y24134D02*
G01X20114Y24136D01*
G01X20091Y24135D01*
G01X20069Y24132D01*
G01X20048Y24128D01*
G01X20027Y24122D01*
G01X20007Y24114D01*
G01X19988Y24105D01*
G01X19970Y24094D01*
G01X19952Y24082D01*
G01X19935Y24068D01*
G01X19920Y24053D01*
G01X19905Y24036D01*
G01X19892Y24018D01*
G01X19880Y23999D01*
G01X19869Y23978D01*
G01X19860Y23957D01*
G01X19852Y23934D01*
G01X19846Y23909D01*
G01X19841Y23884D01*
G01X19839Y23858D01*
G01X19838Y23830D01*
G01X19838Y23803D01*
G01X19841Y23776D01*
G01X19845Y23751D01*
G01X19850Y23727D01*
G01X19857Y23704D01*
G01X19865Y23683D01*
G01X19875Y23663D01*
G01X19886Y23644D01*
G01X19899Y23627D01*
G01X19913Y23611D01*
G01X19927Y23597D01*
G01X19943Y23584D01*
G01X19961Y23572D01*
G01X19979Y23562D01*
G01X19998Y23553D01*
G01X20018Y23546D01*
G01X20040Y23541D01*
G01X20062Y23537D01*
G01X20085Y23534D01*
G01X20135Y23534D01*
G01X20160Y23538D01*
G01X20183Y23543D01*
G01X20205Y23550D01*
G01X20226Y23559D01*
G01X20246Y23570D01*
G01X20264Y23583D01*
G01X20282Y23597D01*
G01X20297Y23613D01*
G01X20312Y23631D01*
G01X20325Y23650D01*
G01X20336Y23671D01*
G01X20313Y23688D01*
G01X20296Y23669D01*
G01X20279Y23652D01*
G01X20261Y23637D01*
G01X20242Y23625D01*
G01X20220Y23614D01*
G01X20197Y23607D01*
G01X20172Y23602D01*
G01X20143Y23601D01*
G01X20122Y23602D01*
G01X20101Y23604D01*
G01X20081Y23609D01*
G01X20063Y23616D01*
G01X20045Y23624D01*
G01X20029Y23634D01*
G01X20014Y23646D01*
G01X20000Y23660D01*
G01X19987Y23676D01*
G01X19976Y23694D01*
G01X19967Y23714D01*
G01X19959Y23735D01*
G01X19952Y23759D01*
G01X19947Y23784D01*
G01X19944Y23811D01*
G01X19943Y23840D01*
G01X20330Y23838D01*
G01X20334Y23852D01*
G01X20336Y23868D01*
G01X20338Y23886D01*
G01X20339Y23905D01*
G01X20337Y23932D01*
G01X20334Y23956D01*
G01X20329Y23980D01*
G01X20322Y24001D01*
G01X20313Y24022D01*
G01X20302Y24041D01*
G01X20289Y24058D01*
G01X20275Y24074D01*
G01X20259Y24088D01*
G01X20242Y24100D01*
G01X20223Y24111D01*
G01X20203Y24120D01*
G01X20182Y24127D01*
G01X20160Y24132D01*
G01X20138Y24134D01*
G37*

%LPC*%
G36*
G01X20135Y24086D02*
G01X20107Y24090D01*
G01X20089Y24088D01*
G01X20071Y24084D01*
G01X20053Y24078D01*
G01X20035Y24068D01*
G01X20019Y24056D01*
G01X20003Y24041D01*
G01X19989Y24023D01*
G01X19976Y24002D01*
G01X19964Y23978D01*
G01X19955Y23950D01*
G01X19948Y23920D01*
G01X19943Y23886D01*
G01X20177Y23882D01*
G01X20209Y23888D01*
G01X20228Y23901D01*
G01X20238Y23923D01*
G01X20240Y23950D01*
G01X20238Y23977D01*
G01X20231Y24003D01*
G01X20219Y24027D01*
G01X20203Y24048D01*
G01X20184Y24065D01*
G01X20161Y24078D01*
G01X20135Y24086D01*
G37*

%LPD*%
G36*
G01X17732Y24134D02*
G01X17709Y24136D01*
G01X17686Y24135D01*
G01X17665Y24132D01*
G01X17644Y24128D01*
G01X17623Y24122D01*
G01X17603Y24114D01*
G01X17584Y24105D01*
G01X17565Y24094D01*
G01X17547Y24082D01*
G01X17531Y24068D01*
G01X17515Y24053D01*
G01X17501Y24036D01*
G01X17487Y24018D01*
G01X17475Y23999D01*
G01X17464Y23978D01*
G01X17455Y23957D01*
G01X17447Y23934D01*
G01X17441Y23909D01*
G01X17436Y23884D01*
G01X17434Y23858D01*
G01X17432Y23830D01*
G01X17433Y23803D01*
G01X17436Y23776D01*
G01X17440Y23751D01*
G01X17445Y23727D01*
G01X17452Y23704D01*
G01X17461Y23683D01*
G01X17471Y23663D01*
G01X17481Y23644D01*
G01X17494Y23627D01*
G01X17508Y23611D01*
G01X17523Y23597D01*
G01X17539Y23584D01*
G01X17556Y23572D01*
G01X17574Y23562D01*
G01X17594Y23553D01*
G01X17614Y23546D01*
G01X17635Y23541D01*
G01X17657Y23537D01*
G01X17681Y23534D01*
G01X17731Y23534D01*
G01X17756Y23538D01*
G01X17779Y23543D01*
G01X17801Y23550D01*
G01X17822Y23559D01*
G01X17842Y23570D01*
G01X17860Y23583D01*
G01X17877Y23597D01*
G01X17893Y23613D01*
G01X17907Y23631D01*
G01X17921Y23650D01*
G01X17932Y23671D01*
G01X17907Y23688D01*
G01X17891Y23669D01*
G01X17874Y23652D01*
G01X17856Y23637D01*
G01X17836Y23625D01*
G01X17815Y23614D01*
G01X17792Y23607D01*
G01X17767Y23602D01*
G01X17739Y23601D01*
G01X17717Y23602D01*
G01X17696Y23604D01*
G01X17676Y23609D01*
G01X17658Y23616D01*
G01X17640Y23624D01*
G01X17624Y23634D01*
G01X17609Y23646D01*
G01X17595Y23660D01*
G01X17582Y23676D01*
G01X17572Y23694D01*
G01X17562Y23714D01*
G01X17554Y23735D01*
G01X17547Y23759D01*
G01X17543Y23784D01*
G01X17540Y23811D01*
G01X17539Y23840D01*
G01X17926Y23838D01*
G01X17929Y23852D01*
G01X17932Y23868D01*
G01X17934Y23886D01*
G01X17935Y23905D01*
G01X17933Y23932D01*
G01X17930Y23956D01*
G01X17925Y23980D01*
G01X17918Y24001D01*
G01X17908Y24022D01*
G01X17897Y24041D01*
G01X17885Y24058D01*
G01X17870Y24074D01*
G01X17854Y24088D01*
G01X17837Y24100D01*
G01X17818Y24111D01*
G01X17799Y24120D01*
G01X17778Y24127D01*
G01X17756Y24132D01*
G01X17732Y24134D01*
G37*

%LPC*%
G36*
G01X17731Y24086D02*
G01X17703Y24090D01*
G01X17685Y24088D01*
G01X17667Y24084D01*
G01X17648Y24078D01*
G01X17631Y24068D01*
G01X17614Y24056D01*
G01X17598Y24041D01*
G01X17584Y24023D01*
G01X17571Y24002D01*
G01X17560Y23978D01*
G01X17551Y23950D01*
G01X17544Y23920D01*
G01X17539Y23886D01*
G01X17772Y23882D01*
G01X17804Y23888D01*
G01X17824Y23901D01*
G01X17834Y23923D01*
G01X17836Y23950D01*
G01X17834Y23977D01*
G01X17827Y24003D01*
G01X17815Y24027D01*
G01X17799Y24048D01*
G01X17780Y24065D01*
G01X17757Y24078D01*
G01X17731Y24086D01*
G37*

%LPD*%
G36*
G01X16530Y24117D02*
G01X16517Y24128D01*
G01X16340Y24111D01*
G01X16340Y24076D01*
G01X16428Y24057D01*
G01X16423Y23751D01*
G01X16425Y23713D01*
G01X16428Y23679D01*
G01X16434Y23649D01*
G01X16442Y23623D01*
G01X16453Y23601D01*
G01X16465Y23582D01*
G01X16480Y23567D01*
G01X16497Y23554D01*
G01X16515Y23545D01*
G01X16536Y23538D01*
G01X16558Y23535D01*
G01X16582Y23534D01*
G01X16601Y23534D01*
G01X16619Y23537D01*
G01X16638Y23541D01*
G01X16657Y23546D01*
G01X16676Y23553D01*
G01X16694Y23562D01*
G01X16712Y23572D01*
G01X16730Y23584D01*
G01X16747Y23598D01*
G01X16764Y23613D01*
G01X16780Y23629D01*
G01X16796Y23648D01*
G01X16806Y23538D01*
G01X16973Y23549D01*
G01X16973Y23584D01*
G01X16892Y23598D01*
G01X16892Y23946D01*
G01X16894Y24117D01*
G01X16884Y24128D01*
G01X16710Y24109D01*
G01X16710Y24074D01*
G01X16796Y24057D01*
G01X16793Y23691D01*
G01X16772Y23672D01*
G01X16752Y23656D01*
G01X16731Y23642D01*
G01X16710Y23631D01*
G01X16689Y23623D01*
G01X16668Y23617D01*
G01X16646Y23613D01*
G01X16625Y23611D01*
G01X16601Y23613D01*
G01X16581Y23619D01*
G01X16564Y23629D01*
G01X16550Y23644D01*
G01X16539Y23663D01*
G01X16531Y23688D01*
G01X16526Y23719D01*
G01X16525Y23757D01*
G01X16525Y23946D01*
G01X16530Y24117D01*
G37*

%LPD*%
G36*
G01X15371Y24134D02*
G01X15344Y24136D01*
G01X15323Y24135D01*
G01X15301Y24132D01*
G01X15280Y24128D01*
G01X15259Y24122D01*
G01X15239Y24115D01*
G01X15219Y24106D01*
G01X15201Y24096D01*
G01X15182Y24084D01*
G01X15165Y24070D01*
G01X15149Y24055D01*
G01X15134Y24039D01*
G01X15120Y24021D01*
G01X15108Y24002D01*
G01X15096Y23982D01*
G01X15087Y23960D01*
G01X15079Y23937D01*
G01X15072Y23913D01*
G01X15067Y23887D01*
G01X15065Y23861D01*
G01X15063Y23832D01*
G01X15064Y23805D01*
G01X15067Y23780D01*
G01X15071Y23755D01*
G01X15076Y23731D01*
G01X15083Y23708D01*
G01X15092Y23687D01*
G01X15101Y23667D01*
G01X15112Y23648D01*
G01X15125Y23630D01*
G01X15138Y23614D01*
G01X15153Y23599D01*
G01X15169Y23586D01*
G01X15186Y23574D01*
G01X15205Y23563D01*
G01X15224Y23554D01*
G01X15244Y23547D01*
G01X15265Y23541D01*
G01X15288Y23537D01*
G01X15311Y23534D01*
G01X15334Y23534D01*
G01X15362Y23535D01*
G01X15388Y23538D01*
G01X15412Y23544D01*
G01X15435Y23551D01*
G01X15456Y23561D01*
G01X15475Y23572D01*
G01X15493Y23586D01*
G01X15509Y23601D01*
G01X15524Y23618D01*
G01X15537Y23637D01*
G01X15549Y23658D01*
G01X15559Y23680D01*
G01X15534Y23692D01*
G01X15518Y23671D01*
G01X15501Y23653D01*
G01X15482Y23638D01*
G01X15461Y23625D01*
G01X15439Y23614D01*
G01X15416Y23607D01*
G01X15391Y23602D01*
G01X15365Y23601D01*
G01X15344Y23602D01*
G01X15324Y23605D01*
G01X15305Y23610D01*
G01X15286Y23617D01*
G01X15268Y23626D01*
G01X15252Y23636D01*
G01X15237Y23649D01*
G01X15223Y23664D01*
G01X15210Y23680D01*
G01X15199Y23699D01*
G01X15190Y23719D01*
G01X15182Y23740D01*
G01X15175Y23763D01*
G01X15170Y23788D01*
G01X15167Y23815D01*
G01X15167Y23872D01*
G01X15170Y23899D01*
G01X15174Y23924D01*
G01X15180Y23948D01*
G01X15187Y23970D01*
G01X15196Y23990D01*
G01X15206Y24008D01*
G01X15218Y24025D01*
G01X15230Y24040D01*
G01X15245Y24053D01*
G01X15260Y24064D01*
G01X15276Y24073D01*
G01X15294Y24080D01*
G01X15312Y24085D01*
G01X15331Y24088D01*
G01X15351Y24090D01*
G01X15367Y24089D01*
G01X15382Y24087D01*
G01X15399Y24084D01*
G01X15417Y24078D01*
G01X15440Y23994D01*
G01X15446Y23971D01*
G01X15459Y23953D01*
G01X15478Y23942D01*
G01X15503Y23938D01*
G01X15523Y23940D01*
G01X15538Y23949D01*
G01X15549Y23963D01*
G01X15557Y23982D01*
G01X15551Y24003D01*
G01X15542Y24024D01*
G01X15531Y24043D01*
G01X15518Y24061D01*
G01X15502Y24077D01*
G01X15484Y24092D01*
G01X15465Y24105D01*
G01X15443Y24115D01*
G01X15420Y24124D01*
G01X15396Y24130D01*
G01X15371Y24134D01*
G37*

%LPD*%
G36*
G01X14789Y24135D02*
G01X14765Y24136D01*
G01X14733Y24134D01*
G01X14703Y24129D01*
G01X14675Y24122D01*
G01X14650Y24112D01*
G01X14628Y24099D01*
G01X14609Y24085D01*
G01X14592Y24069D01*
G01X14579Y24051D01*
G01X14568Y24031D01*
G01X14561Y24011D01*
G01X14556Y23990D01*
G01X14555Y23968D01*
G01X14556Y23948D01*
G01X14559Y23929D01*
G01X14565Y23912D01*
G01X14573Y23896D01*
G01X14583Y23881D01*
G01X14595Y23868D01*
G01X14609Y23855D01*
G01X14625Y23843D01*
G01X14642Y23832D01*
G01X14661Y23822D01*
G01X14681Y23813D01*
G01X14703Y23805D01*
G01X14759Y23786D01*
G01X14786Y23775D01*
G01X14809Y23764D01*
G01X14829Y23752D01*
G01X14844Y23740D01*
G01X14856Y23726D01*
G01X14864Y23711D01*
G01X14869Y23695D01*
G01X14871Y23677D01*
G01X14869Y23656D01*
G01X14862Y23637D01*
G01X14852Y23620D01*
G01X14837Y23606D01*
G01X14817Y23595D01*
G01X14794Y23586D01*
G01X14765Y23581D01*
G01X14732Y23580D01*
G01X14705Y23581D01*
G01X14679Y23584D01*
G01X14655Y23591D01*
G01X14634Y23600D01*
G01X14607Y23711D01*
G01X14550Y23711D01*
G01X14551Y23578D01*
G01X14574Y23568D01*
G01X14595Y23559D01*
G01X14617Y23551D01*
G01X14639Y23545D01*
G01X14661Y23540D01*
G01X14684Y23536D01*
G01X14708Y23534D01*
G01X14761Y23534D01*
G01X14788Y23537D01*
G01X14812Y23542D01*
G01X14834Y23547D01*
G01X14855Y23555D01*
G01X14875Y23563D01*
G01X14892Y23573D01*
G01X14907Y23584D01*
G01X14921Y23597D01*
G01X14933Y23610D01*
G01X14943Y23624D01*
G01X14951Y23639D01*
G01X14958Y23655D01*
G01X14963Y23671D01*
G01X14967Y23705D01*
G01X14963Y23741D01*
G01X14957Y23758D01*
G01X14950Y23774D01*
G01X14940Y23790D01*
G01X14929Y23804D01*
G01X14914Y23818D01*
G01X14897Y23832D01*
G01X14878Y23844D01*
G01X14855Y23856D01*
G01X14830Y23868D01*
G01X14801Y23878D01*
G01X14759Y23894D01*
G01X14732Y23905D01*
G01X14708Y23915D01*
G01X14688Y23926D01*
G01X14673Y23938D01*
G01X14661Y23951D01*
G01X14653Y23965D01*
G01X14649Y23982D01*
G01X14648Y24001D01*
G01X14650Y24020D01*
G01X14655Y24037D01*
G01X14665Y24052D01*
G01X14678Y24064D01*
G01X14694Y24075D01*
G01X14715Y24082D01*
G01X14738Y24087D01*
G01X14765Y24088D01*
G01X14787Y24087D01*
G01X14809Y24083D01*
G01X14831Y24076D01*
G01X14853Y24067D01*
G01X14876Y23965D01*
G01X14930Y23965D01*
G01X14934Y24086D01*
G01X14914Y24098D01*
G01X14894Y24108D01*
G01X14874Y24116D01*
G01X14854Y24123D01*
G01X14833Y24128D01*
G01X14811Y24132D01*
G01X14789Y24135D01*
G37*

%LPD*%
G36*
G01X13547Y24134D02*
G01X13521Y24136D01*
G01X13499Y24135D01*
G01X13477Y24132D01*
G01X13456Y24128D01*
G01X13435Y24122D01*
G01X13415Y24115D01*
G01X13396Y24106D01*
G01X13376Y24096D01*
G01X13359Y24084D01*
G01X13341Y24070D01*
G01X13325Y24055D01*
G01X13310Y24039D01*
G01X13296Y24021D01*
G01X13284Y24002D01*
G01X13273Y23982D01*
G01X13263Y23960D01*
G01X13255Y23937D01*
G01X13248Y23913D01*
G01X13240Y23861D01*
G01X13240Y23805D01*
G01X13243Y23780D01*
G01X13247Y23755D01*
G01X13252Y23731D01*
G01X13259Y23708D01*
G01X13267Y23687D01*
G01X13277Y23667D01*
G01X13288Y23648D01*
G01X13301Y23630D01*
G01X13314Y23614D01*
G01X13329Y23599D01*
G01X13345Y23586D01*
G01X13363Y23574D01*
G01X13381Y23563D01*
G01X13400Y23554D01*
G01X13421Y23547D01*
G01X13442Y23541D01*
G01X13464Y23537D01*
G01X13488Y23534D01*
G01X13511Y23534D01*
G01X13539Y23535D01*
G01X13565Y23538D01*
G01X13589Y23544D01*
G01X13611Y23551D01*
G01X13632Y23561D01*
G01X13652Y23572D01*
G01X13670Y23586D01*
G01X13686Y23601D01*
G01X13701Y23618D01*
G01X13713Y23637D01*
G01X13725Y23658D01*
G01X13734Y23680D01*
G01X13711Y23692D01*
G01X13695Y23671D01*
G01X13678Y23653D01*
G01X13658Y23638D01*
G01X13638Y23625D01*
G01X13615Y23614D01*
G01X13592Y23607D01*
G01X13567Y23602D01*
G01X13542Y23601D01*
G01X13520Y23602D01*
G01X13500Y23605D01*
G01X13480Y23610D01*
G01X13462Y23617D01*
G01X13444Y23626D01*
G01X13428Y23636D01*
G01X13413Y23649D01*
G01X13399Y23664D01*
G01X13386Y23680D01*
G01X13375Y23699D01*
G01X13365Y23719D01*
G01X13357Y23740D01*
G01X13351Y23763D01*
G01X13346Y23788D01*
G01X13344Y23815D01*
G01X13342Y23844D01*
G01X13343Y23872D01*
G01X13346Y23899D01*
G01X13350Y23924D01*
G01X13356Y23948D01*
G01X13363Y23970D01*
G01X13372Y23990D01*
G01X13382Y24008D01*
G01X13394Y24025D01*
G01X13407Y24040D01*
G01X13421Y24053D01*
G01X13436Y24064D01*
G01X13452Y24073D01*
G01X13469Y24080D01*
G01X13488Y24085D01*
G01X13507Y24088D01*
G01X13528Y24090D01*
G01X13542Y24089D01*
G01X13559Y24087D01*
G01X13575Y24084D01*
G01X13592Y24078D01*
G01X13615Y23994D01*
G01X13623Y23971D01*
G01X13636Y23953D01*
G01X13654Y23942D01*
G01X13680Y23938D01*
G01X13698Y23940D01*
G01X13714Y23949D01*
G01X13725Y23963D01*
G01X13732Y23982D01*
G01X13727Y24003D01*
G01X13718Y24024D01*
G01X13707Y24043D01*
G01X13694Y24061D01*
G01X13678Y24077D01*
G01X13660Y24092D01*
G01X13640Y24105D01*
G01X13619Y24115D01*
G01X13596Y24124D01*
G01X13572Y24130D01*
G01X13547Y24134D01*
G37*

%LPD*%
G36*
G01X12878Y24135D02*
G01X12857Y24136D01*
G01X12836Y24135D01*
G01X12815Y24132D01*
G01X12795Y24128D01*
G01X12775Y24123D01*
G01X12755Y24116D01*
G01X12736Y24108D01*
G01X12717Y24098D01*
G01X12700Y24086D01*
G01X12682Y24073D01*
G01X12667Y24059D01*
G01X12652Y24043D01*
G01X12638Y24025D01*
G01X12626Y24006D01*
G01X12615Y23986D01*
G01X12605Y23964D01*
G01X12597Y23941D01*
G01X12590Y23916D01*
G01X12582Y23862D01*
G01X12582Y23803D01*
G01X12585Y23776D01*
G01X12590Y23750D01*
G01X12596Y23725D01*
G01X12605Y23702D01*
G01X12614Y23681D01*
G01X12625Y23661D01*
G01X12638Y23642D01*
G01X12651Y23625D01*
G01X12666Y23609D01*
G01X12682Y23595D01*
G01X12699Y23582D01*
G01X12717Y23571D01*
G01X12735Y23561D01*
G01X12755Y23552D01*
G01X12774Y23546D01*
G01X12794Y23540D01*
G01X12815Y23536D01*
G01X12836Y23534D01*
G01X12878Y23534D01*
G01X12900Y23536D01*
G01X12920Y23540D01*
G01X12960Y23552D01*
G01X12980Y23561D01*
G01X12998Y23570D01*
G01X13016Y23582D01*
G01X13033Y23594D01*
G01X13049Y23608D01*
G01X13064Y23624D01*
G01X13078Y23641D01*
G01X13090Y23660D01*
G01X13101Y23680D01*
G01X13111Y23702D01*
G01X13119Y23725D01*
G01X13126Y23750D01*
G01X13130Y23776D01*
G01X13134Y23803D01*
G01X13134Y23862D01*
G01X13130Y23890D01*
G01X13126Y23916D01*
G01X13119Y23941D01*
G01X13111Y23964D01*
G01X13101Y23986D01*
G01X13090Y24007D01*
G01X13077Y24026D01*
G01X13063Y24043D01*
G01X13048Y24059D01*
G01X13032Y24074D01*
G01X12998Y24098D01*
G01X12979Y24108D01*
G01X12960Y24116D01*
G01X12940Y24123D01*
G01X12920Y24128D01*
G01X12899Y24132D01*
G01X12878Y24135D01*
G37*

%LPC*%
G36*
G01X12877Y24088D02*
G01X12857Y24090D01*
G01X12838Y24088D01*
G01X12820Y24085D01*
G01X12803Y24080D01*
G01X12787Y24073D01*
G01X12773Y24063D01*
G01X12759Y24052D01*
G01X12746Y24039D01*
G01X12735Y24024D01*
G01X12725Y24006D01*
G01X12716Y23987D01*
G01X12709Y23966D01*
G01X12703Y23943D01*
G01X12698Y23918D01*
G01X12694Y23892D01*
G01X12692Y23863D01*
G01X12692Y23802D01*
G01X12694Y23774D01*
G01X12698Y23748D01*
G01X12703Y23723D01*
G01X12709Y23700D01*
G01X12716Y23680D01*
G01X12725Y23661D01*
G01X12735Y23644D01*
G01X12746Y23629D01*
G01X12759Y23616D01*
G01X12773Y23605D01*
G01X12787Y23596D01*
G01X12803Y23589D01*
G01X12820Y23584D01*
G01X12838Y23580D01*
G01X12877Y23580D01*
G01X12895Y23584D01*
G01X12912Y23589D01*
G01X12928Y23596D01*
G01X12942Y23605D01*
G01X12956Y23616D01*
G01X12969Y23629D01*
G01X12980Y23644D01*
G01X12990Y23661D01*
G01X12999Y23680D01*
G01X13006Y23700D01*
G01X13012Y23723D01*
G01X13017Y23748D01*
G01X13021Y23774D01*
G01X13023Y23802D01*
G01X13023Y23863D01*
G01X13021Y23892D01*
G01X13017Y23918D01*
G01X13012Y23943D01*
G01X13006Y23966D01*
G01X12999Y23987D01*
G01X12990Y24006D01*
G01X12980Y24024D01*
G01X12969Y24039D01*
G01X12956Y24052D01*
G01X12942Y24063D01*
G01X12928Y24073D01*
G01X12912Y24080D01*
G01X12895Y24085D01*
G01X12877Y24088D01*
G37*

%LPD*%
G36*
G01X10893Y24373D02*
G01X10869Y24374D01*
G01X10844Y24373D01*
G01X10819Y24371D01*
G01X10796Y24368D01*
G01X10772Y24364D01*
G01X10749Y24359D01*
G01X10705Y24345D01*
G01X10663Y24327D01*
G01X10644Y24316D01*
G01X10625Y24304D01*
G01X10606Y24291D01*
G01X10589Y24277D01*
G01X10572Y24262D01*
G01X10556Y24246D01*
G01X10541Y24230D01*
G01X10528Y24211D01*
G01X10515Y24193D01*
G01X10503Y24173D01*
G01X10492Y24152D01*
G01X10482Y24130D01*
G01X10474Y24108D01*
G01X10467Y24084D01*
G01X10461Y24060D01*
G01X10456Y24035D01*
G01X10452Y24009D01*
G01X10450Y23982D01*
G01X10450Y23927D01*
G01X10452Y23900D01*
G01X10456Y23874D01*
G01X10461Y23848D01*
G01X10467Y23824D01*
G01X10474Y23800D01*
G01X10482Y23777D01*
G01X10492Y23755D01*
G01X10503Y23734D01*
G01X10515Y23715D01*
G01X10528Y23695D01*
G01X10541Y23677D01*
G01X10556Y23660D01*
G01X10572Y23644D01*
G01X10589Y23629D01*
G01X10606Y23615D01*
G01X10625Y23602D01*
G01X10663Y23578D01*
G01X10705Y23560D01*
G01X10727Y23552D01*
G01X10749Y23546D01*
G01X10772Y23540D01*
G01X10796Y23536D01*
G01X10819Y23533D01*
G01X10844Y23531D01*
G01X10869Y23530D01*
G01X10893Y23531D01*
G01X10917Y23533D01*
G01X10941Y23536D01*
G01X10964Y23540D01*
G01X10987Y23546D01*
G01X11009Y23552D01*
G01X11031Y23560D01*
G01X11073Y23578D01*
G01X11093Y23590D01*
G01X11112Y23602D01*
G01X11130Y23615D01*
G01X11148Y23629D01*
G01X11164Y23644D01*
G01X11180Y23660D01*
G01X11195Y23677D01*
G01X11209Y23695D01*
G01X11221Y23715D01*
G01X11233Y23734D01*
G01X11244Y23755D01*
G01X11254Y23777D01*
G01X11262Y23800D01*
G01X11276Y23848D01*
G01X11284Y23900D01*
G01X11286Y23927D01*
G01X11286Y23982D01*
G01X11284Y24009D01*
G01X11280Y24035D01*
G01X11276Y24060D01*
G01X11262Y24108D01*
G01X11254Y24130D01*
G01X11244Y24152D01*
G01X11233Y24173D01*
G01X11221Y24193D01*
G01X11209Y24211D01*
G01X11195Y24230D01*
G01X11180Y24246D01*
G01X11164Y24262D01*
G01X11148Y24277D01*
G01X11130Y24291D01*
G01X11112Y24304D01*
G01X11093Y24316D01*
G01X11073Y24327D01*
G01X11031Y24345D01*
G01X10987Y24359D01*
G01X10964Y24364D01*
G01X10941Y24368D01*
G01X10917Y24371D01*
G01X10893Y24373D01*
G37*

%LPC*%
G36*
G01X10890Y24330D02*
G01X10847Y24330D01*
G01X10825Y24328D01*
G01X10804Y24326D01*
G01X10784Y24322D01*
G01X10764Y24317D01*
G01X10744Y24311D01*
G01X10725Y24305D01*
G01X10707Y24297D01*
G01X10688Y24288D01*
G01X10671Y24278D01*
G01X10655Y24268D01*
G01X10639Y24256D01*
G01X10623Y24243D01*
G01X10609Y24230D01*
G01X10596Y24216D01*
G01X10583Y24200D01*
G01X10571Y24184D01*
G01X10559Y24167D01*
G01X10549Y24150D01*
G01X10540Y24131D01*
G01X10524Y24091D01*
G01X10518Y24071D01*
G01X10513Y24049D01*
G01X10509Y24026D01*
G01X10506Y24003D01*
G01X10504Y23979D01*
G01X10503Y23955D01*
G01X10504Y23930D01*
G01X10506Y23905D01*
G01X10509Y23882D01*
G01X10513Y23859D01*
G01X10518Y23837D01*
G01X10524Y23816D01*
G01X10532Y23795D01*
G01X10540Y23775D01*
G01X10549Y23757D01*
G01X10559Y23738D01*
G01X10571Y23721D01*
G01X10583Y23705D01*
G01X10609Y23675D01*
G01X10623Y23661D01*
G01X10655Y23637D01*
G01X10671Y23626D01*
G01X10688Y23617D01*
G01X10707Y23607D01*
G01X10725Y23600D01*
G01X10744Y23593D01*
G01X10764Y23587D01*
G01X10784Y23582D01*
G01X10804Y23578D01*
G01X10825Y23576D01*
G01X10847Y23574D01*
G01X10890Y23574D01*
G01X10912Y23576D01*
G01X10933Y23578D01*
G01X10953Y23582D01*
G01X10973Y23587D01*
G01X10993Y23593D01*
G01X11012Y23600D01*
G01X11030Y23608D01*
G01X11048Y23617D01*
G01X11066Y23627D01*
G01X11082Y23638D01*
G01X11098Y23650D01*
G01X11113Y23663D01*
G01X11128Y23677D01*
G01X11142Y23691D01*
G01X11166Y23723D01*
G01X11178Y23740D01*
G01X11188Y23758D01*
G01X11197Y23777D01*
G01X11213Y23817D01*
G01X11219Y23838D01*
G01X11224Y23860D01*
G01X11228Y23883D01*
G01X11231Y23906D01*
G01X11233Y23930D01*
G01X11234Y23955D01*
G01X11233Y23979D01*
G01X11231Y24003D01*
G01X11228Y24026D01*
G01X11224Y24048D01*
G01X11219Y24070D01*
G01X11213Y24091D01*
G01X11205Y24111D01*
G01X11197Y24130D01*
G01X11188Y24149D01*
G01X11178Y24167D01*
G01X11166Y24184D01*
G01X11154Y24200D01*
G01X11142Y24215D01*
G01X11128Y24230D01*
G01X11113Y24243D01*
G01X11098Y24255D01*
G01X11082Y24267D01*
G01X11066Y24278D01*
G01X11048Y24288D01*
G01X11030Y24297D01*
G01X11012Y24304D01*
G01X10993Y24311D01*
G01X10973Y24317D01*
G01X10953Y24322D01*
G01X10933Y24326D01*
G01X10912Y24328D01*
G01X10890Y24330D01*
G37*

%LPD*%
G36*
G01X10925Y24199D02*
G01X10888Y24201D01*
G01X10863Y24199D01*
G01X10839Y24196D01*
G01X10816Y24190D01*
G01X10794Y24182D01*
G01X10774Y24173D01*
G01X10754Y24161D01*
G01X10736Y24147D01*
G01X10720Y24132D01*
G01X10705Y24114D01*
G01X10692Y24096D01*
G01X10680Y24075D01*
G01X10670Y24054D01*
G01X10663Y24031D01*
G01X10657Y24007D01*
G01X10654Y23981D01*
G01X10653Y23955D01*
G01X10653Y23928D01*
G01X10657Y23902D01*
G01X10662Y23878D01*
G01X10669Y23855D01*
G01X10679Y23834D01*
G01X10690Y23813D01*
G01X10703Y23795D01*
G01X10717Y23778D01*
G01X10734Y23762D01*
G01X10752Y23749D01*
G01X10771Y23737D01*
G01X10792Y23728D01*
G01X10814Y23720D01*
G01X10837Y23714D01*
G01X10862Y23711D01*
G01X10888Y23709D01*
G01X10926Y23711D01*
G01X10962Y23717D01*
G01X10997Y23727D01*
G01X11030Y23743D01*
G01X11034Y23857D01*
G01X10986Y23857D01*
G01X10967Y23765D01*
G01X10949Y23758D01*
G01X10930Y23754D01*
G01X10913Y23751D01*
G01X10898Y23751D01*
G01X10874Y23752D01*
G01X10852Y23757D01*
G01X10832Y23764D01*
G01X10813Y23774D01*
G01X10796Y23788D01*
G01X10780Y23803D01*
G01X10767Y23822D01*
G01X10756Y23843D01*
G01X10747Y23867D01*
G01X10741Y23894D01*
G01X10737Y23923D01*
G01X10736Y23955D01*
G01X10737Y23987D01*
G01X10741Y24016D01*
G01X10748Y24043D01*
G01X10757Y24068D01*
G01X10769Y24089D01*
G01X10783Y24108D01*
G01X10798Y24124D01*
G01X10816Y24137D01*
G01X10835Y24147D01*
G01X10855Y24155D01*
G01X10876Y24159D01*
G01X10898Y24161D01*
G01X10914Y24160D01*
G01X10930Y24157D01*
G01X10946Y24153D01*
G01X10963Y24148D01*
G01X10980Y24052D01*
G01X11028Y24052D01*
G01X11025Y24167D01*
G01X10991Y24183D01*
G01X10959Y24194D01*
G01X10925Y24199D01*
G37*

%LPD*%
G01X1000Y7368D02*
G01X1182Y6890D01*
G01X1363Y7368D02*
G01X1182Y6890D01*
G01X1513Y7072D02*
G01X1786Y7072D01*
G01X1786Y7118D01*
G01X1763Y7163D01*
G01X1740Y7186D01*
G01X1694Y7209D01*
G01X1626Y7209D01*
G01X1582Y7186D01*
G01X1536Y7140D01*
G01X1513Y7072D01*
G01X1513Y7026D01*
G01X1536Y6959D01*
G01X1582Y6913D01*
G01X1626Y6890D01*
G01X1694Y6890D01*
G01X1740Y6913D01*
G01X1786Y6959D01*
G01X1936Y7209D02*
G01X1936Y6890D01*
G01X1936Y7072D02*
G01X1959Y7140D01*
G01X2005Y7186D01*
G01X2050Y7209D01*
G01X2117Y7209D01*
G01X2517Y7140D02*
G01X2494Y7186D01*
G01X2426Y7209D01*
G01X2359Y7209D01*
G01X2290Y7186D01*
G01X2267Y7140D01*
G01X2290Y7095D01*
G01X2336Y7072D01*
G01X2450Y7050D01*
G01X2494Y7026D01*
G01X2517Y6980D01*
G01X2517Y6959D01*
G01X2494Y6913D01*
G01X2426Y6890D01*
G01X2359Y6890D01*
G01X2290Y6913D01*
G01X2267Y6959D01*
G01X2667Y7368D02*
G01X2690Y7345D01*
G01X2713Y7368D01*
G01X2690Y7390D01*
G01X2667Y7368D01*
G01X2690Y7209D02*
G01X2690Y6890D01*
G01X2976Y7209D02*
G01X2932Y7186D01*
G01X2886Y7140D01*
G01X2863Y7072D01*
G01X2863Y7026D01*
G01X2886Y6959D01*
G01X2932Y6913D01*
G01X2976Y6890D01*
G01X3044Y6890D01*
G01X3090Y6913D01*
G01X3136Y6959D01*
G01X3159Y7026D01*
G01X3159Y7072D01*
G01X3136Y7140D01*
G01X3090Y7186D01*
G01X3044Y7209D01*
G01X2976Y7209D01*
G01X3309Y7209D02*
G01X3309Y6890D01*
G01X3309Y7118D02*
G01X3376Y7186D01*
G01X3423Y7209D01*
G01X3490Y7209D01*
G01X3536Y7186D01*
G01X3559Y7118D01*
G01X3559Y6890D01*
G01X4194Y7368D02*
G01X4126Y7345D01*
G01X4082Y7276D01*
G01X4059Y7163D01*
G01X4059Y7095D01*
G01X4082Y6980D01*
G01X4126Y6913D01*
G01X4194Y6890D01*
G01X4240Y6890D01*
G01X4309Y6913D01*
G01X4355Y6980D01*
G01X4376Y7095D01*
G01X4376Y7163D01*
G01X4355Y7276D01*
G01X4309Y7345D01*
G01X4240Y7368D01*
G01X4194Y7368D01*
G01X4550Y7003D02*
G01X4526Y6980D01*
G01X4550Y6959D01*
G01X4573Y6980D01*
G01X4550Y7003D01*
G01X4994Y7300D02*
G01X4973Y7345D01*
G01X4905Y7368D01*
G01X4859Y7368D01*
G01X4790Y7345D01*
G01X4744Y7276D01*
G01X4723Y7163D01*
G01X4723Y7050D01*
G01X4744Y6959D01*
G01X4790Y6913D01*
G01X4859Y6890D01*
G01X4882Y6890D01*
G01X4950Y6913D01*
G01X4994Y6959D01*
G01X5017Y7026D01*
G01X5017Y7050D01*
G01X4994Y7118D01*
G01X4950Y7163D01*
G01X4882Y7186D01*
G01X4859Y7186D01*
G01X4790Y7163D01*
G01X4744Y7118D01*
G01X4723Y7050D01*
G54D51*
G01X5450Y7990D02*
G01X5450Y7561D01*
G01X5450Y7990D02*
G01X5634Y7990D01*
G01X5694Y7970D01*
G01X5715Y7950D01*
G01X5736Y7909D01*
G01X5736Y7868D01*
G01X5715Y7826D01*
G01X5694Y7805D01*
G01X5634Y7786D01*
G01X5450Y7786D01*
G01X5592Y7786D02*
G01X5736Y7561D01*
G01X5871Y7990D02*
G01X5871Y7561D01*
G01X5871Y7990D02*
G01X6136Y7990D01*
G01X5871Y7786D02*
G01X6034Y7786D01*
G01X6271Y7990D02*
G01X6271Y7561D01*
G01X6271Y7990D02*
G01X6436Y7561D01*
G01X6600Y7990D02*
G01X6436Y7561D01*
G01X6600Y7990D02*
G01X6600Y7561D01*
G01X7000Y7847D02*
G01X6980Y7786D01*
G01X6938Y7745D01*
G01X6878Y7725D01*
G01X6857Y7725D01*
G01X6796Y7745D01*
G01X6755Y7786D01*
G01X6734Y7847D01*
G01X6734Y7868D01*
G01X6755Y7928D01*
G01X6796Y7970D01*
G01X6857Y7990D01*
G01X6878Y7990D01*
G01X6938Y7970D01*
G01X6980Y7928D01*
G01X7000Y7847D01*
G01X7000Y7745D01*
G01X6980Y7643D01*
G01X6938Y7580D01*
G01X6878Y7561D01*
G01X6836Y7561D01*
G01X6775Y7580D01*
G01X6755Y7622D01*
G01X7380Y7990D02*
G01X7176Y7990D01*
G01X7155Y7805D01*
G01X7176Y7826D01*
G01X7238Y7847D01*
G01X7298Y7847D01*
G01X7359Y7826D01*
G01X7401Y7786D01*
G01X7421Y7725D01*
G01X7421Y7684D01*
G01X7401Y7622D01*
G01X7359Y7580D01*
G01X7298Y7561D01*
G01X7238Y7561D01*
G01X7176Y7580D01*
G01X7155Y7601D01*
G01X7134Y7643D01*
G01X8438Y8603D02*
G01X8438Y8594D01*
G01X8446Y8584D01*
G01X8455Y8584D01*
G01X8465Y8594D01*
G01X8475Y8611D01*
G01X8492Y8657D01*
G01X8511Y8684D01*
G01X8528Y8703D01*
G01X8546Y8711D01*
G01X8584Y8711D01*
G01X8601Y8703D01*
G01X8611Y8694D01*
G01X8619Y8675D01*
G01X8619Y8657D01*
G01X8611Y8638D01*
G01X8601Y8630D01*
G01X8538Y8594D01*
G01X8528Y8584D01*
G01X8519Y8566D01*
G01X8519Y8548D01*
G01X8528Y8530D01*
G01X8546Y8521D01*
G01X8565Y8530D01*
G01X8575Y8548D01*
G01X8575Y8566D01*
G01X8565Y8594D01*
G01X8546Y8621D01*
G01X8501Y8684D01*
G01X8484Y8703D01*
G01X8465Y8711D01*
G01X8446Y8711D01*
G01X8438Y8703D01*
G01X8438Y8694D01*
G01X8305Y8484D02*
G01X8369Y8775D01*
G01X8251Y8484D02*
G01X8315Y8775D01*
G01X8369Y8603D02*
G01X8242Y8603D01*
G01X8378Y8657D02*
G01X8251Y8657D01*
G01X8063Y8584D02*
G01X8073Y8611D01*
G01X8090Y8630D01*
G01X8117Y8638D01*
G01X8126Y8638D01*
G01X8155Y8630D01*
G01X8173Y8611D01*
G01X8182Y8584D01*
G01X8182Y8575D01*
G01X8173Y8548D01*
G01X8155Y8530D01*
G01X8126Y8521D01*
G01X8117Y8521D01*
G01X8090Y8530D01*
G01X8073Y8548D01*
G01X8063Y8584D01*
G01X8063Y8630D01*
G01X8073Y8675D01*
G01X8090Y8703D01*
G01X8117Y8711D01*
G01X8136Y8711D01*
G01X8163Y8703D01*
G01X8173Y8684D01*
G01X7894Y8548D02*
G01X7903Y8530D01*
G01X7930Y8521D01*
G01X7948Y8521D01*
G01X7976Y8530D01*
G01X7994Y8557D01*
G01X8003Y8603D01*
G01X8003Y8648D01*
G01X7994Y8684D01*
G01X7976Y8703D01*
G01X7948Y8711D01*
G01X7940Y8711D01*
G01X7913Y8703D01*
G01X7894Y8684D01*
G01X7884Y8657D01*
G01X7884Y8648D01*
G01X7894Y8621D01*
G01X7913Y8603D01*
G01X7940Y8594D01*
G01X7948Y8594D01*
G01X7976Y8603D01*
G01X7994Y8621D01*
G01X8003Y8648D01*
G01X7815Y8603D02*
G01X7825Y8611D01*
G01X7815Y8621D01*
G01X7807Y8611D01*
G01X7815Y8603D01*
G01X7807Y8675D02*
G01X7815Y8684D01*
G01X7825Y8675D01*
G01X7815Y8666D01*
G01X7807Y8675D01*
G01X7807Y8694D01*
G01X7825Y8711D01*
G01X7611Y8566D02*
G01X7619Y8548D01*
G01X7638Y8530D01*
G01X7655Y8521D01*
G01X7692Y8521D01*
G01X7711Y8530D01*
G01X7728Y8548D01*
G01X7738Y8566D01*
G01X7746Y8594D01*
G01X7746Y8638D01*
G01X7738Y8666D01*
G01X7728Y8684D01*
G01X7711Y8703D01*
G01X7692Y8711D01*
G01X7655Y8711D01*
G01X7638Y8703D01*
G01X7619Y8684D01*
G01X7611Y8666D01*
G01X7611Y8638D01*
G01X7655Y8638D02*
G01X7611Y8638D01*
G01X7551Y8521D02*
G01X7551Y8711D01*
G01X7551Y8521D02*
G01X7423Y8711D01*
G01X7423Y8521D02*
G01X7423Y8711D01*
G01X7363Y8521D02*
G01X7363Y8711D01*
G01X7363Y8521D02*
G01X7300Y8521D01*
G01X7273Y8530D01*
G01X7255Y8548D01*
G01X7244Y8566D01*
G01X7236Y8594D01*
G01X7236Y8638D01*
G01X7244Y8666D01*
G01X7255Y8684D01*
G01X7273Y8703D01*
G01X7300Y8711D01*
G01X7363Y8711D01*
G01X8438Y9393D02*
G01X8438Y9384D01*
G01X8446Y9375D01*
G01X8455Y9375D01*
G01X8465Y9384D01*
G01X8475Y9401D01*
G01X8492Y9447D01*
G01X8511Y9475D01*
G01X8528Y9493D01*
G01X8546Y9501D01*
G01X8584Y9501D01*
G01X8601Y9493D01*
G01X8611Y9484D01*
G01X8619Y9465D01*
G01X8619Y9447D01*
G01X8611Y9428D01*
G01X8601Y9420D01*
G01X8538Y9384D01*
G01X8528Y9375D01*
G01X8519Y9355D01*
G01X8519Y9338D01*
G01X8528Y9320D01*
G01X8546Y9311D01*
G01X8565Y9320D01*
G01X8575Y9338D01*
G01X8575Y9355D01*
G01X8565Y9384D01*
G01X8546Y9411D01*
G01X8501Y9475D01*
G01X8484Y9493D01*
G01X8465Y9501D01*
G01X8446Y9501D01*
G01X8438Y9493D01*
G01X8438Y9484D01*
G01X8305Y9275D02*
G01X8369Y9565D01*
G01X8251Y9275D02*
G01X8315Y9565D01*
G01X8369Y9393D02*
G01X8242Y9393D01*
G01X8378Y9447D02*
G01X8251Y9447D01*
G01X8063Y9375D02*
G01X8073Y9401D01*
G01X8090Y9420D01*
G01X8117Y9428D01*
G01X8126Y9428D01*
G01X8155Y9420D01*
G01X8173Y9401D01*
G01X8182Y9375D01*
G01X8182Y9365D01*
G01X8173Y9338D01*
G01X8155Y9320D01*
G01X8126Y9311D01*
G01X8117Y9311D01*
G01X8090Y9320D01*
G01X8073Y9338D01*
G01X8063Y9375D01*
G01X8063Y9420D01*
G01X8073Y9465D01*
G01X8090Y9493D01*
G01X8117Y9501D01*
G01X8136Y9501D01*
G01X8163Y9493D01*
G01X8173Y9475D01*
G01X7894Y9338D02*
G01X7903Y9320D01*
G01X7930Y9311D01*
G01X7948Y9311D01*
G01X7976Y9320D01*
G01X7994Y9347D01*
G01X8003Y9393D01*
G01X8003Y9438D01*
G01X7994Y9475D01*
G01X7976Y9493D01*
G01X7948Y9501D01*
G01X7940Y9501D01*
G01X7913Y9493D01*
G01X7894Y9475D01*
G01X7884Y9447D01*
G01X7884Y9438D01*
G01X7894Y9411D01*
G01X7913Y9393D01*
G01X7940Y9384D01*
G01X7948Y9384D01*
G01X7976Y9393D01*
G01X7994Y9411D01*
G01X8003Y9438D01*
G01X7815Y9393D02*
G01X7825Y9401D01*
G01X7815Y9411D01*
G01X7807Y9401D01*
G01X7815Y9393D01*
G01X7807Y9465D02*
G01X7815Y9475D01*
G01X7825Y9465D01*
G01X7815Y9455D01*
G01X7807Y9465D01*
G01X7807Y9484D01*
G01X7825Y9501D01*
G01X7746Y9311D02*
G01X7746Y9501D01*
G01X7746Y9311D02*
G01X7675Y9501D01*
G01X7601Y9311D02*
G01X7675Y9501D01*
G01X7601Y9311D02*
G01X7601Y9501D01*
G01X7542Y9311D02*
G01X7542Y9501D01*
G01X7355Y9338D02*
G01X7373Y9320D01*
G01X7400Y9311D01*
G01X7436Y9311D01*
G01X7463Y9320D01*
G01X7482Y9338D01*
G01X7482Y9355D01*
G01X7473Y9375D01*
G01X7463Y9384D01*
G01X7444Y9393D01*
G01X7390Y9411D01*
G01X7373Y9420D01*
G01X7363Y9428D01*
G01X7355Y9447D01*
G01X7355Y9475D01*
G01X7373Y9493D01*
G01X7400Y9501D01*
G01X7436Y9501D01*
G01X7463Y9493D01*
G01X7482Y9475D01*
G01X7240Y9311D02*
G01X7257Y9320D01*
G01X7276Y9338D01*
G01X7284Y9355D01*
G01X7294Y9384D01*
G01X7294Y9428D01*
G01X7284Y9455D01*
G01X7276Y9475D01*
G01X7257Y9493D01*
G01X7240Y9501D01*
G01X7203Y9501D01*
G01X7184Y9493D01*
G01X7167Y9475D01*
G01X7157Y9455D01*
G01X7148Y9428D01*
G01X7148Y9384D01*
G01X7157Y9355D01*
G01X7167Y9338D01*
G01X7184Y9320D01*
G01X7203Y9311D01*
G01X7240Y9311D01*
G01X8438Y10182D02*
G01X8438Y10174D01*
G01X8446Y10165D01*
G01X8455Y10165D01*
G01X8465Y10174D01*
G01X8475Y10192D01*
G01X8492Y10236D01*
G01X8511Y10265D01*
G01X8528Y10282D01*
G01X8546Y10292D01*
G01X8584Y10292D01*
G01X8601Y10282D01*
G01X8611Y10274D01*
G01X8619Y10255D01*
G01X8619Y10236D01*
G01X8611Y10219D01*
G01X8601Y10209D01*
G01X8538Y10174D01*
G01X8528Y10165D01*
G01X8519Y10146D01*
G01X8519Y10128D01*
G01X8528Y10109D01*
G01X8546Y10101D01*
G01X8565Y10109D01*
G01X8575Y10128D01*
G01X8575Y10146D01*
G01X8565Y10174D01*
G01X8546Y10201D01*
G01X8501Y10265D01*
G01X8484Y10282D01*
G01X8465Y10292D01*
G01X8446Y10292D01*
G01X8438Y10282D01*
G01X8438Y10274D01*
G01X8305Y10065D02*
G01X8369Y10355D01*
G01X8251Y10065D02*
G01X8315Y10355D01*
G01X8369Y10182D02*
G01X8242Y10182D01*
G01X8378Y10236D02*
G01X8251Y10236D01*
G01X8063Y10165D02*
G01X8073Y10192D01*
G01X8090Y10209D01*
G01X8117Y10219D01*
G01X8126Y10219D01*
G01X8155Y10209D01*
G01X8173Y10192D01*
G01X8182Y10165D01*
G01X8182Y10155D01*
G01X8173Y10128D01*
G01X8155Y10109D01*
G01X8126Y10101D01*
G01X8117Y10101D01*
G01X8090Y10109D01*
G01X8073Y10128D01*
G01X8063Y10165D01*
G01X8063Y10209D01*
G01X8073Y10255D01*
G01X8090Y10282D01*
G01X8117Y10292D01*
G01X8136Y10292D01*
G01X8163Y10282D01*
G01X8173Y10265D01*
G01X7894Y10128D02*
G01X7903Y10109D01*
G01X7930Y10101D01*
G01X7948Y10101D01*
G01X7976Y10109D01*
G01X7994Y10136D01*
G01X8003Y10182D01*
G01X8003Y10228D01*
G01X7994Y10265D01*
G01X7976Y10282D01*
G01X7948Y10292D01*
G01X7940Y10292D01*
G01X7913Y10282D01*
G01X7894Y10265D01*
G01X7884Y10236D01*
G01X7884Y10228D01*
G01X7894Y10201D01*
G01X7913Y10182D01*
G01X7940Y10174D01*
G01X7948Y10174D01*
G01X7976Y10182D01*
G01X7994Y10201D01*
G01X8003Y10228D01*
G01X7815Y10182D02*
G01X7825Y10192D01*
G01X7815Y10201D01*
G01X7807Y10192D01*
G01X7815Y10182D01*
G01X7807Y10255D02*
G01X7815Y10265D01*
G01X7825Y10255D01*
G01X7815Y10246D01*
G01X7807Y10255D01*
G01X7807Y10274D01*
G01X7825Y10292D01*
G01X7746Y10101D02*
G01X7746Y10292D01*
G01X7746Y10101D02*
G01X7675Y10292D01*
G01X7601Y10101D02*
G01X7675Y10292D01*
G01X7601Y10101D02*
G01X7601Y10292D01*
G01X7486Y10101D02*
G01X7505Y10109D01*
G01X7523Y10128D01*
G01X7532Y10146D01*
G01X7542Y10174D01*
G01X7542Y10219D01*
G01X7532Y10246D01*
G01X7523Y10265D01*
G01X7505Y10282D01*
G01X7486Y10292D01*
G01X7451Y10292D01*
G01X7432Y10282D01*
G01X7415Y10265D01*
G01X7405Y10246D01*
G01X7396Y10219D01*
G01X7396Y10174D01*
G01X7405Y10146D01*
G01X7415Y10128D01*
G01X7432Y10109D01*
G01X7451Y10101D01*
G01X7486Y10101D01*
G01X7209Y10128D02*
G01X7226Y10109D01*
G01X7255Y10101D01*
G01X7290Y10101D01*
G01X7317Y10109D01*
G01X7336Y10128D01*
G01X7336Y10146D01*
G01X7326Y10165D01*
G01X7317Y10174D01*
G01X7300Y10182D01*
G01X7244Y10201D01*
G01X7226Y10209D01*
G01X7217Y10219D01*
G01X7209Y10236D01*
G01X7209Y10265D01*
G01X7226Y10282D01*
G01X7255Y10292D01*
G01X7290Y10292D01*
G01X7317Y10282D01*
G01X7336Y10265D01*
G01X7148Y10101D02*
G01X7148Y10292D01*
G01X8438Y10973D02*
G01X8438Y10963D01*
G01X8446Y10955D01*
G01X8455Y10955D01*
G01X8465Y10963D01*
G01X8475Y10982D01*
G01X8492Y11026D01*
G01X8511Y11055D01*
G01X8528Y11073D01*
G01X8546Y11082D01*
G01X8584Y11082D01*
G01X8601Y11073D01*
G01X8611Y11063D01*
G01X8619Y11045D01*
G01X8619Y11026D01*
G01X8611Y11009D01*
G01X8601Y11000D01*
G01X8538Y10963D01*
G01X8528Y10955D01*
G01X8519Y10936D01*
G01X8519Y10918D01*
G01X8528Y10900D01*
G01X8546Y10891D01*
G01X8565Y10900D01*
G01X8575Y10918D01*
G01X8575Y10936D01*
G01X8565Y10963D01*
G01X8546Y10991D01*
G01X8501Y11055D01*
G01X8484Y11073D01*
G01X8465Y11082D01*
G01X8446Y11082D01*
G01X8438Y11073D01*
G01X8438Y11063D01*
G01X8305Y10855D02*
G01X8369Y11145D01*
G01X8251Y10855D02*
G01X8315Y11145D01*
G01X8369Y10973D02*
G01X8242Y10973D01*
G01X8378Y11026D02*
G01X8251Y11026D01*
G01X8063Y10955D02*
G01X8073Y10982D01*
G01X8090Y11000D01*
G01X8117Y11009D01*
G01X8126Y11009D01*
G01X8155Y11000D01*
G01X8173Y10982D01*
G01X8182Y10955D01*
G01X8182Y10945D01*
G01X8173Y10918D01*
G01X8155Y10900D01*
G01X8126Y10891D01*
G01X8117Y10891D01*
G01X8090Y10900D01*
G01X8073Y10918D01*
G01X8063Y10955D01*
G01X8063Y11000D01*
G01X8073Y11045D01*
G01X8090Y11073D01*
G01X8117Y11082D01*
G01X8136Y11082D01*
G01X8163Y11073D01*
G01X8173Y11055D01*
G01X7894Y10918D02*
G01X7903Y10900D01*
G01X7930Y10891D01*
G01X7948Y10891D01*
G01X7976Y10900D01*
G01X7994Y10926D01*
G01X8003Y10973D01*
G01X8003Y11018D01*
G01X7994Y11055D01*
G01X7976Y11073D01*
G01X7948Y11082D01*
G01X7940Y11082D01*
G01X7913Y11073D01*
G01X7894Y11055D01*
G01X7884Y11026D01*
G01X7884Y11018D01*
G01X7894Y10991D01*
G01X7913Y10973D01*
G01X7940Y10963D01*
G01X7948Y10963D01*
G01X7976Y10973D01*
G01X7994Y10991D01*
G01X8003Y11018D01*
G01X7815Y10973D02*
G01X7825Y10982D01*
G01X7815Y10991D01*
G01X7807Y10982D01*
G01X7815Y10973D01*
G01X7807Y11045D02*
G01X7815Y11055D01*
G01X7825Y11045D01*
G01X7815Y11036D01*
G01X7807Y11045D01*
G01X7807Y11063D01*
G01X7825Y11082D01*
G01X7619Y10918D02*
G01X7638Y10900D01*
G01X7665Y10891D01*
G01X7701Y10891D01*
G01X7728Y10900D01*
G01X7746Y10918D01*
G01X7746Y10936D01*
G01X7738Y10955D01*
G01X7728Y10963D01*
G01X7711Y10973D01*
G01X7655Y10991D01*
G01X7638Y11000D01*
G01X7628Y11009D01*
G01X7619Y11026D01*
G01X7619Y11055D01*
G01X7638Y11073D01*
G01X7665Y11082D01*
G01X7701Y11082D01*
G01X7728Y11073D01*
G01X7746Y11055D01*
G01X7423Y10936D02*
G01X7432Y10918D01*
G01X7451Y10900D01*
G01X7469Y10891D01*
G01X7505Y10891D01*
G01X7523Y10900D01*
G01X7542Y10918D01*
G01X7551Y10936D01*
G01X7559Y10963D01*
G01X7559Y11009D01*
G01X7551Y11036D01*
G01X7542Y11055D01*
G01X7523Y11073D01*
G01X7505Y11082D01*
G01X7469Y11082D01*
G01X7451Y11073D01*
G01X7432Y11055D01*
G01X7423Y11036D01*
G01X7363Y10891D02*
G01X7363Y11082D01*
G01X7236Y10891D02*
G01X7363Y11018D01*
G01X7317Y10973D02*
G01X7236Y11082D01*
G01X8438Y11753D02*
G01X8438Y11744D01*
G01X8446Y11734D01*
G01X8455Y11734D01*
G01X8465Y11744D01*
G01X8475Y11761D01*
G01X8492Y11807D01*
G01X8511Y11834D01*
G01X8528Y11853D01*
G01X8546Y11861D01*
G01X8584Y11861D01*
G01X8601Y11853D01*
G01X8611Y11844D01*
G01X8619Y11825D01*
G01X8619Y11807D01*
G01X8611Y11788D01*
G01X8601Y11780D01*
G01X8538Y11744D01*
G01X8528Y11734D01*
G01X8519Y11716D01*
G01X8519Y11698D01*
G01X8528Y11680D01*
G01X8546Y11671D01*
G01X8565Y11680D01*
G01X8575Y11698D01*
G01X8575Y11716D01*
G01X8565Y11744D01*
G01X8546Y11771D01*
G01X8501Y11834D01*
G01X8484Y11853D01*
G01X8465Y11861D01*
G01X8446Y11861D01*
G01X8438Y11853D01*
G01X8438Y11844D01*
G01X8305Y11634D02*
G01X8369Y11925D01*
G01X8251Y11634D02*
G01X8315Y11925D01*
G01X8369Y11753D02*
G01X8242Y11753D01*
G01X8378Y11807D02*
G01X8251Y11807D01*
G01X8063Y11734D02*
G01X8073Y11761D01*
G01X8090Y11780D01*
G01X8117Y11788D01*
G01X8126Y11788D01*
G01X8155Y11780D01*
G01X8173Y11761D01*
G01X8182Y11734D01*
G01X8182Y11725D01*
G01X8173Y11698D01*
G01X8155Y11680D01*
G01X8126Y11671D01*
G01X8117Y11671D01*
G01X8090Y11680D01*
G01X8073Y11698D01*
G01X8063Y11734D01*
G01X8063Y11780D01*
G01X8073Y11825D01*
G01X8090Y11853D01*
G01X8117Y11861D01*
G01X8136Y11861D01*
G01X8163Y11853D01*
G01X8173Y11834D01*
G01X7894Y11698D02*
G01X7903Y11680D01*
G01X7930Y11671D01*
G01X7948Y11671D01*
G01X7976Y11680D01*
G01X7994Y11707D01*
G01X8003Y11753D01*
G01X8003Y11798D01*
G01X7994Y11834D01*
G01X7976Y11853D01*
G01X7948Y11861D01*
G01X7940Y11861D01*
G01X7913Y11853D01*
G01X7894Y11834D01*
G01X7884Y11807D01*
G01X7884Y11798D01*
G01X7894Y11771D01*
G01X7913Y11753D01*
G01X7940Y11744D01*
G01X7948Y11744D01*
G01X7976Y11753D01*
G01X7994Y11771D01*
G01X8003Y11798D01*
G01X7815Y11753D02*
G01X7825Y11761D01*
G01X7815Y11771D01*
G01X7807Y11761D01*
G01X7815Y11753D01*
G01X7807Y11825D02*
G01X7815Y11834D01*
G01X7825Y11825D01*
G01X7815Y11816D01*
G01X7807Y11825D01*
G01X7807Y11844D01*
G01X7825Y11861D01*
G01X7746Y11671D02*
G01X7746Y11861D01*
G01X7746Y11671D02*
G01X7619Y11861D01*
G01X7619Y11671D02*
G01X7619Y11861D01*
G01X7432Y11698D02*
G01X7451Y11680D01*
G01X7478Y11671D01*
G01X7515Y11671D01*
G01X7542Y11680D01*
G01X7559Y11698D01*
G01X7559Y11716D01*
G01X7551Y11734D01*
G01X7542Y11744D01*
G01X7523Y11753D01*
G01X7469Y11771D01*
G01X7451Y11780D01*
G01X7442Y11788D01*
G01X7432Y11807D01*
G01X7432Y11834D01*
G01X7451Y11853D01*
G01X7478Y11861D01*
G01X7515Y11861D01*
G01X7542Y11853D01*
G01X7559Y11834D01*
G01X7244Y11698D02*
G01X7263Y11680D01*
G01X7290Y11671D01*
G01X7326Y11671D01*
G01X7355Y11680D01*
G01X7373Y11698D01*
G01X7373Y11716D01*
G01X7363Y11734D01*
G01X7355Y11744D01*
G01X7336Y11753D01*
G01X7282Y11771D01*
G01X7263Y11780D01*
G01X7255Y11788D01*
G01X7244Y11807D01*
G01X7244Y11834D01*
G01X7263Y11853D01*
G01X7290Y11861D01*
G01X7326Y11861D01*
G01X7355Y11853D01*
G01X7373Y11834D01*
G01X8438Y12543D02*
G01X8438Y12534D01*
G01X8446Y12525D01*
G01X8455Y12525D01*
G01X8465Y12534D01*
G01X8475Y12551D01*
G01X8492Y12597D01*
G01X8511Y12625D01*
G01X8528Y12643D01*
G01X8546Y12651D01*
G01X8584Y12651D01*
G01X8601Y12643D01*
G01X8611Y12634D01*
G01X8619Y12615D01*
G01X8619Y12597D01*
G01X8611Y12578D01*
G01X8601Y12570D01*
G01X8538Y12534D01*
G01X8528Y12525D01*
G01X8519Y12505D01*
G01X8519Y12488D01*
G01X8528Y12470D01*
G01X8546Y12461D01*
G01X8565Y12470D01*
G01X8575Y12488D01*
G01X8575Y12505D01*
G01X8565Y12534D01*
G01X8546Y12561D01*
G01X8501Y12625D01*
G01X8484Y12643D01*
G01X8465Y12651D01*
G01X8446Y12651D01*
G01X8438Y12643D01*
G01X8438Y12634D01*
G01X8305Y12425D02*
G01X8369Y12715D01*
G01X8251Y12425D02*
G01X8315Y12715D01*
G01X8369Y12543D02*
G01X8242Y12543D01*
G01X8378Y12597D02*
G01X8251Y12597D01*
G01X8063Y12525D02*
G01X8073Y12551D01*
G01X8090Y12570D01*
G01X8117Y12578D01*
G01X8126Y12578D01*
G01X8155Y12570D01*
G01X8173Y12551D01*
G01X8182Y12525D01*
G01X8182Y12515D01*
G01X8173Y12488D01*
G01X8155Y12470D01*
G01X8126Y12461D01*
G01X8117Y12461D01*
G01X8090Y12470D01*
G01X8073Y12488D01*
G01X8063Y12525D01*
G01X8063Y12570D01*
G01X8073Y12615D01*
G01X8090Y12643D01*
G01X8117Y12651D01*
G01X8136Y12651D01*
G01X8163Y12643D01*
G01X8173Y12625D01*
G01X7894Y12488D02*
G01X7903Y12470D01*
G01X7930Y12461D01*
G01X7948Y12461D01*
G01X7976Y12470D01*
G01X7994Y12497D01*
G01X8003Y12543D01*
G01X8003Y12588D01*
G01X7994Y12625D01*
G01X7976Y12643D01*
G01X7948Y12651D01*
G01X7940Y12651D01*
G01X7913Y12643D01*
G01X7894Y12625D01*
G01X7884Y12597D01*
G01X7884Y12588D01*
G01X7894Y12561D01*
G01X7913Y12543D01*
G01X7940Y12534D01*
G01X7948Y12534D01*
G01X7976Y12543D01*
G01X7994Y12561D01*
G01X8003Y12588D01*
G01X7815Y12543D02*
G01X7825Y12551D01*
G01X7815Y12561D01*
G01X7807Y12551D01*
G01X7815Y12543D01*
G01X7807Y12615D02*
G01X7815Y12625D01*
G01X7825Y12615D01*
G01X7815Y12605D01*
G01X7807Y12615D01*
G01X7807Y12634D01*
G01X7825Y12651D01*
G01X7746Y12461D02*
G01X7746Y12651D01*
G01X7746Y12461D02*
G01X7665Y12461D01*
G01X7638Y12470D01*
G01X7628Y12478D01*
G01X7619Y12497D01*
G01X7619Y12515D01*
G01X7628Y12534D01*
G01X7638Y12543D01*
G01X7665Y12551D01*
G01X7746Y12551D01*
G01X7684Y12551D02*
G01X7619Y12651D01*
G01X7432Y12488D02*
G01X7451Y12470D01*
G01X7478Y12461D01*
G01X7515Y12461D01*
G01X7542Y12470D01*
G01X7559Y12488D01*
G01X7559Y12505D01*
G01X7551Y12525D01*
G01X7542Y12534D01*
G01X7523Y12543D01*
G01X7469Y12561D01*
G01X7451Y12570D01*
G01X7442Y12578D01*
G01X7432Y12597D01*
G01X7432Y12625D01*
G01X7451Y12643D01*
G01X7478Y12651D01*
G01X7515Y12651D01*
G01X7542Y12643D01*
G01X7559Y12625D01*
G01X7309Y12461D02*
G01X7309Y12651D01*
G01X7373Y12461D02*
G01X7244Y12461D01*
G01X8467Y13313D02*
G01X8467Y13303D01*
G01X8476Y13295D01*
G01X8486Y13295D01*
G01X8494Y13303D01*
G01X8505Y13322D01*
G01X8523Y13367D01*
G01X8540Y13395D01*
G01X8559Y13413D01*
G01X8576Y13422D01*
G01X8613Y13422D01*
G01X8632Y13413D01*
G01X8640Y13403D01*
G01X8650Y13384D01*
G01X8650Y13367D01*
G01X8640Y13349D01*
G01X8632Y13340D01*
G01X8567Y13303D01*
G01X8559Y13295D01*
G01X8550Y13276D01*
G01X8550Y13257D01*
G01X8559Y13240D01*
G01X8576Y13230D01*
G01X8594Y13240D01*
G01X8605Y13257D01*
G01X8605Y13276D01*
G01X8594Y13303D01*
G01X8576Y13330D01*
G01X8532Y13395D01*
G01X8513Y13413D01*
G01X8494Y13422D01*
G01X8476Y13422D01*
G01X8467Y13413D01*
G01X8467Y13403D01*
G01X8334Y13195D02*
G01X8398Y13484D01*
G01X8280Y13195D02*
G01X8344Y13484D01*
G01X8398Y13313D02*
G01X8271Y13313D01*
G01X8407Y13367D02*
G01X8280Y13367D01*
G01X8094Y13295D02*
G01X8103Y13322D01*
G01X8121Y13340D01*
G01X8148Y13349D01*
G01X8157Y13349D01*
G01X8184Y13340D01*
G01X8203Y13322D01*
G01X8211Y13295D01*
G01X8211Y13284D01*
G01X8203Y13257D01*
G01X8184Y13240D01*
G01X8157Y13230D01*
G01X8148Y13230D01*
G01X8121Y13240D01*
G01X8103Y13257D01*
G01X8094Y13295D01*
G01X8094Y13340D01*
G01X8103Y13384D01*
G01X8121Y13413D01*
G01X8148Y13422D01*
G01X8165Y13422D01*
G01X8194Y13413D01*
G01X8203Y13395D01*
G01X7925Y13257D02*
G01X7934Y13240D01*
G01X7961Y13230D01*
G01X7978Y13230D01*
G01X8005Y13240D01*
G01X8025Y13267D01*
G01X8034Y13313D01*
G01X8034Y13357D01*
G01X8025Y13395D01*
G01X8005Y13413D01*
G01X7978Y13422D01*
G01X7969Y13422D01*
G01X7942Y13413D01*
G01X7925Y13395D01*
G01X7915Y13367D01*
G01X7915Y13357D01*
G01X7925Y13330D01*
G01X7942Y13313D01*
G01X7969Y13303D01*
G01X7978Y13303D01*
G01X8005Y13313D01*
G01X8025Y13330D01*
G01X8034Y13357D01*
G01X7846Y13313D02*
G01X7855Y13322D01*
G01X7846Y13330D01*
G01X7836Y13322D01*
G01X7846Y13313D01*
G01X7836Y13384D02*
G01X7846Y13395D01*
G01X7855Y13384D01*
G01X7846Y13376D01*
G01X7836Y13384D01*
G01X7836Y13403D01*
G01X7855Y13422D01*
G01X7776Y13230D02*
G01X7776Y13422D01*
G01X7776Y13230D02*
G01X7713Y13230D01*
G01X7686Y13240D01*
G01X7667Y13257D01*
G01X7659Y13276D01*
G01X7650Y13303D01*
G01X7650Y13349D01*
G01X7659Y13376D01*
G01X7667Y13395D01*
G01X7686Y13413D01*
G01X7713Y13422D01*
G01X7776Y13422D01*
G01X7590Y13230D02*
G01X7590Y13422D01*
G01X7475Y13230D02*
G01X7494Y13240D01*
G01X7511Y13257D01*
G01X7521Y13276D01*
G01X7530Y13303D01*
G01X7530Y13349D01*
G01X7521Y13376D01*
G01X7511Y13395D01*
G01X7494Y13413D01*
G01X7475Y13422D01*
G01X7438Y13422D01*
G01X7421Y13413D01*
G01X7403Y13395D01*
G01X7394Y13376D01*
G01X7384Y13349D01*
G01X7384Y13303D01*
G01X7394Y13276D01*
G01X7403Y13257D01*
G01X7421Y13240D01*
G01X7438Y13230D01*
G01X7475Y13230D01*
G01X7215Y13230D02*
G01X7305Y13230D01*
G01X7315Y13313D01*
G01X7305Y13303D01*
G01X7278Y13295D01*
G01X7251Y13295D01*
G01X7225Y13303D01*
G01X7205Y13322D01*
G01X7196Y13349D01*
G01X7196Y13367D01*
G01X7205Y13395D01*
G01X7225Y13413D01*
G01X7251Y13422D01*
G01X7278Y13422D01*
G01X7305Y13413D01*
G01X7315Y13403D01*
G01X7325Y13384D01*
G01X8438Y14123D02*
G01X8438Y14113D01*
G01X8446Y14105D01*
G01X8455Y14105D01*
G01X8465Y14113D01*
G01X8475Y14132D01*
G01X8492Y14176D01*
G01X8511Y14205D01*
G01X8528Y14223D01*
G01X8546Y14232D01*
G01X8584Y14232D01*
G01X8601Y14223D01*
G01X8611Y14213D01*
G01X8619Y14195D01*
G01X8619Y14176D01*
G01X8611Y14159D01*
G01X8601Y14150D01*
G01X8538Y14113D01*
G01X8528Y14105D01*
G01X8519Y14086D01*
G01X8519Y14068D01*
G01X8528Y14050D01*
G01X8546Y14041D01*
G01X8565Y14050D01*
G01X8575Y14068D01*
G01X8575Y14086D01*
G01X8565Y14113D01*
G01X8546Y14141D01*
G01X8501Y14205D01*
G01X8484Y14223D01*
G01X8465Y14232D01*
G01X8446Y14232D01*
G01X8438Y14223D01*
G01X8438Y14213D01*
G01X8305Y14005D02*
G01X8369Y14295D01*
G01X8251Y14005D02*
G01X8315Y14295D01*
G01X8369Y14123D02*
G01X8242Y14123D01*
G01X8378Y14176D02*
G01X8251Y14176D01*
G01X8063Y14105D02*
G01X8073Y14132D01*
G01X8090Y14150D01*
G01X8117Y14159D01*
G01X8126Y14159D01*
G01X8155Y14150D01*
G01X8173Y14132D01*
G01X8182Y14105D01*
G01X8182Y14095D01*
G01X8173Y14068D01*
G01X8155Y14050D01*
G01X8126Y14041D01*
G01X8117Y14041D01*
G01X8090Y14050D01*
G01X8073Y14068D01*
G01X8063Y14105D01*
G01X8063Y14150D01*
G01X8073Y14195D01*
G01X8090Y14223D01*
G01X8117Y14232D01*
G01X8136Y14232D01*
G01X8163Y14223D01*
G01X8173Y14205D01*
G01X7894Y14068D02*
G01X7903Y14050D01*
G01X7930Y14041D01*
G01X7948Y14041D01*
G01X7976Y14050D01*
G01X7994Y14076D01*
G01X8003Y14123D01*
G01X8003Y14168D01*
G01X7994Y14205D01*
G01X7976Y14223D01*
G01X7948Y14232D01*
G01X7940Y14232D01*
G01X7913Y14223D01*
G01X7894Y14205D01*
G01X7884Y14176D01*
G01X7884Y14168D01*
G01X7894Y14141D01*
G01X7913Y14123D01*
G01X7940Y14113D01*
G01X7948Y14113D01*
G01X7976Y14123D01*
G01X7994Y14141D01*
G01X8003Y14168D01*
G01X7815Y14123D02*
G01X7825Y14132D01*
G01X7815Y14141D01*
G01X7807Y14132D01*
G01X7815Y14123D01*
G01X7807Y14195D02*
G01X7815Y14205D01*
G01X7825Y14195D01*
G01X7815Y14186D01*
G01X7807Y14195D01*
G01X7807Y14213D01*
G01X7825Y14232D01*
G01X7611Y14086D02*
G01X7619Y14068D01*
G01X7638Y14050D01*
G01X7655Y14041D01*
G01X7692Y14041D01*
G01X7711Y14050D01*
G01X7728Y14068D01*
G01X7738Y14086D01*
G01X7746Y14113D01*
G01X7746Y14159D01*
G01X7738Y14186D01*
G01X7728Y14205D01*
G01X7711Y14223D01*
G01X7692Y14232D01*
G01X7655Y14232D01*
G01X7638Y14223D01*
G01X7619Y14205D01*
G01X7611Y14186D01*
G01X7611Y14159D01*
G01X7655Y14159D02*
G01X7611Y14159D01*
G01X7551Y14041D02*
G01X7551Y14232D01*
G01X7551Y14041D02*
G01X7423Y14232D01*
G01X7423Y14041D02*
G01X7423Y14232D01*
G01X7363Y14041D02*
G01X7363Y14232D01*
G01X7363Y14041D02*
G01X7300Y14041D01*
G01X7273Y14050D01*
G01X7255Y14068D01*
G01X7244Y14086D01*
G01X7236Y14113D01*
G01X7236Y14159D01*
G01X7244Y14186D01*
G01X7255Y14205D01*
G01X7273Y14223D01*
G01X7300Y14232D01*
G01X7363Y14232D01*
G01X5721Y8617D02*
G01X5721Y8608D01*
G01X5730Y8599D01*
G01X5738Y8599D01*
G01X5748Y8608D01*
G01X5757Y8626D01*
G01X5776Y8671D01*
G01X5794Y8699D01*
G01X5811Y8717D01*
G01X5830Y8726D01*
G01X5867Y8726D01*
G01X5884Y8717D01*
G01X5894Y8708D01*
G01X5903Y8689D01*
G01X5903Y8671D01*
G01X5894Y8653D01*
G01X5884Y8644D01*
G01X5821Y8608D01*
G01X5811Y8599D01*
G01X5803Y8580D01*
G01X5803Y8562D01*
G01X5811Y8544D01*
G01X5830Y8535D01*
G01X5848Y8544D01*
G01X5857Y8562D01*
G01X5857Y8580D01*
G01X5848Y8608D01*
G01X5830Y8635D01*
G01X5784Y8699D01*
G01X5767Y8717D01*
G01X5748Y8726D01*
G01X5730Y8726D01*
G01X5721Y8717D01*
G01X5721Y8708D01*
G01X5588Y8499D02*
G01X5651Y8789D01*
G01X5534Y8499D02*
G01X5598Y8789D01*
G01X5651Y8617D02*
G01X5525Y8617D01*
G01X5661Y8671D02*
G01X5534Y8671D01*
G01X5346Y8599D02*
G01X5355Y8626D01*
G01X5373Y8644D01*
G01X5401Y8653D01*
G01X5409Y8653D01*
G01X5438Y8644D01*
G01X5455Y8626D01*
G01X5465Y8599D01*
G01X5465Y8589D01*
G01X5455Y8562D01*
G01X5438Y8544D01*
G01X5409Y8535D01*
G01X5401Y8535D01*
G01X5373Y8544D01*
G01X5355Y8562D01*
G01X5346Y8599D01*
G01X5346Y8644D01*
G01X5355Y8689D01*
G01X5373Y8717D01*
G01X5401Y8726D01*
G01X5419Y8726D01*
G01X5446Y8717D01*
G01X5455Y8699D01*
G01X5178Y8562D02*
G01X5186Y8544D01*
G01X5213Y8535D01*
G01X5232Y8535D01*
G01X5259Y8544D01*
G01X5278Y8571D01*
G01X5286Y8617D01*
G01X5286Y8662D01*
G01X5278Y8699D01*
G01X5259Y8717D01*
G01X5232Y8726D01*
G01X5223Y8726D01*
G01X5196Y8717D01*
G01X5178Y8699D01*
G01X5167Y8671D01*
G01X5167Y8662D01*
G01X5178Y8635D01*
G01X5196Y8617D01*
G01X5223Y8608D01*
G01X5232Y8608D01*
G01X5259Y8617D01*
G01X5278Y8635D01*
G01X5286Y8662D01*
G01X5098Y8617D02*
G01X5107Y8626D01*
G01X5098Y8635D01*
G01X5090Y8626D01*
G01X5098Y8617D01*
G01X5090Y8689D02*
G01X5098Y8699D01*
G01X5107Y8689D01*
G01X5098Y8680D01*
G01X5090Y8689D01*
G01X5090Y8708D01*
G01X5107Y8726D01*
G01X5030Y8535D02*
G01X5030Y8726D01*
G01X5030Y8535D02*
G01X4967Y8535D01*
G01X4938Y8544D01*
G01X4921Y8562D01*
G01X4911Y8580D01*
G01X4903Y8608D01*
G01X4903Y8653D01*
G01X4911Y8680D01*
G01X4921Y8699D01*
G01X4938Y8717D01*
G01X4967Y8726D01*
G01X5030Y8726D01*
G01X4842Y8535D02*
G01X4842Y8726D01*
G01X4728Y8535D02*
G01X4746Y8544D01*
G01X4765Y8562D01*
G01X4773Y8580D01*
G01X4782Y8608D01*
G01X4782Y8653D01*
G01X4773Y8680D01*
G01X4765Y8699D01*
G01X4746Y8717D01*
G01X4728Y8726D01*
G01X4692Y8726D01*
G01X4673Y8717D01*
G01X4655Y8699D01*
G01X4646Y8680D01*
G01X4638Y8653D01*
G01X4638Y8608D01*
G01X4646Y8580D01*
G01X4655Y8562D01*
G01X4673Y8544D01*
G01X4692Y8535D01*
G01X4728Y8535D01*
G01X4567Y8580D02*
G01X4567Y8571D01*
G01X4559Y8553D01*
G01X4550Y8544D01*
G01X4532Y8535D01*
G01X4496Y8535D01*
G01X4478Y8544D01*
G01X4467Y8553D01*
G01X4459Y8571D01*
G01X4459Y8589D01*
G01X4467Y8608D01*
G01X4486Y8635D01*
G01X4578Y8726D01*
G01X4450Y8726D01*
G01X5667Y9363D02*
G01X5667Y9353D01*
G01X5676Y9345D01*
G01X5686Y9345D01*
G01X5694Y9353D01*
G01X5705Y9372D01*
G01X5723Y9417D01*
G01X5740Y9445D01*
G01X5759Y9463D01*
G01X5776Y9472D01*
G01X5813Y9472D01*
G01X5832Y9463D01*
G01X5840Y9453D01*
G01X5850Y9434D01*
G01X5850Y9417D01*
G01X5840Y9399D01*
G01X5832Y9390D01*
G01X5767Y9353D01*
G01X5759Y9345D01*
G01X5750Y9326D01*
G01X5750Y9307D01*
G01X5759Y9290D01*
G01X5776Y9280D01*
G01X5794Y9290D01*
G01X5805Y9307D01*
G01X5805Y9326D01*
G01X5794Y9353D01*
G01X5776Y9380D01*
G01X5732Y9445D01*
G01X5713Y9463D01*
G01X5694Y9472D01*
G01X5676Y9472D01*
G01X5667Y9463D01*
G01X5667Y9453D01*
G01X5534Y9245D02*
G01X5598Y9534D01*
G01X5480Y9245D02*
G01X5544Y9534D01*
G01X5598Y9363D02*
G01X5471Y9363D01*
G01X5607Y9417D02*
G01X5480Y9417D01*
G01X5294Y9345D02*
G01X5303Y9372D01*
G01X5321Y9390D01*
G01X5348Y9399D01*
G01X5357Y9399D01*
G01X5384Y9390D01*
G01X5403Y9372D01*
G01X5411Y9345D01*
G01X5411Y9334D01*
G01X5403Y9307D01*
G01X5384Y9290D01*
G01X5357Y9280D01*
G01X5348Y9280D01*
G01X5321Y9290D01*
G01X5303Y9307D01*
G01X5294Y9345D01*
G01X5294Y9390D01*
G01X5303Y9434D01*
G01X5321Y9463D01*
G01X5348Y9472D01*
G01X5365Y9472D01*
G01X5394Y9463D01*
G01X5403Y9445D01*
G01X5125Y9307D02*
G01X5134Y9290D01*
G01X5161Y9280D01*
G01X5178Y9280D01*
G01X5205Y9290D01*
G01X5225Y9317D01*
G01X5234Y9363D01*
G01X5234Y9407D01*
G01X5225Y9445D01*
G01X5205Y9463D01*
G01X5178Y9472D01*
G01X5169Y9472D01*
G01X5142Y9463D01*
G01X5125Y9445D01*
G01X5115Y9417D01*
G01X5115Y9407D01*
G01X5125Y9380D01*
G01X5142Y9363D01*
G01X5169Y9353D01*
G01X5178Y9353D01*
G01X5205Y9363D01*
G01X5225Y9380D01*
G01X5234Y9407D01*
G01X5046Y9363D02*
G01X5055Y9372D01*
G01X5046Y9380D01*
G01X5036Y9372D01*
G01X5046Y9363D01*
G01X5036Y9434D02*
G01X5046Y9445D01*
G01X5055Y9434D01*
G01X5046Y9426D01*
G01X5036Y9434D01*
G01X5036Y9453D01*
G01X5055Y9472D01*
G01X4976Y9280D02*
G01X4976Y9472D01*
G01X4976Y9280D02*
G01X4913Y9280D01*
G01X4886Y9290D01*
G01X4867Y9307D01*
G01X4859Y9326D01*
G01X4850Y9353D01*
G01X4850Y9399D01*
G01X4859Y9426D01*
G01X4867Y9445D01*
G01X4886Y9463D01*
G01X4913Y9472D01*
G01X4976Y9472D01*
G01X4790Y9280D02*
G01X4790Y9472D01*
G01X4675Y9280D02*
G01X4694Y9290D01*
G01X4711Y9307D01*
G01X4721Y9326D01*
G01X4730Y9353D01*
G01X4730Y9399D01*
G01X4721Y9426D01*
G01X4711Y9445D01*
G01X4694Y9463D01*
G01X4675Y9472D01*
G01X4638Y9472D01*
G01X4621Y9463D01*
G01X4603Y9445D01*
G01X4594Y9426D01*
G01X4584Y9399D01*
G01X4584Y9353D01*
G01X4594Y9326D01*
G01X4603Y9307D01*
G01X4621Y9290D01*
G01X4638Y9280D01*
G01X4675Y9280D01*
G01X4525Y9317D02*
G01X4505Y9307D01*
G01X4478Y9280D01*
G01X4478Y9472D01*
G01X5771Y10168D02*
G01X5771Y10159D01*
G01X5780Y10150D01*
G01X5788Y10150D01*
G01X5798Y10159D01*
G01X5807Y10177D01*
G01X5826Y10222D01*
G01X5844Y10250D01*
G01X5861Y10268D01*
G01X5880Y10277D01*
G01X5917Y10277D01*
G01X5934Y10268D01*
G01X5944Y10259D01*
G01X5953Y10240D01*
G01X5953Y10222D01*
G01X5944Y10204D01*
G01X5934Y10195D01*
G01X5871Y10159D01*
G01X5861Y10150D01*
G01X5853Y10131D01*
G01X5853Y10113D01*
G01X5861Y10095D01*
G01X5880Y10086D01*
G01X5898Y10095D01*
G01X5907Y10113D01*
G01X5907Y10131D01*
G01X5898Y10159D01*
G01X5880Y10186D01*
G01X5834Y10250D01*
G01X5817Y10268D01*
G01X5798Y10277D01*
G01X5780Y10277D01*
G01X5771Y10268D01*
G01X5771Y10259D01*
G01X5638Y10050D02*
G01X5701Y10340D01*
G01X5584Y10050D02*
G01X5648Y10340D01*
G01X5701Y10168D02*
G01X5575Y10168D01*
G01X5711Y10222D02*
G01X5584Y10222D01*
G01X5396Y10150D02*
G01X5405Y10177D01*
G01X5423Y10195D01*
G01X5451Y10204D01*
G01X5459Y10204D01*
G01X5488Y10195D01*
G01X5505Y10177D01*
G01X5515Y10150D01*
G01X5515Y10140D01*
G01X5505Y10113D01*
G01X5488Y10095D01*
G01X5459Y10086D01*
G01X5451Y10086D01*
G01X5423Y10095D01*
G01X5405Y10113D01*
G01X5396Y10150D01*
G01X5396Y10195D01*
G01X5405Y10240D01*
G01X5423Y10268D01*
G01X5451Y10277D01*
G01X5469Y10277D01*
G01X5496Y10268D01*
G01X5505Y10250D01*
G01X5228Y10113D02*
G01X5236Y10095D01*
G01X5263Y10086D01*
G01X5282Y10086D01*
G01X5309Y10095D01*
G01X5328Y10122D01*
G01X5336Y10168D01*
G01X5336Y10213D01*
G01X5328Y10250D01*
G01X5309Y10268D01*
G01X5282Y10277D01*
G01X5273Y10277D01*
G01X5246Y10268D01*
G01X5228Y10250D01*
G01X5217Y10222D01*
G01X5217Y10213D01*
G01X5228Y10186D01*
G01X5246Y10168D01*
G01X5273Y10159D01*
G01X5282Y10159D01*
G01X5309Y10168D01*
G01X5328Y10186D01*
G01X5336Y10213D01*
G01X5148Y10168D02*
G01X5157Y10177D01*
G01X5148Y10186D01*
G01X5140Y10177D01*
G01X5148Y10168D01*
G01X5140Y10240D02*
G01X5148Y10250D01*
G01X5157Y10240D01*
G01X5148Y10231D01*
G01X5140Y10240D01*
G01X5140Y10259D01*
G01X5157Y10277D01*
G01X5080Y10086D02*
G01X5080Y10277D01*
G01X5080Y10086D02*
G01X5017Y10086D01*
G01X4988Y10095D01*
G01X4971Y10113D01*
G01X4961Y10131D01*
G01X4953Y10159D01*
G01X4953Y10204D01*
G01X4961Y10231D01*
G01X4971Y10250D01*
G01X4988Y10268D01*
G01X5017Y10277D01*
G01X5080Y10277D01*
G01X4892Y10086D02*
G01X4892Y10277D01*
G01X4778Y10086D02*
G01X4796Y10095D01*
G01X4815Y10113D01*
G01X4823Y10131D01*
G01X4832Y10159D01*
G01X4832Y10204D01*
G01X4823Y10231D01*
G01X4815Y10250D01*
G01X4796Y10268D01*
G01X4778Y10277D01*
G01X4742Y10277D01*
G01X4723Y10268D01*
G01X4705Y10250D01*
G01X4696Y10231D01*
G01X4688Y10204D01*
G01X4688Y10159D01*
G01X4696Y10131D01*
G01X4705Y10113D01*
G01X4723Y10095D01*
G01X4742Y10086D01*
G01X4778Y10086D01*
G01X4573Y10086D02*
G01X4600Y10095D01*
G01X4617Y10122D01*
G01X4628Y10168D01*
G01X4628Y10195D01*
G01X4617Y10240D01*
G01X4600Y10268D01*
G01X4573Y10277D01*
G01X4555Y10277D01*
G01X4528Y10268D01*
G01X4509Y10240D01*
G01X4500Y10195D01*
G01X4500Y10168D01*
G01X4509Y10122D01*
G01X4528Y10095D01*
G01X4555Y10086D01*
G01X4573Y10086D01*
G01X5838Y10968D02*
G01X5838Y10959D01*
G01X5847Y10950D01*
G01X5856Y10950D01*
G01X5865Y10959D01*
G01X5875Y10976D01*
G01X5893Y11022D01*
G01X5911Y11050D01*
G01X5929Y11068D01*
G01X5947Y11076D01*
G01X5984Y11076D01*
G01X6002Y11068D01*
G01X6011Y11059D01*
G01X6020Y11040D01*
G01X6020Y11022D01*
G01X6011Y11003D01*
G01X6002Y10995D01*
G01X5938Y10959D01*
G01X5929Y10950D01*
G01X5920Y10930D01*
G01X5920Y10913D01*
G01X5929Y10895D01*
G01X5947Y10886D01*
G01X5965Y10895D01*
G01X5975Y10913D01*
G01X5975Y10930D01*
G01X5965Y10959D01*
G01X5947Y10986D01*
G01X5902Y11050D01*
G01X5884Y11068D01*
G01X5865Y11076D01*
G01X5847Y11076D01*
G01X5838Y11068D01*
G01X5838Y11059D01*
G01X5705Y10850D02*
G01X5769Y11140D01*
G01X5651Y10850D02*
G01X5715Y11140D01*
G01X5769Y10968D02*
G01X5642Y10968D01*
G01X5778Y11022D02*
G01X5651Y11022D01*
G01X5464Y10950D02*
G01X5473Y10976D01*
G01X5491Y10995D01*
G01X5518Y11003D01*
G01X5527Y11003D01*
G01X5555Y10995D01*
G01X5573Y10976D01*
G01X5582Y10950D01*
G01X5582Y10940D01*
G01X5573Y10913D01*
G01X5555Y10895D01*
G01X5527Y10886D01*
G01X5518Y10886D01*
G01X5491Y10895D01*
G01X5473Y10913D01*
G01X5464Y10950D01*
G01X5464Y10995D01*
G01X5473Y11040D01*
G01X5491Y11068D01*
G01X5518Y11076D01*
G01X5536Y11076D01*
G01X5564Y11068D01*
G01X5573Y11050D01*
G01X5295Y10913D02*
G01X5304Y10895D01*
G01X5331Y10886D01*
G01X5349Y10886D01*
G01X5376Y10895D01*
G01X5395Y10922D01*
G01X5404Y10968D01*
G01X5404Y11013D01*
G01X5395Y11050D01*
G01X5376Y11068D01*
G01X5349Y11076D01*
G01X5340Y11076D01*
G01X5313Y11068D01*
G01X5295Y11050D01*
G01X5285Y11022D01*
G01X5285Y11013D01*
G01X5295Y10986D01*
G01X5313Y10968D01*
G01X5340Y10959D01*
G01X5349Y10959D01*
G01X5376Y10968D01*
G01X5395Y10986D01*
G01X5404Y11013D01*
G01X5216Y10968D02*
G01X5225Y10976D01*
G01X5216Y10986D01*
G01X5207Y10976D01*
G01X5216Y10968D01*
G01X5207Y11040D02*
G01X5216Y11050D01*
G01X5225Y11040D01*
G01X5216Y11030D01*
G01X5207Y11040D01*
G01X5207Y11059D01*
G01X5225Y11076D01*
G01X5129Y10886D02*
G01X5029Y10886D01*
G01X5084Y10959D01*
G01X5056Y10959D01*
G01X5038Y10968D01*
G01X5029Y10976D01*
G01X5020Y11003D01*
G01X5020Y11022D01*
G01X5029Y11050D01*
G01X5047Y11068D01*
G01X5075Y11076D01*
G01X5102Y11076D01*
G01X5129Y11068D01*
G01X5138Y11059D01*
G01X5147Y11040D01*
G01X4951Y11030D02*
G01X4960Y11040D01*
G01X4951Y11050D01*
G01X4942Y11040D01*
G01X4951Y11030D01*
G01X4864Y10886D02*
G01X4764Y10886D01*
G01X4818Y10959D01*
G01X4791Y10959D01*
G01X4773Y10968D01*
G01X4764Y10976D01*
G01X4755Y11003D01*
G01X4755Y11022D01*
G01X4764Y11050D01*
G01X4782Y11068D01*
G01X4809Y11076D01*
G01X4836Y11076D01*
G01X4864Y11068D01*
G01X4873Y11059D01*
G01X4882Y11040D01*
G01X4695Y10886D02*
G01X4622Y11076D01*
G01X4549Y10886D02*
G01X4622Y11076D01*
G01X5780Y11767D02*
G01X5780Y11758D01*
G01X5789Y11749D01*
G01X5798Y11749D01*
G01X5807Y11758D01*
G01X5817Y11776D01*
G01X5835Y11821D01*
G01X5853Y11849D01*
G01X5871Y11867D01*
G01X5889Y11876D01*
G01X5926Y11876D01*
G01X5944Y11867D01*
G01X5953Y11858D01*
G01X5962Y11839D01*
G01X5962Y11821D01*
G01X5953Y11803D01*
G01X5944Y11794D01*
G01X5880Y11758D01*
G01X5871Y11749D01*
G01X5862Y11730D01*
G01X5862Y11712D01*
G01X5871Y11694D01*
G01X5889Y11685D01*
G01X5907Y11694D01*
G01X5917Y11712D01*
G01X5917Y11730D01*
G01X5907Y11758D01*
G01X5889Y11785D01*
G01X5844Y11849D01*
G01X5826Y11867D01*
G01X5807Y11876D01*
G01X5789Y11876D01*
G01X5780Y11867D01*
G01X5780Y11858D01*
G01X5647Y11649D02*
G01X5711Y11939D01*
G01X5593Y11649D02*
G01X5657Y11939D01*
G01X5711Y11767D02*
G01X5584Y11767D01*
G01X5720Y11821D02*
G01X5593Y11821D01*
G01X5406Y11749D02*
G01X5415Y11776D01*
G01X5433Y11794D01*
G01X5460Y11803D01*
G01X5469Y11803D01*
G01X5497Y11794D01*
G01X5515Y11776D01*
G01X5524Y11749D01*
G01X5524Y11739D01*
G01X5515Y11712D01*
G01X5497Y11694D01*
G01X5469Y11685D01*
G01X5460Y11685D01*
G01X5433Y11694D01*
G01X5415Y11712D01*
G01X5406Y11749D01*
G01X5406Y11794D01*
G01X5415Y11839D01*
G01X5433Y11867D01*
G01X5460Y11876D01*
G01X5478Y11876D01*
G01X5506Y11867D01*
G01X5515Y11849D01*
G01X5237Y11712D02*
G01X5246Y11694D01*
G01X5273Y11685D01*
G01X5291Y11685D01*
G01X5318Y11694D01*
G01X5337Y11721D01*
G01X5346Y11767D01*
G01X5346Y11812D01*
G01X5337Y11849D01*
G01X5318Y11867D01*
G01X5291Y11876D01*
G01X5282Y11876D01*
G01X5255Y11867D01*
G01X5237Y11849D01*
G01X5227Y11821D01*
G01X5227Y11812D01*
G01X5237Y11785D01*
G01X5255Y11767D01*
G01X5282Y11758D01*
G01X5291Y11758D01*
G01X5318Y11767D01*
G01X5337Y11785D01*
G01X5346Y11812D01*
G01X5158Y11767D02*
G01X5167Y11776D01*
G01X5158Y11785D01*
G01X5149Y11776D01*
G01X5158Y11767D01*
G01X5149Y11839D02*
G01X5158Y11849D01*
G01X5167Y11839D01*
G01X5158Y11830D01*
G01X5149Y11839D01*
G01X5149Y11858D01*
G01X5167Y11876D01*
G01X5089Y11685D02*
G01X5089Y11876D01*
G01X5089Y11685D02*
G01X5026Y11685D01*
G01X4998Y11694D01*
G01X4980Y11712D01*
G01X4971Y11730D01*
G01X4962Y11758D01*
G01X4962Y11803D01*
G01X4971Y11830D01*
G01X4980Y11849D01*
G01X4998Y11867D01*
G01X5026Y11876D01*
G01X5089Y11876D01*
G01X4902Y11685D02*
G01X4902Y11876D01*
G01X4787Y11685D02*
G01X4806Y11694D01*
G01X4824Y11712D01*
G01X4833Y11730D01*
G01X4842Y11758D01*
G01X4842Y11803D01*
G01X4833Y11830D01*
G01X4824Y11849D01*
G01X4806Y11867D01*
G01X4787Y11876D01*
G01X4751Y11876D01*
G01X4733Y11867D01*
G01X4715Y11849D01*
G01X4706Y11830D01*
G01X4697Y11803D01*
G01X4697Y11758D01*
G01X4706Y11730D01*
G01X4715Y11712D01*
G01X4733Y11694D01*
G01X4751Y11685D01*
G01X4787Y11685D01*
G01X4546Y11685D02*
G01X4637Y11812D01*
G01X4500Y11812D01*
G01X4546Y11685D02*
G01X4546Y11876D01*
G01X5771Y12568D02*
G01X5771Y12559D01*
G01X5780Y12550D01*
G01X5788Y12550D01*
G01X5798Y12559D01*
G01X5807Y12576D01*
G01X5826Y12622D01*
G01X5844Y12650D01*
G01X5861Y12668D01*
G01X5880Y12676D01*
G01X5917Y12676D01*
G01X5934Y12668D01*
G01X5944Y12659D01*
G01X5953Y12640D01*
G01X5953Y12622D01*
G01X5944Y12603D01*
G01X5934Y12595D01*
G01X5871Y12559D01*
G01X5861Y12550D01*
G01X5853Y12530D01*
G01X5853Y12513D01*
G01X5861Y12495D01*
G01X5880Y12486D01*
G01X5898Y12495D01*
G01X5907Y12513D01*
G01X5907Y12530D01*
G01X5898Y12559D01*
G01X5880Y12586D01*
G01X5834Y12650D01*
G01X5817Y12668D01*
G01X5798Y12676D01*
G01X5780Y12676D01*
G01X5771Y12668D01*
G01X5771Y12659D01*
G01X5638Y12450D02*
G01X5701Y12740D01*
G01X5584Y12450D02*
G01X5648Y12740D01*
G01X5701Y12568D02*
G01X5575Y12568D01*
G01X5711Y12622D02*
G01X5584Y12622D01*
G01X5396Y12550D02*
G01X5405Y12576D01*
G01X5423Y12595D01*
G01X5451Y12603D01*
G01X5459Y12603D01*
G01X5488Y12595D01*
G01X5505Y12576D01*
G01X5515Y12550D01*
G01X5515Y12540D01*
G01X5505Y12513D01*
G01X5488Y12495D01*
G01X5459Y12486D01*
G01X5451Y12486D01*
G01X5423Y12495D01*
G01X5405Y12513D01*
G01X5396Y12550D01*
G01X5396Y12595D01*
G01X5405Y12640D01*
G01X5423Y12668D01*
G01X5451Y12676D01*
G01X5469Y12676D01*
G01X5496Y12668D01*
G01X5505Y12650D01*
G01X5228Y12513D02*
G01X5236Y12495D01*
G01X5263Y12486D01*
G01X5282Y12486D01*
G01X5309Y12495D01*
G01X5328Y12522D01*
G01X5336Y12568D01*
G01X5336Y12613D01*
G01X5328Y12650D01*
G01X5309Y12668D01*
G01X5282Y12676D01*
G01X5273Y12676D01*
G01X5246Y12668D01*
G01X5228Y12650D01*
G01X5217Y12622D01*
G01X5217Y12613D01*
G01X5228Y12586D01*
G01X5246Y12568D01*
G01X5273Y12559D01*
G01X5282Y12559D01*
G01X5309Y12568D01*
G01X5328Y12586D01*
G01X5336Y12613D01*
G01X5148Y12568D02*
G01X5157Y12576D01*
G01X5148Y12586D01*
G01X5140Y12576D01*
G01X5148Y12568D01*
G01X5140Y12640D02*
G01X5148Y12650D01*
G01X5157Y12640D01*
G01X5148Y12630D01*
G01X5140Y12640D01*
G01X5140Y12659D01*
G01X5157Y12676D01*
G01X5080Y12486D02*
G01X5080Y12676D01*
G01X5080Y12486D02*
G01X5017Y12486D01*
G01X4988Y12495D01*
G01X4971Y12513D01*
G01X4961Y12530D01*
G01X4953Y12559D01*
G01X4953Y12603D01*
G01X4961Y12630D01*
G01X4971Y12650D01*
G01X4988Y12668D01*
G01X5017Y12676D01*
G01X5080Y12676D01*
G01X4892Y12486D02*
G01X4892Y12676D01*
G01X4778Y12486D02*
G01X4796Y12495D01*
G01X4815Y12513D01*
G01X4823Y12530D01*
G01X4832Y12559D01*
G01X4832Y12603D01*
G01X4823Y12630D01*
G01X4815Y12650D01*
G01X4796Y12668D01*
G01X4778Y12676D01*
G01X4742Y12676D01*
G01X4723Y12668D01*
G01X4705Y12650D01*
G01X4696Y12630D01*
G01X4688Y12603D01*
G01X4688Y12559D01*
G01X4696Y12530D01*
G01X4705Y12513D01*
G01X4723Y12495D01*
G01X4742Y12486D01*
G01X4778Y12486D01*
G01X4609Y12486D02*
G01X4509Y12486D01*
G01X4563Y12559D01*
G01X4536Y12559D01*
G01X4517Y12568D01*
G01X4509Y12576D01*
G01X4500Y12603D01*
G01X4500Y12622D01*
G01X4509Y12650D01*
G01X4528Y12668D01*
G01X4555Y12676D01*
G01X4582Y12676D01*
G01X4609Y12668D01*
G01X4617Y12659D01*
G01X4628Y12640D01*
G01X5701Y13318D02*
G01X5701Y13309D01*
G01X5711Y13300D01*
G01X5719Y13300D01*
G01X5728Y13309D01*
G01X5738Y13327D01*
G01X5757Y13372D01*
G01X5775Y13400D01*
G01X5792Y13418D01*
G01X5811Y13427D01*
G01X5848Y13427D01*
G01X5865Y13418D01*
G01X5875Y13409D01*
G01X5884Y13390D01*
G01X5884Y13372D01*
G01X5875Y13354D01*
G01X5865Y13345D01*
G01X5801Y13309D01*
G01X5792Y13300D01*
G01X5784Y13281D01*
G01X5784Y13263D01*
G01X5792Y13245D01*
G01X5811Y13236D01*
G01X5828Y13245D01*
G01X5838Y13263D01*
G01X5838Y13281D01*
G01X5828Y13309D01*
G01X5811Y13336D01*
G01X5765Y13400D01*
G01X5748Y13418D01*
G01X5728Y13427D01*
G01X5711Y13427D01*
G01X5701Y13418D01*
G01X5701Y13409D01*
G01X5569Y13200D02*
G01X5632Y13490D01*
G01X5515Y13200D02*
G01X5578Y13490D01*
G01X5632Y13318D02*
G01X5505Y13318D01*
G01X5642Y13372D02*
G01X5515Y13372D01*
G01X5328Y13300D02*
G01X5336Y13327D01*
G01X5355Y13345D01*
G01X5382Y13354D01*
G01X5390Y13354D01*
G01X5419Y13345D01*
G01X5436Y13327D01*
G01X5446Y13300D01*
G01X5446Y13290D01*
G01X5436Y13263D01*
G01X5419Y13245D01*
G01X5390Y13236D01*
G01X5382Y13236D01*
G01X5355Y13245D01*
G01X5336Y13263D01*
G01X5328Y13300D01*
G01X5328Y13345D01*
G01X5336Y13390D01*
G01X5355Y13418D01*
G01X5382Y13427D01*
G01X5400Y13427D01*
G01X5428Y13418D01*
G01X5436Y13400D01*
G01X5159Y13263D02*
G01X5167Y13245D01*
G01X5194Y13236D01*
G01X5213Y13236D01*
G01X5240Y13245D01*
G01X5259Y13272D01*
G01X5267Y13318D01*
G01X5267Y13363D01*
G01X5259Y13400D01*
G01X5240Y13418D01*
G01X5213Y13427D01*
G01X5203Y13427D01*
G01X5176Y13418D01*
G01X5159Y13400D01*
G01X5148Y13372D01*
G01X5148Y13363D01*
G01X5159Y13336D01*
G01X5176Y13318D01*
G01X5203Y13309D01*
G01X5213Y13309D01*
G01X5240Y13318D01*
G01X5259Y13336D01*
G01X5267Y13363D01*
G01X5080Y13318D02*
G01X5088Y13327D01*
G01X5080Y13336D01*
G01X5071Y13327D01*
G01X5080Y13318D01*
G01X5071Y13390D02*
G01X5080Y13400D01*
G01X5088Y13390D01*
G01X5080Y13381D01*
G01X5071Y13390D01*
G01X5071Y13409D01*
G01X5088Y13427D01*
G01X4875Y13281D02*
G01X4884Y13263D01*
G01X4901Y13245D01*
G01X4919Y13236D01*
G01X4957Y13236D01*
G01X4975Y13245D01*
G01X4992Y13263D01*
G01X5001Y13281D01*
G01X5011Y13309D01*
G01X5011Y13354D01*
G01X5001Y13381D01*
G01X4992Y13400D01*
G01X4975Y13418D01*
G01X4957Y13427D01*
G01X4919Y13427D01*
G01X4901Y13418D01*
G01X4884Y13400D01*
G01X4875Y13381D01*
G01X4875Y13354D01*
G01X4919Y13354D02*
G01X4875Y13354D01*
G01X4815Y13236D02*
G01X4815Y13427D01*
G01X4815Y13236D02*
G01X4688Y13427D01*
G01X4688Y13236D02*
G01X4688Y13427D01*
G01X4628Y13236D02*
G01X4628Y13427D01*
G01X4628Y13236D02*
G01X4563Y13236D01*
G01X4536Y13245D01*
G01X4519Y13263D01*
G01X4509Y13281D01*
G01X4500Y13309D01*
G01X4500Y13354D01*
G01X4509Y13381D01*
G01X4519Y13400D01*
G01X4536Y13418D01*
G01X4563Y13427D01*
G01X4628Y13427D01*
G01X5760Y14118D02*
G01X5760Y14109D01*
G01X5769Y14100D01*
G01X5778Y14100D01*
G01X5787Y14109D01*
G01X5797Y14126D01*
G01X5815Y14172D01*
G01X5833Y14200D01*
G01X5851Y14218D01*
G01X5869Y14226D01*
G01X5906Y14226D01*
G01X5924Y14218D01*
G01X5933Y14209D01*
G01X5942Y14190D01*
G01X5942Y14172D01*
G01X5933Y14153D01*
G01X5924Y14145D01*
G01X5860Y14109D01*
G01X5851Y14100D01*
G01X5842Y14080D01*
G01X5842Y14063D01*
G01X5851Y14045D01*
G01X5869Y14036D01*
G01X5887Y14045D01*
G01X5897Y14063D01*
G01X5897Y14080D01*
G01X5887Y14109D01*
G01X5869Y14136D01*
G01X5824Y14200D01*
G01X5806Y14218D01*
G01X5787Y14226D01*
G01X5769Y14226D01*
G01X5760Y14218D01*
G01X5760Y14209D01*
G01X5627Y14000D02*
G01X5691Y14290D01*
G01X5573Y14000D02*
G01X5637Y14290D01*
G01X5691Y14118D02*
G01X5564Y14118D01*
G01X5700Y14172D02*
G01X5573Y14172D01*
G01X5386Y14100D02*
G01X5395Y14126D01*
G01X5413Y14145D01*
G01X5440Y14153D01*
G01X5449Y14153D01*
G01X5477Y14145D01*
G01X5495Y14126D01*
G01X5504Y14100D01*
G01X5504Y14090D01*
G01X5495Y14063D01*
G01X5477Y14045D01*
G01X5449Y14036D01*
G01X5440Y14036D01*
G01X5413Y14045D01*
G01X5395Y14063D01*
G01X5386Y14100D01*
G01X5386Y14145D01*
G01X5395Y14190D01*
G01X5413Y14218D01*
G01X5440Y14226D01*
G01X5458Y14226D01*
G01X5486Y14218D01*
G01X5495Y14200D01*
G01X5217Y14063D02*
G01X5226Y14045D01*
G01X5253Y14036D01*
G01X5271Y14036D01*
G01X5298Y14045D01*
G01X5317Y14072D01*
G01X5326Y14118D01*
G01X5326Y14163D01*
G01X5317Y14200D01*
G01X5298Y14218D01*
G01X5271Y14226D01*
G01X5262Y14226D01*
G01X5235Y14218D01*
G01X5217Y14200D01*
G01X5207Y14172D01*
G01X5207Y14163D01*
G01X5217Y14136D01*
G01X5235Y14118D01*
G01X5262Y14109D01*
G01X5271Y14109D01*
G01X5298Y14118D01*
G01X5317Y14136D01*
G01X5326Y14163D01*
G01X5138Y14118D02*
G01X5147Y14126D01*
G01X5138Y14136D01*
G01X5129Y14126D01*
G01X5138Y14118D01*
G01X5129Y14190D02*
G01X5138Y14200D01*
G01X5147Y14190D01*
G01X5138Y14180D01*
G01X5129Y14190D01*
G01X5129Y14209D01*
G01X5147Y14226D01*
G01X4997Y14036D02*
G01X5069Y14226D01*
G01X4997Y14036D02*
G01X4924Y14226D01*
G01X5042Y14163D02*
G01X4951Y14163D01*
G01X4864Y14036D02*
G01X4864Y14226D01*
G01X4864Y14036D02*
G01X4737Y14226D01*
G01X4737Y14036D02*
G01X4737Y14226D01*
G01X4613Y14036D02*
G01X4613Y14226D01*
G01X4677Y14036D02*
G01X4549Y14036D01*
G01X5000Y6269D02*
G01X5000Y5962D01*
G01X5019Y5900D01*
G01X5061Y5859D01*
G01X5123Y5839D01*
G01X5163Y5839D01*
G01X5225Y5859D01*
G01X5265Y5900D01*
G01X5286Y5962D01*
G01X5286Y6269D01*
G01X5421Y6187D02*
G01X5461Y6207D01*
G01X5523Y6269D01*
G01X5523Y5839D01*
G01X8900Y4790D02*
G01X8900Y4359D01*
G01X8900Y4790D02*
G01X9084Y4790D01*
G01X9145Y4770D01*
G01X9166Y4749D01*
G01X9186Y4707D01*
G01X9186Y4667D01*
G01X9166Y4626D01*
G01X9145Y4605D01*
G01X9084Y4584D01*
G01X8900Y4584D01*
G01X9043Y4584D02*
G01X9186Y4359D01*
G01X9321Y4707D02*
G01X9362Y4728D01*
G01X9424Y4790D01*
G01X9424Y4359D01*
G01X9750Y4789D02*
G01X9750Y4359D01*
G01X9750Y4789D02*
G01X9934Y4789D01*
G01X9995Y4769D01*
G01X10016Y4748D01*
G01X10036Y4707D01*
G01X10036Y4666D01*
G01X10016Y4625D01*
G01X9995Y4605D01*
G01X9934Y4584D01*
G01X9750Y4584D01*
G01X9893Y4584D02*
G01X10036Y4359D01*
G01X10192Y4687D02*
G01X10192Y4707D01*
G01X10212Y4748D01*
G01X10233Y4769D01*
G01X10274Y4789D01*
G01X10355Y4789D01*
G01X10396Y4769D01*
G01X10417Y4748D01*
G01X10437Y4707D01*
G01X10437Y4666D01*
G01X10417Y4625D01*
G01X10376Y4564D01*
G01X10171Y4359D01*
G01X10458Y4359D01*
G01X386Y2947D02*
G01X345Y2926D01*
G01X304Y2884D01*
G01X284Y2845D01*
G01X284Y2763D01*
G01X304Y2722D01*
G01X345Y2680D01*
G01X386Y2659D01*
G01X448Y2640D01*
G01X550Y2640D01*
G01X611Y2659D01*
G01X652Y2680D01*
G01X693Y2722D01*
G01X714Y2763D01*
G01X714Y2845D01*
G01X693Y2884D01*
G01X652Y2926D01*
G01X611Y2947D01*
G01X366Y3082D02*
G01X345Y3123D01*
G01X284Y3184D01*
G01X714Y3184D01*
G01X284Y3442D02*
G01X304Y3380D01*
G01X366Y3340D01*
G01X468Y3319D01*
G01X529Y3319D01*
G01X632Y3340D01*
G01X693Y3380D01*
G01X714Y3442D01*
G01X714Y3482D01*
G01X693Y3544D01*
G01X632Y3584D01*
G01X529Y3605D01*
G01X468Y3605D01*
G01X366Y3584D01*
G01X304Y3544D01*
G01X284Y3482D01*
G01X284Y3442D01*
G01X1251Y2903D02*
G01X1211Y2882D01*
G01X1169Y2841D01*
G01X1150Y2801D01*
G01X1150Y2719D01*
G01X1169Y2678D01*
G01X1211Y2637D01*
G01X1251Y2616D01*
G01X1313Y2596D01*
G01X1415Y2596D01*
G01X1476Y2616D01*
G01X1517Y2637D01*
G01X1559Y2678D01*
G01X1580Y2719D01*
G01X1580Y2801D01*
G01X1559Y2841D01*
G01X1517Y2882D01*
G01X1476Y2903D01*
G01X1232Y3038D02*
G01X1211Y3079D01*
G01X1150Y3140D01*
G01X1580Y3140D01*
G01X8913Y1990D02*
G01X8749Y1559D01*
G01X8913Y1990D02*
G01X9076Y1559D01*
G01X8810Y1703D02*
G01X9015Y1703D01*
G01X9211Y1990D02*
G01X9211Y1559D01*
G01X9211Y1990D02*
G01X9498Y1559D01*
G01X9498Y1990D02*
G01X9498Y1559D01*
G01X9776Y1990D02*
G01X9776Y1559D01*
G01X9633Y1990D02*
G01X9919Y1990D01*
G01X10054Y1907D02*
G01X10095Y1928D01*
G01X10156Y1990D01*
G01X10156Y1559D01*
G01X7699Y3077D02*
G01X7699Y2647D01*
G01X7699Y3077D02*
G01X7883Y3077D01*
G01X7944Y3057D01*
G01X7965Y3036D01*
G01X7985Y2995D01*
G01X7985Y2954D01*
G01X7965Y2913D01*
G01X7944Y2893D01*
G01X7883Y2872D01*
G01X7699Y2872D01*
G01X7842Y2872D02*
G01X7985Y2647D01*
G01X8161Y3077D02*
G01X8386Y3077D01*
G01X8264Y2913D01*
G01X8325Y2913D01*
G01X8366Y2893D01*
G01X8386Y2872D01*
G01X8407Y2811D01*
G01X8407Y2770D01*
G01X8386Y2709D01*
G01X8345Y2668D01*
G01X8284Y2647D01*
G01X8223Y2647D01*
G01X8161Y2668D01*
G01X8141Y2688D01*
G01X8120Y2729D01*
G01X6101Y669D02*
G01X6101Y238D01*
G01X6101Y669D02*
G01X6284Y669D01*
G01X6346Y649D01*
G01X6367Y628D01*
G01X6386Y586D01*
G01X6386Y546D01*
G01X6367Y505D01*
G01X6346Y484D01*
G01X6284Y463D01*
G01X6101Y463D01*
G01X6244Y463D02*
G01X6386Y238D01*
G01X6726Y669D02*
G01X6521Y382D01*
G01X6828Y382D01*
G01X6726Y669D02*
G01X6726Y238D01*
G01X907Y6103D02*
G01X886Y6144D01*
G01X845Y6185D01*
G01X805Y6205D01*
G01X723Y6205D01*
G01X682Y6185D01*
G01X641Y6144D01*
G01X620Y6103D01*
G01X600Y6041D01*
G01X600Y5939D01*
G01X620Y5878D01*
G01X641Y5837D01*
G01X682Y5796D01*
G01X723Y5775D01*
G01X805Y5775D01*
G01X845Y5796D01*
G01X886Y5837D01*
G01X907Y5878D01*
G01X1062Y6103D02*
G01X1062Y6123D01*
G01X1083Y6164D01*
G01X1103Y6185D01*
G01X1144Y6205D01*
G01X1226Y6205D01*
G01X1267Y6185D01*
G01X1287Y6164D01*
G01X1308Y6123D01*
G01X1308Y6082D01*
G01X1287Y6041D01*
G01X1246Y5980D01*
G01X1042Y5775D01*
G01X1328Y5775D01*
G01X12900Y7690D02*
G01X12900Y7259D01*
G01X12900Y7690D02*
G01X13084Y7690D01*
G01X13144Y7669D01*
G01X13165Y7649D01*
G01X13186Y7607D01*
G01X13186Y7567D01*
G01X13165Y7526D01*
G01X13144Y7505D01*
G01X13084Y7484D01*
G01X12900Y7484D02*
G01X13084Y7484D01*
G01X13144Y7465D01*
G01X13165Y7444D01*
G01X13186Y7403D01*
G01X13186Y7342D01*
G01X13165Y7301D01*
G01X13144Y7280D01*
G01X13084Y7259D01*
G01X12900Y7259D01*
G01X13321Y7607D02*
G01X13361Y7628D01*
G01X13423Y7690D01*
G01X13423Y7259D01*
G01X1163Y12940D02*
G01X999Y12510D01*
G01X1163Y12940D02*
G01X1326Y12510D01*
G01X1060Y12653D02*
G01X1265Y12653D01*
G01X1461Y12940D02*
G01X1461Y12510D01*
G01X1461Y12940D02*
G01X1748Y12510D01*
G01X1748Y12940D02*
G01X1748Y12510D01*
G01X2026Y12940D02*
G01X2026Y12510D01*
G01X1883Y12940D02*
G01X2169Y12940D01*
G01X2324Y12838D02*
G01X2324Y12858D01*
G01X2345Y12899D01*
G01X2365Y12919D01*
G01X2406Y12940D01*
G01X2488Y12940D01*
G01X2529Y12919D01*
G01X2549Y12899D01*
G01X2570Y12858D01*
G01X2570Y12817D01*
G01X2549Y12776D01*
G01X2509Y12715D01*
G01X2304Y12510D01*
G01X2590Y12510D01*
G01X1507Y9538D02*
G01X1486Y9578D01*
G01X1445Y9620D01*
G01X1405Y9640D01*
G01X1323Y9640D01*
G01X1282Y9620D01*
G01X1241Y9578D01*
G01X1220Y9538D01*
G01X1200Y9476D01*
G01X1200Y9374D01*
G01X1220Y9313D01*
G01X1241Y9272D01*
G01X1282Y9230D01*
G01X1323Y9209D01*
G01X1405Y9209D01*
G01X1445Y9230D01*
G01X1486Y9272D01*
G01X1507Y9313D01*
G01X1642Y9557D02*
G01X1683Y9578D01*
G01X1744Y9640D01*
G01X1744Y9209D01*
G01X2084Y9640D02*
G01X1879Y9353D01*
G01X2186Y9353D01*
G01X2084Y9640D02*
G01X2084Y9209D01*
G01X10950Y13590D02*
G01X10950Y13160D01*
G01X10950Y13590D02*
G01X11134Y13590D01*
G01X11195Y13570D01*
G01X11216Y13549D01*
G01X11236Y13508D01*
G01X11236Y13467D01*
G01X11216Y13426D01*
G01X11195Y13406D01*
G01X11134Y13385D01*
G01X10950Y13385D01*
G01X11093Y13385D02*
G01X11236Y13160D01*
G01X11371Y13508D02*
G01X11412Y13529D01*
G01X11474Y13590D01*
G01X11474Y13160D01*
G01X11650Y13590D02*
G01X11875Y13590D01*
G01X11752Y13426D01*
G01X11813Y13426D01*
G01X11854Y13406D01*
G01X11875Y13385D01*
G01X11895Y13324D01*
G01X11895Y13283D01*
G01X11875Y13222D01*
G01X11834Y13181D01*
G01X11772Y13160D01*
G01X11711Y13160D01*
G01X11650Y13181D01*
G01X11629Y13201D01*
G01X11609Y13242D01*
G01X9985Y7878D02*
G01X9944Y7920D01*
G01X9883Y7940D01*
G01X9801Y7940D01*
G01X9740Y7920D01*
G01X9699Y7878D01*
G01X9699Y7838D01*
G01X9719Y7797D01*
G01X9740Y7776D01*
G01X9781Y7755D01*
G01X9904Y7715D01*
G01X9944Y7695D01*
G01X9965Y7674D01*
G01X9985Y7632D01*
G01X9985Y7572D01*
G01X9944Y7530D01*
G01X9883Y7511D01*
G01X9801Y7511D01*
G01X9740Y7530D01*
G01X9699Y7572D01*
G01X10325Y7940D02*
G01X10325Y7613D01*
G01X10304Y7551D01*
G01X10284Y7530D01*
G01X10243Y7511D01*
G01X10202Y7511D01*
G01X10161Y7530D01*
G01X10141Y7551D01*
G01X10120Y7613D01*
G01X10120Y7653D01*
G01X10460Y7857D02*
G01X10501Y7878D01*
G01X10562Y7940D01*
G01X10562Y7511D01*
G01X8786Y7844D02*
G01X8744Y7885D01*
G01X8684Y7905D01*
G01X8601Y7905D01*
G01X8540Y7885D01*
G01X8500Y7844D01*
G01X8500Y7803D01*
G01X8519Y7762D01*
G01X8540Y7742D01*
G01X8582Y7721D01*
G01X8705Y7680D01*
G01X8744Y7660D01*
G01X8765Y7639D01*
G01X8786Y7598D01*
G01X8786Y7537D01*
G01X8744Y7496D01*
G01X8684Y7476D01*
G01X8601Y7476D01*
G01X8540Y7496D01*
G01X8500Y7537D01*
G01X9126Y7905D02*
G01X9126Y7578D01*
G01X9105Y7517D01*
G01X9084Y7496D01*
G01X9044Y7476D01*
G01X9003Y7476D01*
G01X8961Y7496D01*
G01X8942Y7517D01*
G01X8921Y7578D01*
G01X8921Y7619D01*
G01X9280Y7803D02*
G01X9280Y7823D01*
G01X9301Y7864D01*
G01X9321Y7885D01*
G01X9363Y7905D01*
G01X9444Y7905D01*
G01X9486Y7885D01*
G01X9505Y7864D01*
G01X9526Y7823D01*
G01X9526Y7782D01*
G01X9505Y7742D01*
G01X9465Y7680D01*
G01X9261Y7476D01*
G01X9546Y7476D01*
G01X4650Y26005D02*
G01X4650Y25575D01*
G01X4650Y26005D02*
G01X4834Y26005D01*
G01X4894Y25985D01*
G01X4915Y25964D01*
G01X4936Y25923D01*
G01X4936Y25882D01*
G01X4915Y25841D01*
G01X4894Y25821D01*
G01X4834Y25800D01*
G01X4650Y25800D01*
G01X4792Y25800D02*
G01X4936Y25575D01*
G01X5071Y25923D02*
G01X5111Y25944D01*
G01X5173Y26005D01*
G01X5173Y25575D01*
G01X5594Y26005D02*
G01X5390Y25575D01*
G01X5309Y26005D02*
G01X5594Y26005D01*
G01X5072Y27790D02*
G01X5031Y27769D01*
G01X4990Y27728D01*
G01X4969Y27687D01*
G01X4949Y27626D01*
G01X4949Y27524D01*
G01X4969Y27462D01*
G01X4990Y27421D01*
G01X5031Y27380D01*
G01X5072Y27360D01*
G01X5154Y27360D01*
G01X5194Y27380D01*
G01X5235Y27421D01*
G01X5256Y27462D01*
G01X5276Y27524D01*
G01X5276Y27626D01*
G01X5256Y27687D01*
G01X5235Y27728D01*
G01X5194Y27769D01*
G01X5154Y27790D01*
G01X5072Y27790D01*
G01X5133Y27442D02*
G01X5256Y27319D01*
G01X5698Y27790D02*
G01X5493Y27360D01*
G01X5411Y27790D02*
G01X5698Y27790D01*
G01X2500Y26689D02*
G01X2500Y26259D01*
G01X2500Y26689D02*
G01X2684Y26689D01*
G01X2745Y26669D01*
G01X2766Y26648D01*
G01X2786Y26607D01*
G01X2786Y26566D01*
G01X2766Y26525D01*
G01X2745Y26505D01*
G01X2684Y26484D01*
G01X2500Y26484D01*
G01X2643Y26484D02*
G01X2786Y26259D01*
G01X3167Y26689D02*
G01X2962Y26689D01*
G01X2942Y26505D01*
G01X2962Y26525D01*
G01X3024Y26546D01*
G01X3085Y26546D01*
G01X3146Y26525D01*
G01X3187Y26484D01*
G01X3208Y26423D01*
G01X3208Y26382D01*
G01X3187Y26321D01*
G01X3146Y26280D01*
G01X3085Y26259D01*
G01X3024Y26259D01*
G01X2962Y26280D01*
G01X2942Y26300D01*
G01X2921Y26341D01*
G01X2500Y30389D02*
G01X2500Y29959D01*
G01X2500Y30389D02*
G01X2684Y30389D01*
G01X2745Y30369D01*
G01X2766Y30348D01*
G01X2786Y30307D01*
G01X2786Y30266D01*
G01X2766Y30225D01*
G01X2745Y30205D01*
G01X2684Y30184D01*
G01X2500Y30184D01*
G01X2643Y30184D02*
G01X2786Y29959D01*
G01X3167Y30328D02*
G01X3146Y30369D01*
G01X3085Y30389D01*
G01X3044Y30389D01*
G01X2983Y30369D01*
G01X2942Y30307D01*
G01X2921Y30205D01*
G01X2921Y30103D01*
G01X2942Y30021D01*
G01X2983Y29980D01*
G01X3044Y29959D01*
G01X3065Y29959D01*
G01X3126Y29980D01*
G01X3167Y30021D01*
G01X3187Y30082D01*
G01X3187Y30103D01*
G01X3167Y30164D01*
G01X3126Y30205D01*
G01X3065Y30225D01*
G01X3044Y30225D01*
G01X2983Y30205D01*
G01X2942Y30164D01*
G01X2921Y30103D01*
G01X4550Y31039D02*
G01X4550Y30609D01*
G01X4550Y31039D02*
G01X4734Y31039D01*
G01X4794Y31019D01*
G01X4815Y30998D01*
G01X4836Y30957D01*
G01X4836Y30916D01*
G01X4815Y30875D01*
G01X4794Y30855D01*
G01X4734Y30834D01*
G01X4550Y30834D01*
G01X4692Y30834D02*
G01X4836Y30609D01*
G01X5257Y31039D02*
G01X5053Y30609D01*
G01X4971Y31039D02*
G01X5257Y31039D01*
G01X4672Y28740D02*
G01X4631Y28719D01*
G01X4590Y28678D01*
G01X4569Y28637D01*
G01X4549Y28576D01*
G01X4549Y28474D01*
G01X4569Y28412D01*
G01X4590Y28371D01*
G01X4631Y28330D01*
G01X4672Y28310D01*
G01X4754Y28310D01*
G01X4794Y28330D01*
G01X4835Y28371D01*
G01X4856Y28412D01*
G01X4876Y28474D01*
G01X4876Y28576D01*
G01X4856Y28637D01*
G01X4835Y28678D01*
G01X4794Y28719D01*
G01X4754Y28740D01*
G01X4672Y28740D01*
G01X4733Y28392D02*
G01X4856Y28269D01*
G01X5257Y28678D02*
G01X5236Y28719D01*
G01X5175Y28740D01*
G01X5134Y28740D01*
G01X5073Y28719D01*
G01X5032Y28658D01*
G01X5011Y28555D01*
G01X5011Y28453D01*
G01X5032Y28371D01*
G01X5073Y28330D01*
G01X5134Y28310D01*
G01X5154Y28310D01*
G01X5216Y28330D01*
G01X5257Y28371D01*
G01X5277Y28433D01*
G01X5277Y28453D01*
G01X5257Y28515D01*
G01X5216Y28555D01*
G01X5154Y28576D01*
G01X5134Y28576D01*
G01X5073Y28555D01*
G01X5032Y28515D01*
G01X5011Y28453D01*
G01X4999Y19140D02*
G01X4999Y18711D01*
G01X4999Y19140D02*
G01X5142Y19140D01*
G01X5204Y19120D01*
G01X5244Y19079D01*
G01X5265Y19038D01*
G01X5285Y18977D01*
G01X5285Y18875D01*
G01X5265Y18813D01*
G01X5244Y18772D01*
G01X5204Y18731D01*
G01X5142Y18711D01*
G01X4999Y18711D01*
G01X5420Y19059D02*
G01X5461Y19079D01*
G01X5523Y19140D01*
G01X5523Y18711D01*
G01X22456Y18303D02*
G01X22435Y18344D01*
G01X22394Y18385D01*
G01X22354Y18405D01*
G01X22272Y18405D01*
G01X22231Y18385D01*
G01X22190Y18344D01*
G01X22169Y18303D01*
G01X22149Y18241D01*
G01X22149Y18139D01*
G01X22169Y18078D01*
G01X22190Y18037D01*
G01X22231Y17996D01*
G01X22272Y17975D01*
G01X22354Y17975D01*
G01X22394Y17996D01*
G01X22435Y18037D01*
G01X22456Y18078D01*
G01X22632Y18405D02*
G01X22857Y18405D01*
G01X22734Y18241D01*
G01X22795Y18241D01*
G01X22836Y18221D01*
G01X22857Y18200D01*
G01X22877Y18139D01*
G01X22877Y18098D01*
G01X22857Y18037D01*
G01X22816Y17996D01*
G01X22754Y17975D01*
G01X22693Y17975D01*
G01X22632Y17996D01*
G01X22611Y18016D01*
G01X22591Y18057D01*
G01X11657Y18303D02*
G01X11636Y18344D01*
G01X11595Y18385D01*
G01X11555Y18405D01*
G01X11473Y18405D01*
G01X11432Y18385D01*
G01X11391Y18344D01*
G01X11370Y18303D01*
G01X11350Y18241D01*
G01X11350Y18139D01*
G01X11370Y18078D01*
G01X11391Y18037D01*
G01X11432Y17996D01*
G01X11473Y17975D01*
G01X11555Y17975D01*
G01X11595Y17996D01*
G01X11636Y18037D01*
G01X11657Y18078D01*
G01X11996Y18405D02*
G01X11792Y18119D01*
G01X12099Y18119D01*
G01X11996Y18405D02*
G01X11996Y17975D01*
G01X28155Y26805D02*
G01X28155Y26478D01*
G01X28134Y26417D01*
G01X28114Y26396D01*
G01X28072Y26376D01*
G01X28031Y26376D01*
G01X27990Y26396D01*
G01X27969Y26417D01*
G01X27950Y26478D01*
G01X27950Y26519D01*
G01X28535Y26744D02*
G01X28514Y26784D01*
G01X28452Y26805D01*
G01X28411Y26805D01*
G01X28351Y26784D01*
G01X28310Y26724D01*
G01X28289Y26621D01*
G01X28289Y26519D01*
G01X28310Y26436D01*
G01X28351Y26396D01*
G01X28411Y26376D01*
G01X28432Y26376D01*
G01X28493Y26396D01*
G01X28535Y26436D01*
G01X28555Y26499D01*
G01X28555Y26519D01*
G01X28535Y26580D01*
G01X28493Y26621D01*
G01X28432Y26642D01*
G01X28411Y26642D01*
G01X28351Y26621D01*
G01X28310Y26580D01*
G01X28289Y26519D01*
G01X24055Y26805D02*
G01X24055Y26478D01*
G01X24034Y26417D01*
G01X24014Y26396D01*
G01X23972Y26376D01*
G01X23931Y26376D01*
G01X23890Y26396D01*
G01X23869Y26417D01*
G01X23850Y26478D01*
G01X23850Y26519D01*
G01X24476Y26805D02*
G01X24271Y26376D01*
G01X24189Y26805D02*
G01X24476Y26805D01*
G01X20355Y26855D02*
G01X20355Y26528D01*
G01X20334Y26467D01*
G01X20314Y26446D01*
G01X20272Y26426D01*
G01X20231Y26426D01*
G01X20190Y26446D01*
G01X20169Y26467D01*
G01X20150Y26528D01*
G01X20150Y26569D01*
G01X20592Y26855D02*
G01X20530Y26834D01*
G01X20510Y26794D01*
G01X20510Y26753D01*
G01X20530Y26711D01*
G01X20571Y26692D01*
G01X20652Y26671D01*
G01X20714Y26651D01*
G01X20755Y26609D01*
G01X20776Y26569D01*
G01X20776Y26507D01*
G01X20755Y26467D01*
G01X20735Y26446D01*
G01X20673Y26426D01*
G01X20592Y26426D01*
G01X20530Y26446D01*
G01X20510Y26467D01*
G01X20489Y26507D01*
G01X20489Y26569D01*
G01X20510Y26609D01*
G01X20551Y26651D01*
G01X20611Y26671D01*
G01X20693Y26692D01*
G01X20735Y26711D01*
G01X20755Y26753D01*
G01X20755Y26794D01*
G01X20735Y26834D01*
G01X20673Y26855D01*
G01X20592Y26855D01*
G01X15805Y26955D02*
G01X15805Y26628D01*
G01X15784Y26567D01*
G01X15763Y26546D01*
G01X15723Y26526D01*
G01X15682Y26526D01*
G01X15640Y26546D01*
G01X15619Y26567D01*
G01X15600Y26628D01*
G01X15600Y26669D01*
G01X16205Y26811D02*
G01X16184Y26751D01*
G01X16144Y26709D01*
G01X16082Y26690D01*
G01X16061Y26690D01*
G01X16001Y26709D01*
G01X15959Y26751D01*
G01X15940Y26811D01*
G01X15940Y26832D01*
G01X15959Y26894D01*
G01X16001Y26934D01*
G01X16061Y26955D01*
G01X16082Y26955D01*
G01X16144Y26934D01*
G01X16184Y26894D01*
G01X16205Y26811D01*
G01X16205Y26709D01*
G01X16184Y26607D01*
G01X16144Y26546D01*
G01X16082Y26526D01*
G01X16042Y26526D01*
G01X15980Y26546D01*
G01X15959Y26586D01*
G01X11455Y26890D02*
G01X11455Y26563D01*
G01X11434Y26502D01*
G01X11413Y26481D01*
G01X11373Y26461D01*
G01X11332Y26461D01*
G01X11290Y26481D01*
G01X11269Y26502D01*
G01X11250Y26563D01*
G01X11250Y26604D01*
G01X11590Y26809D02*
G01X11630Y26829D01*
G01X11692Y26890D01*
G01X11692Y26461D01*
G01X11950Y26890D02*
G01X11888Y26870D01*
G01X11846Y26809D01*
G01X11826Y26706D01*
G01X11826Y26645D01*
G01X11846Y26543D01*
G01X11888Y26481D01*
G01X11950Y26461D01*
G01X11990Y26461D01*
G01X12051Y26481D01*
G01X12092Y26543D01*
G01X12113Y26645D01*
G01X12113Y26706D01*
G01X12092Y26809D01*
G01X12051Y26870D01*
G01X11990Y26890D01*
G01X11950Y26890D01*
G01X8005Y26840D02*
G01X8005Y26513D01*
G01X7984Y26452D01*
G01X7963Y26431D01*
G01X7923Y26411D01*
G01X7882Y26411D01*
G01X7840Y26431D01*
G01X7819Y26452D01*
G01X7800Y26513D01*
G01X7800Y26554D01*
G01X8140Y26759D02*
G01X8180Y26779D01*
G01X8242Y26840D01*
G01X8242Y26411D01*
G01X8376Y26759D02*
G01X8417Y26779D01*
G01X8478Y26840D01*
G01X8478Y26411D01*
G01X3515Y18190D02*
G01X3085Y18190D01*
G01X3515Y18190D02*
G01X3515Y18005D01*
G01X3494Y17945D01*
G01X3474Y17924D01*
G01X3433Y17903D01*
G01X3392Y17903D01*
G01X3351Y17924D01*
G01X3331Y17945D01*
G01X3310Y18005D01*
G01X3310Y18190D01*
G01X3310Y18047D02*
G01X3085Y17903D01*
G01X3453Y17482D02*
G01X3494Y17523D01*
G01X3515Y17584D01*
G01X3515Y17666D01*
G01X3494Y17728D01*
G01X3453Y17769D01*
G01X3413Y17769D01*
G01X3372Y17748D01*
G01X3351Y17728D01*
G01X3331Y17686D01*
G01X3290Y17563D01*
G01X3269Y17523D01*
G01X3249Y17503D01*
G01X3208Y17482D01*
G01X3147Y17482D01*
G01X3106Y17523D01*
G01X3085Y17584D01*
G01X3085Y17666D01*
G01X3106Y17728D01*
G01X3147Y17769D01*
G01X3515Y17203D02*
G01X3085Y17203D01*
G01X3515Y17347D02*
G01X3515Y17061D01*
G01X3433Y16926D02*
G01X3453Y16884D01*
G01X3515Y16824D01*
G01X3085Y16824D01*
G01X19749Y10590D02*
G01X19749Y10284D01*
G01X19769Y10222D01*
G01X19810Y10181D01*
G01X19872Y10161D01*
G01X19913Y10161D01*
G01X19974Y10181D01*
G01X20015Y10222D01*
G01X20035Y10284D01*
G01X20035Y10590D01*
G01X20211Y10590D02*
G01X20436Y10590D01*
G01X20314Y10427D01*
G01X20375Y10427D01*
G01X20416Y10406D01*
G01X20436Y10386D01*
G01X20457Y10325D01*
G01X20457Y10284D01*
G01X20436Y10222D01*
G01X20395Y10181D01*
G01X20334Y10161D01*
G01X20273Y10161D01*
G01X20211Y10181D01*
G01X20191Y10202D01*
G01X20170Y10243D01*
G01X18841Y11919D02*
G01X18841Y11489D01*
G01X18841Y11919D02*
G01X19025Y11919D01*
G01X19086Y11899D01*
G01X19107Y11878D01*
G01X19127Y11837D01*
G01X19127Y11796D01*
G01X19107Y11755D01*
G01X19086Y11735D01*
G01X19025Y11714D01*
G01X18841Y11714D01*
G01X18984Y11714D02*
G01X19127Y11489D01*
G01X19365Y11919D02*
G01X19303Y11899D01*
G01X19283Y11858D01*
G01X19283Y11817D01*
G01X19303Y11776D01*
G01X19344Y11755D01*
G01X19426Y11735D01*
G01X19487Y11714D01*
G01X19528Y11674D01*
G01X19549Y11633D01*
G01X19549Y11571D01*
G01X19528Y11530D01*
G01X19508Y11510D01*
G01X19446Y11489D01*
G01X19365Y11489D01*
G01X19303Y11510D01*
G01X19283Y11530D01*
G01X19262Y11571D01*
G01X19262Y11633D01*
G01X19283Y11674D01*
G01X19324Y11714D01*
G01X19385Y11735D01*
G01X19467Y11755D01*
G01X19508Y11776D01*
G01X19528Y11817D01*
G01X19528Y11858D01*
G01X19508Y11899D01*
G01X19446Y11919D01*
G01X19365Y11919D01*
G01X18912Y9219D02*
G01X18912Y8789D01*
G01X18912Y9219D02*
G01X19096Y9219D01*
G01X19157Y9199D01*
G01X19178Y9178D01*
G01X19198Y9137D01*
G01X19198Y9096D01*
G01X19178Y9055D01*
G01X19157Y9035D01*
G01X19096Y9014D01*
G01X18912Y9014D01*
G01X19055Y9014D02*
G01X19198Y8789D01*
G01X19599Y9076D02*
G01X19579Y9014D01*
G01X19538Y8974D01*
G01X19477Y8953D01*
G01X19456Y8953D01*
G01X19395Y8974D01*
G01X19354Y9014D01*
G01X19333Y9076D01*
G01X19333Y9096D01*
G01X19354Y9158D01*
G01X19395Y9199D01*
G01X19456Y9219D01*
G01X19477Y9219D01*
G01X19538Y9199D01*
G01X19579Y9158D01*
G01X19599Y9076D01*
G01X19599Y8974D01*
G01X19579Y8871D01*
G01X19538Y8810D01*
G01X19477Y8789D01*
G01X19436Y8789D01*
G01X19374Y8810D01*
G01X19354Y8851D01*
G01X21749Y7982D02*
G01X22076Y7982D01*
G01X22137Y7961D01*
G01X22158Y7941D01*
G01X22178Y7900D01*
G01X22178Y7859D01*
G01X22158Y7818D01*
G01X22137Y7797D01*
G01X22076Y7777D01*
G01X22035Y7777D01*
G01X21749Y8117D02*
G01X22178Y8117D01*
G01X21749Y8117D02*
G01X21749Y8301D01*
G01X21769Y8362D01*
G01X21789Y8382D01*
G01X21830Y8403D01*
G01X21892Y8403D01*
G01X21933Y8382D01*
G01X21953Y8362D01*
G01X21974Y8301D01*
G01X21974Y8117D01*
G01X21830Y8538D02*
G01X21810Y8579D01*
G01X21749Y8640D01*
G01X22178Y8640D01*
G01X18654Y8369D02*
G01X18654Y7939D01*
G01X18654Y8369D02*
G01X18838Y8369D01*
G01X18899Y8349D01*
G01X18920Y8328D01*
G01X18940Y8287D01*
G01X18940Y8246D01*
G01X18920Y8205D01*
G01X18899Y8185D01*
G01X18838Y8164D01*
G01X18654Y8164D01*
G01X18797Y8164D02*
G01X18940Y7939D01*
G01X19075Y8287D02*
G01X19116Y8308D01*
G01X19178Y8369D01*
G01X19178Y7939D01*
G01X19435Y8369D02*
G01X19374Y8349D01*
G01X19333Y8287D01*
G01X19313Y8185D01*
G01X19313Y8124D01*
G01X19333Y8021D01*
G01X19374Y7960D01*
G01X19435Y7939D01*
G01X19476Y7939D01*
G01X19538Y7960D01*
G01X19579Y8021D01*
G01X19599Y8124D01*
G01X19599Y8185D01*
G01X19579Y8287D01*
G01X19538Y8349D01*
G01X19476Y8369D01*
G01X19435Y8369D01*
G01X22322Y11519D02*
G01X22281Y11498D01*
G01X22240Y11457D01*
G01X22220Y11417D01*
G01X22220Y11335D01*
G01X22240Y11294D01*
G01X22281Y11253D01*
G01X22322Y11232D01*
G01X22384Y11212D01*
G01X22486Y11212D01*
G01X22547Y11232D01*
G01X22588Y11253D01*
G01X22629Y11294D01*
G01X22650Y11335D01*
G01X22650Y11417D01*
G01X22629Y11457D01*
G01X22588Y11498D01*
G01X22547Y11519D01*
G01X22220Y11899D02*
G01X22220Y11695D01*
G01X22404Y11674D01*
G01X22384Y11695D01*
G01X22363Y11756D01*
G01X22363Y11817D01*
G01X22384Y11879D01*
G01X22425Y11920D01*
G01X22486Y11940D01*
G01X22527Y11940D01*
G01X22588Y11920D01*
G01X22629Y11879D01*
G01X22650Y11817D01*
G01X22650Y11756D01*
G01X22629Y11695D01*
G01X22609Y11674D01*
G01X22568Y11654D01*
G01X23072Y11538D02*
G01X23031Y11517D01*
G01X22990Y11476D01*
G01X22970Y11436D01*
G01X22970Y11354D01*
G01X22990Y11313D01*
G01X23031Y11272D01*
G01X23072Y11251D01*
G01X23134Y11231D01*
G01X23236Y11231D01*
G01X23297Y11251D01*
G01X23338Y11272D01*
G01X23379Y11313D01*
G01X23400Y11354D01*
G01X23400Y11436D01*
G01X23379Y11476D01*
G01X23338Y11517D01*
G01X23297Y11538D01*
G01X23031Y11918D02*
G01X22990Y11898D01*
G01X22970Y11836D01*
G01X22970Y11796D01*
G01X22990Y11734D01*
G01X23052Y11693D01*
G01X23154Y11673D01*
G01X23256Y11673D01*
G01X23338Y11693D01*
G01X23379Y11734D01*
G01X23400Y11796D01*
G01X23400Y11816D01*
G01X23379Y11877D01*
G01X23338Y11918D01*
G01X23277Y11939D01*
G01X23256Y11939D01*
G01X23195Y11918D01*
G01X23154Y11877D01*
G01X23134Y11816D01*
G01X23134Y11796D01*
G01X23154Y11734D01*
G01X23195Y11693D01*
G01X23256Y11673D01*
G01X27649Y8261D02*
G01X27955Y8261D01*
G01X28017Y8282D01*
G01X28058Y8323D01*
G01X28078Y8384D01*
G01X28078Y8426D01*
G01X28058Y8486D01*
G01X28017Y8528D01*
G01X27955Y8548D01*
G01X27649Y8548D01*
G01X27649Y8888D02*
G01X27935Y8682D01*
G01X27935Y8990D01*
G01X27649Y8888D02*
G01X28078Y8888D01*
G01X28156Y7803D02*
G01X28135Y7844D01*
G01X28094Y7885D01*
G01X28055Y7905D01*
G01X27972Y7905D01*
G01X27931Y7885D01*
G01X27890Y7844D01*
G01X27869Y7803D01*
G01X27850Y7741D01*
G01X27850Y7639D01*
G01X27869Y7578D01*
G01X27890Y7537D01*
G01X27931Y7496D01*
G01X27972Y7475D01*
G01X28055Y7475D01*
G01X28094Y7496D01*
G01X28135Y7537D01*
G01X28156Y7578D01*
G01X28577Y7905D02*
G01X28373Y7475D01*
G01X28292Y7905D02*
G01X28577Y7905D01*
G01X29006Y10253D02*
G01X28985Y10294D01*
G01X28944Y10335D01*
G01X28905Y10355D01*
G01X28822Y10355D01*
G01X28781Y10335D01*
G01X28740Y10294D01*
G01X28719Y10253D01*
G01X28700Y10191D01*
G01X28700Y10089D01*
G01X28719Y10028D01*
G01X28740Y9987D01*
G01X28781Y9946D01*
G01X28822Y9925D01*
G01X28905Y9925D01*
G01X28944Y9946D01*
G01X28985Y9987D01*
G01X29006Y10028D01*
G01X29243Y10355D02*
G01X29182Y10335D01*
G01X29161Y10294D01*
G01X29161Y10253D01*
G01X29182Y10212D01*
G01X29223Y10191D01*
G01X29305Y10171D01*
G01X29367Y10150D01*
G01X29407Y10110D01*
G01X29427Y10069D01*
G01X29427Y10007D01*
G01X29407Y9966D01*
G01X29386Y9946D01*
G01X29326Y9925D01*
G01X29243Y9925D01*
G01X29182Y9946D01*
G01X29161Y9966D01*
G01X29142Y10007D01*
G01X29142Y10069D01*
G01X29161Y10110D01*
G01X29202Y10150D01*
G01X29264Y10171D01*
G01X29346Y10191D01*
G01X29386Y10212D01*
G01X29407Y10253D01*
G01X29407Y10294D01*
G01X29386Y10335D01*
G01X29326Y10355D01*
G01X29243Y10355D01*
G01X24100Y11105D02*
G01X24100Y10675D01*
G01X24100Y11105D02*
G01X24284Y11105D01*
G01X24344Y11085D01*
G01X24365Y11064D01*
G01X24385Y11023D01*
G01X24385Y10982D01*
G01X24365Y10941D01*
G01X24344Y10921D01*
G01X24284Y10900D01*
G01X24100Y10900D01*
G01X24243Y10900D02*
G01X24385Y10675D01*
G01X24521Y11023D02*
G01X24561Y11044D01*
G01X24623Y11105D01*
G01X24623Y10675D01*
G01X24759Y11023D02*
G01X24800Y11044D01*
G01X24860Y11105D01*
G01X24860Y10675D01*
G01X28299Y18755D02*
G01X28299Y18326D01*
G01X28299Y18755D02*
G01X28565Y18755D01*
G01X28299Y18551D02*
G01X28463Y18551D01*
G01X28700Y18674D02*
G01X28741Y18694D01*
G01X28802Y18755D01*
G01X28802Y18326D01*
G01X27350Y22540D02*
G01X27350Y22111D01*
G01X27350Y22540D02*
G01X27534Y22540D01*
G01X27595Y22520D01*
G01X27616Y22500D01*
G01X27636Y22459D01*
G01X27636Y22397D01*
G01X27616Y22356D01*
G01X27595Y22336D01*
G01X27534Y22315D01*
G01X27350Y22315D01*
G01X27792Y22438D02*
G01X27792Y22459D01*
G01X27812Y22500D01*
G01X27833Y22520D01*
G01X27874Y22540D01*
G01X27955Y22540D01*
G01X27996Y22520D01*
G01X28017Y22500D01*
G01X28037Y22459D01*
G01X28037Y22418D01*
G01X28017Y22377D01*
G01X27976Y22315D01*
G01X27771Y22111D01*
G01X28058Y22111D01*
G01X1450Y25255D02*
G01X1450Y24826D01*
G01X1450Y25255D02*
G01X1634Y25255D01*
G01X1694Y25234D01*
G01X1715Y25215D01*
G01X1736Y25174D01*
G01X1736Y25111D01*
G01X1715Y25071D01*
G01X1694Y25051D01*
G01X1634Y25030D01*
G01X1450Y25030D01*
G01X1911Y25255D02*
G01X2136Y25255D01*
G01X2015Y25092D01*
G01X2076Y25092D01*
G01X2117Y25071D01*
G01X2136Y25051D01*
G01X2157Y24990D01*
G01X2157Y24949D01*
G01X2136Y24886D01*
G01X2096Y24846D01*
G01X2034Y24826D01*
G01X1973Y24826D01*
G01X1911Y24846D01*
G01X1892Y24867D01*
G01X1871Y24907D01*
G01X13600Y4548D02*
G01X13621Y4507D01*
G01X13662Y4466D01*
G01X13703Y4445D01*
G01X13764Y4425D01*
G01X13866Y4425D01*
G01X13928Y4445D01*
G01X13969Y4466D01*
G01X14010Y4507D01*
G01X14030Y4548D01*
G01X14030Y4630D01*
G01X14010Y4670D01*
G01X13969Y4711D01*
G01X13928Y4732D01*
G01X13866Y4752D01*
G01X13764Y4752D01*
G01X13703Y4732D01*
G01X13662Y4711D01*
G01X13621Y4670D01*
G01X13600Y4630D01*
G01X13600Y4548D01*
G01X13948Y4609D02*
G01X14071Y4732D01*
G01X13682Y4887D02*
G01X13662Y4928D01*
G01X13600Y4990D01*
G01X14030Y4990D01*
G01X17400Y4564D02*
G01X17421Y4523D01*
G01X17462Y4482D01*
G01X17503Y4461D01*
G01X17564Y4441D01*
G01X17666Y4441D01*
G01X17728Y4461D01*
G01X17769Y4482D01*
G01X17810Y4523D01*
G01X17830Y4564D01*
G01X17830Y4646D01*
G01X17810Y4686D01*
G01X17769Y4727D01*
G01X17728Y4748D01*
G01X17666Y4768D01*
G01X17564Y4768D01*
G01X17503Y4748D01*
G01X17462Y4727D01*
G01X17421Y4686D01*
G01X17400Y4646D01*
G01X17400Y4564D01*
G01X17748Y4625D02*
G01X17871Y4748D01*
G01X17503Y4924D02*
G01X17482Y4924D01*
G01X17441Y4944D01*
G01X17421Y4965D01*
G01X17400Y5006D01*
G01X17400Y5087D01*
G01X17421Y5128D01*
G01X17441Y5149D01*
G01X17482Y5169D01*
G01X17523Y5169D01*
G01X17564Y5149D01*
G01X17625Y5108D01*
G01X17830Y4903D01*
G01X17830Y5190D01*
G01X21200Y4613D02*
G01X21221Y4573D01*
G01X21262Y4532D01*
G01X21303Y4511D01*
G01X21364Y4491D01*
G01X21466Y4491D01*
G01X21528Y4511D01*
G01X21569Y4532D01*
G01X21610Y4573D01*
G01X21630Y4613D01*
G01X21630Y4696D01*
G01X21610Y4736D01*
G01X21569Y4776D01*
G01X21528Y4798D01*
G01X21466Y4818D01*
G01X21364Y4818D01*
G01X21303Y4798D01*
G01X21262Y4776D01*
G01X21221Y4736D01*
G01X21200Y4696D01*
G01X21200Y4613D01*
G01X21548Y4675D02*
G01X21671Y4798D01*
G01X21200Y4994D02*
G01X21200Y5219D01*
G01X21364Y5096D01*
G01X21364Y5157D01*
G01X21385Y5199D01*
G01X21405Y5219D01*
G01X21466Y5240D01*
G01X21507Y5240D01*
G01X21569Y5219D01*
G01X21610Y5178D01*
G01X21630Y5117D01*
G01X21630Y5055D01*
G01X21610Y4994D01*
G01X21589Y4974D01*
G01X21548Y4953D01*
G01X11250Y740D02*
G01X11250Y311D01*
G01X11250Y311D02*
G01X11494Y311D01*
G01X11630Y740D02*
G01X11630Y311D01*
G01X11630Y740D02*
G01X11896Y740D01*
G01X11630Y536D02*
G01X11794Y536D01*
G01X11630Y311D02*
G01X11896Y311D01*
G01X12030Y740D02*
G01X12030Y311D01*
G01X12030Y740D02*
G01X12175Y740D01*
G01X12236Y720D01*
G01X12276Y679D01*
G01X12296Y638D01*
G01X12317Y577D01*
G01X12317Y475D01*
G01X12296Y413D01*
G01X12276Y372D01*
G01X12236Y331D01*
G01X12175Y311D01*
G01X12030Y311D01*
G01X12453Y659D02*
G01X12494Y679D01*
G01X12555Y740D01*
G01X12555Y311D01*
G01X14500Y739D02*
G01X14500Y310D01*
G01X14500Y310D02*
G01X14745Y310D01*
G01X14880Y739D02*
G01X14880Y310D01*
G01X14880Y739D02*
G01X15146Y739D01*
G01X14880Y535D02*
G01X15044Y535D01*
G01X14880Y310D02*
G01X15146Y310D01*
G01X15281Y739D02*
G01X15281Y310D01*
G01X15281Y739D02*
G01X15425Y739D01*
G01X15486Y719D01*
G01X15527Y678D01*
G01X15547Y637D01*
G01X15568Y576D01*
G01X15568Y474D01*
G01X15547Y412D01*
G01X15527Y371D01*
G01X15486Y330D01*
G01X15425Y310D01*
G01X15281Y310D01*
G01X15723Y637D02*
G01X15723Y658D01*
G01X15744Y699D01*
G01X15764Y719D01*
G01X15805Y739D01*
G01X15887Y739D01*
G01X15928Y719D01*
G01X15948Y699D01*
G01X15969Y658D01*
G01X15969Y617D01*
G01X15948Y576D01*
G01X15907Y514D01*
G01X15703Y310D01*
G01X15989Y310D01*
G01X13650Y1245D02*
G01X14080Y1245D01*
G01X13650Y1245D02*
G01X13650Y1428D01*
G01X13669Y1490D01*
G01X13690Y1511D01*
G01X13732Y1530D01*
G01X13773Y1530D01*
G01X13813Y1511D01*
G01X13834Y1490D01*
G01X13855Y1428D01*
G01X13855Y1245D01*
G01X13855Y1388D02*
G01X14080Y1530D01*
G01X13732Y1666D02*
G01X13711Y1707D01*
G01X13650Y1769D01*
G01X14080Y1769D01*
G01X13751Y1924D02*
G01X13732Y1924D01*
G01X13690Y1945D01*
G01X13669Y1965D01*
G01X13650Y2005D01*
G01X13650Y2088D01*
G01X13669Y2128D01*
G01X13690Y2149D01*
G01X13732Y2170D01*
G01X13773Y2170D01*
G01X13813Y2149D01*
G01X13875Y2107D01*
G01X14080Y1903D01*
G01X14080Y2190D01*
G01X13650Y2775D02*
G01X14080Y2775D01*
G01X13650Y2775D02*
G01X13650Y2959D01*
G01X13670Y3020D01*
G01X13691Y3041D01*
G01X13732Y3061D01*
G01X13773Y3061D01*
G01X13814Y3041D01*
G01X13834Y3020D01*
G01X13855Y2959D01*
G01X13855Y2775D01*
G01X13855Y2918D02*
G01X14080Y3061D01*
G01X13732Y3196D02*
G01X13711Y3237D01*
G01X13650Y3299D01*
G01X14080Y3299D01*
G01X13650Y3638D02*
G01X13936Y3434D01*
G01X13936Y3740D01*
G01X13650Y3638D02*
G01X14080Y3638D01*
G01X17450Y1295D02*
G01X17880Y1295D01*
G01X17450Y1295D02*
G01X17450Y1479D01*
G01X17470Y1540D01*
G01X17491Y1561D01*
G01X17532Y1581D01*
G01X17573Y1581D01*
G01X17614Y1561D01*
G01X17634Y1540D01*
G01X17655Y1479D01*
G01X17655Y1295D01*
G01X17655Y1438D02*
G01X17880Y1581D01*
G01X17532Y1716D02*
G01X17511Y1757D01*
G01X17450Y1819D01*
G01X17880Y1819D01*
G01X17450Y2199D02*
G01X17450Y1995D01*
G01X17634Y1974D01*
G01X17614Y1995D01*
G01X17593Y2056D01*
G01X17593Y2117D01*
G01X17614Y2179D01*
G01X17655Y2220D01*
G01X17716Y2240D01*
G01X17757Y2240D01*
G01X17818Y2220D01*
G01X17859Y2179D01*
G01X17880Y2117D01*
G01X17880Y2056D01*
G01X17859Y1995D01*
G01X17839Y1974D01*
G01X17798Y1954D01*
G01X17450Y2815D02*
G01X17880Y2815D01*
G01X17450Y2815D02*
G01X17450Y2999D01*
G01X17470Y3060D01*
G01X17491Y3081D01*
G01X17532Y3101D01*
G01X17573Y3101D01*
G01X17614Y3081D01*
G01X17634Y3060D01*
G01X17655Y2999D01*
G01X17655Y2815D01*
G01X17655Y2958D02*
G01X17880Y3101D01*
G01X17532Y3236D02*
G01X17511Y3277D01*
G01X17450Y3339D01*
G01X17880Y3339D01*
G01X17511Y3719D02*
G01X17470Y3699D01*
G01X17450Y3637D01*
G01X17450Y3596D01*
G01X17470Y3535D01*
G01X17532Y3494D01*
G01X17634Y3474D01*
G01X17736Y3474D01*
G01X17818Y3494D01*
G01X17859Y3535D01*
G01X17880Y3596D01*
G01X17880Y3617D01*
G01X17859Y3678D01*
G01X17818Y3719D01*
G01X17757Y3740D01*
G01X17736Y3740D01*
G01X17675Y3719D01*
G01X17634Y3678D01*
G01X17614Y3617D01*
G01X17614Y3596D01*
G01X17634Y3535D01*
G01X17675Y3494D01*
G01X17736Y3474D01*
G01X21200Y1345D02*
G01X21630Y1345D01*
G01X21200Y1345D02*
G01X21200Y1528D01*
G01X21219Y1590D01*
G01X21240Y1611D01*
G01X21281Y1630D01*
G01X21322Y1630D01*
G01X21364Y1611D01*
G01X21384Y1590D01*
G01X21405Y1528D01*
G01X21405Y1345D01*
G01X21405Y1488D02*
G01X21630Y1630D01*
G01X21281Y1766D02*
G01X21260Y1807D01*
G01X21200Y1869D01*
G01X21630Y1869D01*
G01X21200Y2105D02*
G01X21219Y2045D01*
G01X21260Y2024D01*
G01X21302Y2024D01*
G01X21343Y2045D01*
G01X21364Y2084D01*
G01X21384Y2167D01*
G01X21405Y2228D01*
G01X21444Y2270D01*
G01X21485Y2290D01*
G01X21547Y2290D01*
G01X21589Y2270D01*
G01X21609Y2249D01*
G01X21630Y2188D01*
G01X21630Y2105D01*
G01X21609Y2045D01*
G01X21589Y2024D01*
G01X21547Y2003D01*
G01X21485Y2003D01*
G01X21444Y2024D01*
G01X21405Y2065D01*
G01X21384Y2126D01*
G01X21364Y2207D01*
G01X21343Y2249D01*
G01X21302Y2270D01*
G01X21260Y2270D01*
G01X21219Y2249D01*
G01X21200Y2188D01*
G01X21200Y2105D01*
G01X18250Y740D02*
G01X18250Y311D01*
G01X18250Y311D02*
G01X18495Y311D01*
G01X18630Y740D02*
G01X18630Y311D01*
G01X18630Y740D02*
G01X18896Y740D01*
G01X18630Y536D02*
G01X18794Y536D01*
G01X18630Y311D02*
G01X18896Y311D01*
G01X19031Y740D02*
G01X19031Y311D01*
G01X19031Y740D02*
G01X19175Y740D01*
G01X19236Y720D01*
G01X19277Y678D01*
G01X19297Y638D01*
G01X19318Y576D01*
G01X19318Y475D01*
G01X19297Y413D01*
G01X19277Y372D01*
G01X19236Y330D01*
G01X19175Y311D01*
G01X19031Y311D01*
G01X19494Y740D02*
G01X19719Y740D01*
G01X19596Y576D01*
G01X19657Y576D01*
G01X19698Y555D01*
G01X19719Y536D01*
G01X19739Y475D01*
G01X19739Y434D01*
G01X19719Y372D01*
G01X19678Y330D01*
G01X19616Y311D01*
G01X19555Y311D01*
G01X19494Y330D01*
G01X19473Y351D01*
G01X19453Y393D01*
G01X21249Y2865D02*
G01X21679Y2865D01*
G01X21249Y2865D02*
G01X21249Y3049D01*
G01X21269Y3109D01*
G01X21290Y3130D01*
G01X21331Y3151D01*
G01X21372Y3151D01*
G01X21413Y3130D01*
G01X21433Y3109D01*
G01X21454Y3049D01*
G01X21454Y2865D01*
G01X21454Y3007D02*
G01X21679Y3151D01*
G01X21331Y3286D02*
G01X21310Y3326D01*
G01X21249Y3388D01*
G01X21679Y3388D01*
G01X21392Y3790D02*
G01X21454Y3769D01*
G01X21494Y3728D01*
G01X21515Y3667D01*
G01X21515Y3646D01*
G01X21494Y3584D01*
G01X21454Y3544D01*
G01X21392Y3524D01*
G01X21372Y3524D01*
G01X21310Y3544D01*
G01X21269Y3584D01*
G01X21249Y3646D01*
G01X21249Y3667D01*
G01X21269Y3728D01*
G01X21310Y3769D01*
G01X21392Y3790D01*
G01X21494Y3790D01*
G01X21597Y3769D01*
G01X21658Y3728D01*
G01X21679Y3667D01*
G01X21679Y3626D01*
G01X21658Y3565D01*
G01X21617Y3544D01*
G01X18300Y4590D02*
G01X18300Y4161D01*
G01X18300Y4590D02*
G01X18484Y4590D01*
G01X18544Y4570D01*
G01X18565Y4550D01*
G01X18585Y4509D01*
G01X18585Y4447D01*
G01X18565Y4405D01*
G01X18544Y4386D01*
G01X18484Y4365D01*
G01X18300Y4365D01*
G01X18926Y4590D02*
G01X18721Y4303D01*
G01X19027Y4303D01*
G01X18926Y4590D02*
G01X18926Y4161D01*
G01X10750Y4590D02*
G01X10750Y4161D01*
G01X10750Y4590D02*
G01X10934Y4590D01*
G01X10994Y4570D01*
G01X11015Y4550D01*
G01X11036Y4509D01*
G01X11036Y4447D01*
G01X11015Y4405D01*
G01X10994Y4386D01*
G01X10934Y4365D01*
G01X10750Y4365D01*
G01X11417Y4590D02*
G01X11211Y4590D01*
G01X11192Y4405D01*
G01X11211Y4426D01*
G01X11273Y4447D01*
G01X11334Y4447D01*
G01X11396Y4426D01*
G01X11436Y4386D01*
G01X11457Y4325D01*
G01X11457Y4284D01*
G01X11436Y4222D01*
G01X11396Y4180D01*
G01X11334Y4161D01*
G01X11273Y4161D01*
G01X11211Y4180D01*
G01X11192Y4201D01*
G01X11171Y4243D01*
G01X14450Y4690D02*
G01X14450Y4261D01*
G01X14450Y4690D02*
G01X14634Y4690D01*
G01X14694Y4670D01*
G01X14715Y4650D01*
G01X14736Y4609D01*
G01X14736Y4547D01*
G01X14715Y4505D01*
G01X14694Y4486D01*
G01X14634Y4465D01*
G01X14450Y4465D01*
G01X15117Y4628D02*
G01X15096Y4670D01*
G01X15034Y4690D01*
G01X14994Y4690D01*
G01X14932Y4670D01*
G01X14892Y4609D01*
G01X14871Y4505D01*
G01X14871Y4403D01*
G01X14892Y4322D01*
G01X14932Y4280D01*
G01X14994Y4261D01*
G01X15015Y4261D01*
G01X15076Y4280D01*
G01X15117Y4322D01*
G01X15136Y4384D01*
G01X15136Y4403D01*
G01X15117Y4465D01*
G01X15076Y4505D01*
G01X15015Y4526D01*
G01X14994Y4526D01*
G01X14932Y4505D01*
G01X14892Y4465D01*
G01X14871Y4403D01*
G01X28300Y17605D02*
G01X28300Y17176D01*
G01X28300Y17605D02*
G01X28484Y17605D01*
G01X28544Y17584D01*
G01X28565Y17565D01*
G01X28585Y17524D01*
G01X28585Y17461D01*
G01X28565Y17421D01*
G01X28544Y17401D01*
G01X28484Y17380D01*
G01X28300Y17380D01*
G01X29007Y17605D02*
G01X28802Y17176D01*
G01X28721Y17605D02*
G01X29007Y17605D01*
G01X27705Y5255D02*
G01X27705Y4928D01*
G01X27684Y4867D01*
G01X27664Y4846D01*
G01X27622Y4826D01*
G01X27581Y4826D01*
G01X27540Y4846D01*
G01X27519Y4867D01*
G01X27500Y4928D01*
G01X27500Y4969D01*
G01X27839Y5174D02*
G01X27880Y5194D01*
G01X27942Y5255D01*
G01X27942Y4826D01*
G01X23654Y5290D02*
G01X23654Y4963D01*
G01X23633Y4902D01*
G01X23613Y4881D01*
G01X23572Y4861D01*
G01X23531Y4861D01*
G01X23490Y4881D01*
G01X23469Y4902D01*
G01X23449Y4963D01*
G01X23449Y5004D01*
G01X23809Y5188D02*
G01X23809Y5209D01*
G01X23829Y5250D01*
G01X23850Y5270D01*
G01X23891Y5290D01*
G01X23973Y5290D01*
G01X24014Y5270D01*
G01X24034Y5250D01*
G01X24054Y5209D01*
G01X24054Y5168D01*
G01X24034Y5127D01*
G01X23993Y5065D01*
G01X23789Y4861D01*
G01X24075Y4861D01*
G01X3850Y16440D02*
G01X3850Y16011D01*
G01X3850Y16440D02*
G01X4034Y16440D01*
G01X4094Y16420D01*
G01X4115Y16400D01*
G01X4136Y16359D01*
G01X4136Y16297D01*
G01X4115Y16255D01*
G01X4094Y16236D01*
G01X4034Y16215D01*
G01X3850Y16215D01*
G01X4271Y16359D02*
G01X4311Y16378D01*
G01X4373Y16440D01*
G01X4373Y16011D01*
G01X29355Y13092D02*
G01X29355Y12765D01*
G01X29334Y12704D01*
G01X29314Y12683D01*
G01X29272Y12663D01*
G01X29231Y12663D01*
G01X29190Y12683D01*
G01X29169Y12704D01*
G01X29150Y12765D01*
G01X29150Y12806D01*
G01X29489Y13092D02*
G01X29489Y12663D01*
G01X29489Y13092D02*
G01X29673Y13092D01*
G01X29735Y13072D01*
G01X29755Y13052D01*
G01X29776Y13011D01*
G01X29776Y12949D01*
G01X29755Y12908D01*
G01X29735Y12888D01*
G01X29673Y12867D01*
G01X29489Y12867D01*
G01X29931Y12990D02*
G01X29931Y13011D01*
G01X29952Y13052D01*
G01X29972Y13072D01*
G01X30013Y13092D01*
G01X30094Y13092D01*
G01X30135Y13072D01*
G01X30156Y13052D01*
G01X30177Y13011D01*
G01X30177Y12970D01*
G01X30156Y12929D01*
G01X30114Y12867D01*
G01X29910Y12663D01*
G01X30197Y12663D01*
G01X25800Y14189D02*
G01X25964Y13760D01*
G01X26127Y14189D02*
G01X25964Y13760D01*
G01X26568Y14087D02*
G01X26548Y14128D01*
G01X26507Y14169D01*
G01X26467Y14189D01*
G01X26385Y14189D01*
G01X26343Y14169D01*
G01X26302Y14128D01*
G01X26282Y14087D01*
G01X26261Y14026D01*
G01X26261Y13924D01*
G01X26282Y13862D01*
G01X26302Y13821D01*
G01X26343Y13780D01*
G01X26385Y13760D01*
G01X26467Y13760D01*
G01X26507Y13780D01*
G01X26548Y13821D01*
G01X26568Y13862D01*
G01X27010Y14087D02*
G01X26989Y14128D01*
G01X26950Y14169D01*
G01X26909Y14189D01*
G01X26827Y14189D01*
G01X26785Y14169D01*
G01X26744Y14128D01*
G01X26725Y14087D01*
G01X26703Y14026D01*
G01X26703Y13924D01*
G01X26725Y13862D01*
G01X26744Y13821D01*
G01X26785Y13780D01*
G01X26827Y13760D01*
G01X26909Y13760D01*
G01X26950Y13780D01*
G01X26989Y13821D01*
G01X27010Y13862D01*
G01X27146Y13617D02*
G01X27514Y13617D01*
G01X27648Y14189D02*
G01X27648Y13760D01*
G01X27906Y14189D02*
G01X27865Y14169D01*
G01X27825Y14128D01*
G01X27805Y14087D01*
G01X27784Y14026D01*
G01X27784Y13924D01*
G01X27805Y13862D01*
G01X27825Y13821D01*
G01X27865Y13780D01*
G01X27906Y13760D01*
G01X27989Y13760D01*
G01X28030Y13780D01*
G01X28069Y13821D01*
G01X28090Y13862D01*
G01X28110Y13924D01*
G01X28110Y14026D01*
G01X28090Y14087D01*
G01X28069Y14128D01*
G01X28030Y14169D01*
G01X27989Y14189D01*
G01X27906Y14189D01*
G01X28246Y13617D02*
G01X28614Y13617D01*
G01X29035Y14128D02*
G01X28994Y14169D01*
G01X28934Y14189D01*
G01X28852Y14189D01*
G01X28789Y14169D01*
G01X28750Y14128D01*
G01X28750Y14087D01*
G01X28769Y14046D01*
G01X28789Y14026D01*
G01X28831Y14005D01*
G01X28953Y13964D01*
G01X28994Y13944D01*
G01X29014Y13924D01*
G01X29035Y13883D01*
G01X29035Y13821D01*
G01X28994Y13780D01*
G01X28934Y13760D01*
G01X28852Y13760D01*
G01X28789Y13780D01*
G01X28750Y13821D01*
G01X29171Y13924D02*
G01X29415Y13924D01*
G01X29415Y13964D01*
G01X29396Y14005D01*
G01X29375Y14026D01*
G01X29335Y14046D01*
G01X29272Y14046D01*
G01X29231Y14026D01*
G01X29190Y13985D01*
G01X29171Y13924D01*
G01X29171Y13883D01*
G01X29190Y13821D01*
G01X29231Y13780D01*
G01X29272Y13760D01*
G01X29335Y13760D01*
G01X29375Y13780D01*
G01X29415Y13821D01*
G01X29551Y14189D02*
G01X29551Y13760D01*
G01X29685Y13924D02*
G01X29931Y13924D01*
G01X29931Y13964D01*
G01X29910Y14005D01*
G01X29890Y14026D01*
G01X29850Y14046D01*
G01X29789Y14046D01*
G01X29747Y14026D01*
G01X29706Y13985D01*
G01X29685Y13924D01*
G01X29685Y13883D01*
G01X29706Y13821D01*
G01X29747Y13780D01*
G01X29789Y13760D01*
G01X29850Y13760D01*
G01X29890Y13780D01*
G01X29931Y13821D01*
G01X30311Y13985D02*
G01X30271Y14026D01*
G01X30230Y14046D01*
G01X30168Y14046D01*
G01X30127Y14026D01*
G01X30086Y13985D01*
G01X30067Y13924D01*
G01X30067Y13883D01*
G01X30086Y13821D01*
G01X30127Y13780D01*
G01X30168Y13760D01*
G01X30230Y13760D01*
G01X30271Y13780D01*
G01X30311Y13821D01*
G01X30509Y14189D02*
G01X30509Y13842D01*
G01X30528Y13780D01*
G01X30569Y13760D01*
G01X30610Y13760D01*
G01X30447Y14046D02*
G01X30589Y14046D01*
G01X25900Y20990D02*
G01X25900Y20684D01*
G01X25919Y20622D01*
G01X25960Y20580D01*
G01X26022Y20561D01*
G01X26064Y20561D01*
G01X26125Y20580D01*
G01X26165Y20622D01*
G01X26185Y20684D01*
G01X26185Y20990D01*
G01X26342Y20888D02*
G01X26342Y20909D01*
G01X26361Y20950D01*
G01X26382Y20970D01*
G01X26423Y20990D01*
G01X26505Y20990D01*
G01X26546Y20970D01*
G01X26567Y20950D01*
G01X26586Y20909D01*
G01X26586Y20868D01*
G01X26567Y20827D01*
G01X26526Y20765D01*
G01X26321Y20561D01*
G01X26607Y20561D01*
G01X27749Y24190D02*
G01X27749Y23760D01*
G01X27749Y24190D02*
G01X27933Y24190D01*
G01X27994Y24169D01*
G01X28015Y24149D01*
G01X28035Y24108D01*
G01X28035Y24067D01*
G01X28015Y24026D01*
G01X27994Y24005D01*
G01X27933Y23985D01*
G01X27749Y23985D01*
G01X27892Y23985D02*
G01X28035Y23760D01*
G01X28170Y24190D02*
G01X28170Y23760D01*
G01X28170Y24190D02*
G01X28354Y24190D01*
G01X28416Y24169D01*
G01X28436Y24149D01*
G01X28457Y24108D01*
G01X28457Y24046D01*
G01X28436Y24005D01*
G01X28416Y23985D01*
G01X28354Y23965D01*
G01X28170Y23965D01*
G01X28592Y24190D02*
G01X28592Y23760D01*
G01X28727Y24108D02*
G01X28768Y24128D01*
G01X28829Y24190D01*
G01X28829Y23760D01*
G75*
G01X14900Y13583D02*
G03X14950Y13582I-32J-2842D01*
G01*
G54D10*
G75*
G01X10444Y6645D02*
G02X10326Y6566I-99J20D01*
G01*
G75*
G01X10326Y7354D02*
G02X10444Y7275I19J-99D01*
G01*
G75*
G01X9774Y7354D02*
G03X9656Y7275I-19J-99D01*
G01*
G75*
G01X9656Y6645D02*
G03X9774Y6566I99J20D01*
G01*
G75*
G01X9544Y6645D02*
G02X9426Y6566I-99J20D01*
G01*
G75*
G01X9426Y7354D02*
G02X9544Y7275I19J-99D01*
G01*
G75*
G01X8874Y7354D02*
G03X8756Y7275I-19J-99D01*
G01*
G75*
G01X8756Y6645D02*
G03X8874Y6566I99J20D01*
G01*
G75*
G01X27457Y7836D02*
G02X27457Y8266I0J215D01*
G01*
G75*
G01X1200Y24140D02*
G02X1200Y22840I-554J-650D01*
G01*
G75*
G01X1200Y22140D02*
G02X1200Y20840I-526J-650D01*
G01*
G75*
G01X8318Y740D02*
G03X8318Y740I-118J0D01*
G01*
G75*
G01X1718Y14140D02*
G03X1718Y14140I-118J0D01*
G01*
G54D54*
G75*
G01X2672Y17640D02*
G03X2672Y17640I-472J0D01*
G01*
G75*
G01X2555Y17640D02*
G03X2555Y17640I-355J0D01*
G01*
G54D10*
G75*
G01X27542Y9290D02*
G03X27542Y9290I-30J0D01*
G01*
M00*
M02*
