;Layer: Drill PTH
;EasyEDA v6.2.46, 2019-11-12T10:27:12+01:00
;201d7097f1e54f75af69d8895503a090,f684c74a6e3d460ab4b866ead519826c,10
;Gerber Generator version 0.2
M48
INCH,LZ,00.0000
;Holesize 1 = 0.012 INCH
T01C0.012
;Holesize 2 = 0.032 INCH
T02C0.032
;Holesize 3 = 0.035 INCH
T03C0.035
;Holesize 4 = 0.035 INCH
T04C0.035
;Holesize 5 = 0.036 INCH
T05C0.036
;Holesize 6 = 0.040 INCH
T06C0.040
;Holesize 7 = 0.040 INCH
T07C0.040
;Holesize 8 = 0.047 INCH
T08C0.047
;Holesize 9 = 0.067 INCH
T09C0.067
%
G05
G90
T01
X+002150Y+027940
X+026850Y+004840
X+026400Y+003790
X+021350Y+010340
X+023200Y+015090
X+021900Y+013540
X+023000Y+015690
X+021400Y+013940
X+021650Y+013740
X+023600Y+015890
X+023400Y+016440
X+021150Y+014140
X+022800Y+016290
X+020900Y+014340
X+016950Y+018540
X+018350Y+019990
X+017500Y+018140
X+019000Y+019790
X+017750Y+017790
X+020700Y+017540
X+019200Y+019490
X+020700Y+015040
X+017000Y+022740
X+017800Y+021040
X+017650Y+015090
X+018800Y+021040
X+018500Y+021040
X+017650Y+015440
X+018000Y+016690
X+018150Y+021040
X+018250Y+017040
X+012850Y+020590
X+013200Y+021340
X+013500Y+020990
X+014500Y+021440
X+008900Y+007290
X+010050Y+007740
X+003900Y+004140
X+003900Y+002890
X+003500Y+004490
X+003150Y+003290
X+008100Y+023340
X+006050Y+024040
X+005350Y+023790
X+004500Y+002540
X+014250Y+007090
X+014100Y+016940
X+019900Y+011490
X+022100Y+009540
X+020000Y+009290
X+022000Y+004540
X+011550Y+012690
X+004350Y+010990
X+028150Y+005940
X+029350Y+030240
X+027650Y+029590
X+030500Y+027240
X+020600Y+019940
X+015700Y+019440
X+009350Y+023190
X+016500Y+017090
X+017000Y+021390
X+014350Y+019390
X+011350Y+009340
X+011200Y+010990
X+021600Y+008290
X+020652Y+020570
X+020652Y+019570
X+020652Y+018570
X+015680Y+019020
X+009457Y+014659
X+014457Y+011659
X+015457Y+015659
X+016457Y+015659
X+016457Y+014659
X+016981Y+022215
X+022381Y+020867
X+024381Y+020867
X+024381Y+019867
X+024381Y+017867
X+024381Y+016867
X+024381Y+015867
X+024381Y+014867
X+025381Y+015867
X+025381Y+014867
X+025381Y+013867
X+027381Y+015867
X+022122Y+012287
X+023122Y+012287
X+024122Y+011287
X+021485Y+008651
X+021485Y+007651
X+025822Y+004147
X+025822Y+003147
X+000423Y+030519
X+000423Y+029519
X+000423Y+028519
X+000423Y+027519
X+000423Y+026519
X+000423Y+025519
X+000423Y+024519
X+000423Y+023519
X+000423Y+022519
X+000423Y+021519
X+000423Y+020519
X+000423Y+019519
X+000423Y+018519
X+000423Y+017519
X+000423Y+016519
X+000423Y+015519
X+000423Y+014519
X+000423Y+013519
X+000423Y+012519
X+000423Y+011519
X+000423Y+010519
X+000423Y+009519
X+000423Y+008519
X+000423Y+007519
X+000423Y+006519
X+001423Y+031519
X+001423Y+030519
X+001423Y+029519
X+001423Y+028519
X+001423Y+027519
X+001423Y+026519
X+001423Y+025519
X+001423Y+024519
X+001423Y+023519
X+001423Y+022519
X+001423Y+021519
X+001423Y+020519
X+001423Y+019519
X+001423Y+018519
X+001423Y+017519
X+001423Y+016519
X+001423Y+015519
X+001423Y+012519
X+001423Y+009519
X+001423Y+008519
X+001423Y+007519
X+001423Y+006519
X+001423Y+003519
X+001423Y+000519
X+002423Y+031519
X+002423Y+030519
X+002423Y+024519
X+002423Y+022519
X+002423Y+020519
X+002423Y+018519
X+002423Y+017519
X+002423Y+013519
X+002423Y+012519
X+002423Y+011519
X+002423Y+010519
X+002423Y+009519
X+002423Y+008519
X+002423Y+007519
X+002423Y+006519
X+003423Y+031519
X+003423Y+030519
X+003423Y+022519
X+004423Y+031519
X+004423Y+022519
X+004423Y+020519
X+004423Y+016519
X+004423Y+015519
X+004423Y+007519
X+004423Y+006519
X+005423Y+031519
X+005423Y+017519
X+005423Y+016519
X+005423Y+015519
X+005423Y+014519
X+005423Y+013519
X+005423Y+012519
X+005423Y+011519
X+005423Y+010519
X+005423Y+007519
X+005423Y+006519
X+006423Y+031519
X+006423Y+030519
X+006423Y+022519
X+006423Y+021519
X+006423Y+020519
X+006423Y+017519
X+006423Y+015519
X+006423Y+014519
X+006423Y+013519
X+006423Y+012519
X+006423Y+011519
X+006423Y+010519
X+006423Y+009519
X+006423Y+007519
X+006423Y+005519
X+006423Y+000519
X+007423Y+031519
X+007423Y+030519
X+007423Y+022519
X+007423Y+021519
X+007423Y+020519
X+007423Y+017519
X+007423Y+015519
X+007423Y+014519
X+007423Y+013519
X+007423Y+012519
X+007423Y+011519
X+007423Y+010519
X+007423Y+007519
X+007423Y+001519
X+008423Y+031519
X+008423Y+030519
X+008423Y+021519
X+008423Y+020519
X+008423Y+017519
X+008423Y+016519
X+008423Y+015519
X+008423Y+008519
X+008423Y+007519
X+008423Y+006519
X+008423Y+005519
X+008423Y+000519
X+009423Y+031519
X+009423Y+030519
X+009423Y+021519
X+009423Y+020519
X+009400Y+020940
X+009423Y+017519
X+009423Y+016519
X+009423Y+001519
X+010423Y+031519
X+010423Y+030519
X+010423Y+002519
X+010423Y+001519
X+010423Y+000519
X+011423Y+031519
X+011423Y+030519
X+011423Y+008519
X+011423Y+006519
X+011423Y+000519
X+012423Y+031519
X+012423Y+030519
X+012423Y+021519
X+012423Y+003519
X+012850Y+000490
X+013423Y+031519
X+013423Y+030519
X+013423Y+000519
X+014423Y+031519
X+014423Y+030519
X+014423Y+020519
X+014423Y+018519
X+014423Y+017519
X+014423Y+009519
X+014423Y+004519
X+014423Y+003519
X+014250Y+000490
X+015423Y+031519
X+015423Y+030519
X+015423Y+009519
X+015423Y+005519
X+015423Y+003519
X+015423Y+000519
X+016423Y+031519
X+016423Y+030519
X+016423Y+009519
X+016423Y+008519
X+016423Y+007519
X+016423Y+005519
X+016423Y+000519
X+017423Y+031519
X+017423Y+030519
X+017423Y+010519
X+017423Y+009519
X+017423Y+008519
X+017423Y+007519
X+017423Y+000519
X+018423Y+031519
X+018423Y+030519
X+018423Y+010519
X+018423Y+009519
X+018423Y+008519
X+018423Y+007519
X+018423Y+004519
X+018423Y+000519
X+019423Y+031519
X+019423Y+030519
X+019423Y+005519
X+019200Y+000490
X+020423Y+031519
X+020423Y+030519
X+020423Y+006519
X+021423Y+031519
X+021423Y+030519
X+021423Y+006519
X+021423Y+005519
X+021400Y+003640
X+021423Y+002519
X+021700Y+001490
X+021600Y+000790
X+022423Y+031519
X+022423Y+030519
X+022423Y+008519
X+022423Y+006519
X+022423Y+005519
X+022423Y+003519
X+022423Y+002519
X+022423Y+001519
X+022450Y+000540
X+023423Y+031519
X+023423Y+030519
X+023423Y+008519
X+023423Y+006519
X+023423Y+003519
X+023423Y+002519
X+023423Y+001519
X+023423Y+000519
X+024423Y+031519
X+024423Y+030519
X+024423Y+007519
X+024423Y+005519
X+024423Y+002519
X+024423Y+001519
X+024423Y+000519
X+025423Y+031519
X+025423Y+030519
X+025423Y+001519
X+025423Y+000519
X+026423Y+031519
X+026423Y+030519
X+026423Y+007519
X+026423Y+001519
X+026500Y+000590
X+027423Y+031519
X+027423Y+030519
X+027423Y+007519
X+027423Y+002519
X+027423Y+001519
X+027423Y+000519
X+028423Y+031519
X+028423Y+030519
X+028423Y+009519
X+028423Y+008519
X+028423Y+002519
X+028423Y+001519
X+028423Y+000519
X+029423Y+031519
X+029423Y+029519
X+029423Y+027519
X+029423Y+026519
X+029423Y+024519
X+029423Y+023519
X+029423Y+022519
X+029423Y+021519
X+029423Y+020519
X+029423Y+019519
X+029423Y+018519
X+029423Y+017519
X+029423Y+015519
X+029423Y+014519
X+029423Y+013519
X+029423Y+012519
X+029423Y+011519
X+029423Y+010519
X+029423Y+009519
X+029423Y+008519
X+029423Y+007519
X+029423Y+003519
X+029423Y+002519
X+029423Y+001519
X+029423Y+000519
X+030423Y+031519
X+030423Y+030519
X+030423Y+029519
X+030423Y+028519
X+030423Y+026519
X+030423Y+024519
X+030423Y+023519
X+030423Y+022519
X+030423Y+021519
X+030423Y+020519
X+030423Y+019519
X+030423Y+018519
X+030423Y+017519
X+030423Y+015519
X+030423Y+014519
X+030423Y+013519
X+030423Y+012519
X+030423Y+011519
X+030423Y+010519
X+030423Y+009519
X+030423Y+008519
X+030423Y+007519
X+030423Y+004519
X+030423Y+003519
X+030423Y+002519
X+030423Y+001519
X+030423Y+000519
X+002950Y+026090
X+011950Y+024090
X+018750Y+024090
X+018250Y+020390
X+026050Y+010140
X+016100Y+021690
X+016100Y+023940
X+024450Y+023990
X+022700Y+023990
X+026150Y+023990
X+027050Y+023990
X+009300Y+004640
X+021300Y+012440
X+017550Y+014190
T02
X+026919Y+028540
X+027710Y+028540
X+028489Y+028540
X+029280Y+028540
X+022819Y+028540
X+023610Y+028540
X+024389Y+028540
X+025180Y+028540
X+018719Y+028540
X+019510Y+028540
X+020289Y+028540
X+021080Y+028540
X+014619Y+028540
X+015409Y+028540
X+016190Y+028540
X+016980Y+028540
X+010519Y+028540
X+011309Y+028540
X+012090Y+028540
X+012880Y+028540
X+006419Y+028540
X+007209Y+028540
X+007990Y+028540
X+008780Y+028540
X+029330Y+004140
X+028539Y+004140
X+027760Y+004140
X+026969Y+004140
X+025230Y+004140
X+024439Y+004140
X+023660Y+004140
X+022869Y+004140
T03
X+027700Y+020340
X+027700Y+021340
X+026600Y+017140
X+027600Y+017140
X+004150Y+018140
X+004150Y+017140
T04
X+028000Y+025888G85X+027999Y+025888
X+028000Y+024888G85X+027999Y+024888
X+027000Y+025888G85X+026999Y+025888
X+027000Y+024888G85X+026999Y+024888
X+026000Y+025888G85X+025999Y+025888
X+026000Y+024888G85X+025999Y+024888
X+025000Y+025888G85X+024999Y+025888
X+025000Y+024888G85X+024999Y+024888
X+024000Y+025888G85X+023999Y+025888
X+024000Y+024888G85X+023999Y+024888
X+023000Y+025888G85X+022999Y+025888
X+023000Y+024888G85X+022999Y+024888
X+022000Y+025888G85X+021999Y+025888
X+022000Y+024888G85X+021999Y+024888
X+021000Y+025888G85X+020999Y+025888
X+021000Y+024888G85X+020999Y+024888
X+020000Y+025888G85X+019999Y+025888
X+020000Y+024888G85X+019999Y+024888
X+019000Y+025888G85X+018999Y+025888
X+019000Y+024888G85X+018999Y+024888
X+018000Y+025888G85X+017999Y+025888
X+018000Y+024888G85X+017999Y+024888
X+017000Y+025888G85X+016999Y+025888
X+017000Y+024888G85X+016999Y+024888
X+016000Y+025888G85X+015999Y+025888
X+016000Y+024888G85X+015999Y+024888
X+015000Y+025888G85X+014999Y+025888
X+015000Y+024888G85X+014999Y+024888
X+014000Y+025888G85X+013999Y+025888
X+014000Y+024888G85X+013999Y+024888
X+013000Y+025888G85X+012999Y+025888
X+013000Y+024888G85X+012999Y+024888
X+012000Y+025888G85X+011999Y+025888
X+012000Y+024888G85X+011999Y+024888
X+011000Y+025888G85X+010999Y+025888
X+011000Y+024888G85X+010999Y+024888
X+010000Y+025888G85X+009999Y+025888
X+010000Y+024888G85X+009999Y+024888
X+009000Y+025888G85X+008999Y+025888
X+009000Y+024888G85X+008999Y+024888
T05
X+018650Y+002840
X+019650Y+002840
X+011100Y+002840
X+012100Y+002840
X+014850Y+002940
X+015850Y+002940
T06
X+021000Y+007140
X+022000Y+007140
X+023000Y+007140
X+026500Y+012792
X+027500Y+012792
X+028500Y+012792
T07
X+023650Y+019940
X+023650Y+020940
X+010650Y+018940
X+010650Y+020940
X+010650Y+019940
X+010650Y+017940
X+010650Y+016940
X+023650Y+018940
X+023650Y+017940
T08
X+014900Y+012150
X+014900Y+009200
T09
X+002700Y+023524
X+002700Y+021555
M30
