G04 Layer: BottomSolderMaskLayer*
G04 EasyEDA v6.2.46, 2019-11-12T10:27:12+01:00*
G04 201d7097f1e54f75af69d8895503a090,f684c74a6e3d460ab4b866ead519826c,10*
G04 Gerber Generator version 0.2*
G04 Scale: 100 percent, Rotated: No, Reflected: No *
G04 Dimensions in inches *
G04 leading zeros omitted , absolute positions ,2 integer and 4 decimal *
%FSLAX24Y24*%
%MOIN*%
G90*
G70D02*

%ADD65C,0.055244*%
%ADD71C,0.058000*%
%ADD74C,0.082000*%
%ADD78C,0.070000*%
%ADD79C,0.126110*%
%ADD81C,0.068000*%
%ADD83C,0.076898*%
%ADD84C,0.074000*%

%LPD*%
G54D65*
G01X14900Y12150D03*
G01X14900Y9200D03*
G36*
G01X26630Y28250D02*
G01X26630Y28830D01*
G01X27210Y28830D01*
G01X27210Y28250D01*
G01X26630Y28250D01*
G37*
G54D71*
G01X27710Y28540D03*
G01X28489Y28540D03*
G01X29280Y28540D03*
G36*
G01X22530Y28250D02*
G01X22530Y28830D01*
G01X23110Y28830D01*
G01X23110Y28250D01*
G01X22530Y28250D01*
G37*
G01X23610Y28540D03*
G01X24389Y28540D03*
G01X25180Y28540D03*
G36*
G01X18430Y28250D02*
G01X18430Y28830D01*
G01X19010Y28830D01*
G01X19010Y28250D01*
G01X18430Y28250D01*
G37*
G01X19510Y28540D03*
G01X20289Y28540D03*
G01X21080Y28540D03*
G36*
G01X14330Y28250D02*
G01X14330Y28830D01*
G01X14909Y28830D01*
G01X14909Y28250D01*
G01X14330Y28250D01*
G37*
G01X15409Y28540D03*
G01X16190Y28540D03*
G01X16980Y28540D03*
G36*
G01X10230Y28250D02*
G01X10230Y28830D01*
G01X10809Y28830D01*
G01X10809Y28250D01*
G01X10230Y28250D01*
G37*
G01X11309Y28540D03*
G01X12090Y28540D03*
G01X12880Y28540D03*
G36*
G01X6130Y28250D02*
G01X6130Y28830D01*
G01X6709Y28830D01*
G01X6709Y28250D01*
G01X6130Y28250D01*
G37*
G01X7209Y28540D03*
G01X7990Y28540D03*
G01X8780Y28540D03*
G54D74*
G01X21000Y7140D03*
G01X22000Y7140D03*
G01X23000Y7140D03*
G36*
G01X27350Y19990D02*
G01X27350Y20690D01*
G01X28050Y20690D01*
G01X28050Y19990D01*
G01X27350Y19990D01*
G37*
G54D78*
G01X27700Y21340D03*
G54D79*
G01X2700Y23524D03*
G01X2700Y21555D03*
G54D81*
G01X18650Y2840D03*
G01X19650Y2840D03*
G01X11100Y2840D03*
G01X12100Y2840D03*
G01X14850Y2940D03*
G01X15850Y2940D03*
G36*
G01X26250Y16790D02*
G01X26250Y17490D01*
G01X26950Y17490D01*
G01X26950Y16790D01*
G01X26250Y16790D01*
G37*
G54D78*
G01X27600Y17140D03*
G36*
G01X29039Y3850D02*
G01X29039Y4430D01*
G01X29619Y4430D01*
G01X29619Y3850D01*
G01X29039Y3850D01*
G37*
G54D71*
G01X28539Y4140D03*
G01X27760Y4140D03*
G01X26969Y4140D03*
G36*
G01X24939Y3850D02*
G01X24939Y4430D01*
G01X25519Y4430D01*
G01X25519Y3850D01*
G01X24939Y3850D01*
G37*
G01X24439Y4140D03*
G01X23660Y4140D03*
G01X22869Y4140D03*
G36*
G01X3800Y17790D02*
G01X3800Y18490D01*
G01X4500Y18490D01*
G01X4500Y17790D01*
G01X3800Y17790D01*
G37*
G54D78*
G01X4150Y17140D03*
G54D74*
G01X26500Y12792D03*
G01X27500Y12792D03*
G01X28500Y12792D03*
G36*
G01X23265Y19555D02*
G01X23265Y20324D01*
G01X24034Y20324D01*
G01X24034Y19555D01*
G01X23265Y19555D01*
G37*
G36*
G01X23265Y20555D02*
G01X23265Y21324D01*
G01X24034Y21324D01*
G01X24034Y20555D01*
G01X23265Y20555D01*
G37*
G54D83*
G01X10650Y18940D03*
G36*
G01X10265Y20555D02*
G01X10265Y21324D01*
G01X11034Y21324D01*
G01X11034Y20555D01*
G01X10265Y20555D01*
G37*
G36*
G01X10265Y19555D02*
G01X10265Y20324D01*
G01X11034Y20324D01*
G01X11034Y19555D01*
G01X10265Y19555D01*
G37*
G01X10650Y17940D03*
G01X10650Y16940D03*
G01X23650Y18940D03*
G01X23650Y17940D03*
G54D84*
G01X28000Y25888D03*
G01X28000Y24888D03*
G01X27000Y25888D03*
G01X27000Y24888D03*
G01X26000Y25888D03*
G01X26000Y24888D03*
G01X25000Y25888D03*
G01X25000Y24888D03*
G01X24000Y25888D03*
G01X24000Y24888D03*
G01X23000Y25888D03*
G01X23000Y24888D03*
G01X22000Y25888D03*
G01X22000Y24888D03*
G01X21000Y25888D03*
G01X21000Y24888D03*
G01X20000Y25888D03*
G01X20000Y24888D03*
G01X19000Y25888D03*
G01X19000Y24888D03*
G01X18000Y25888D03*
G01X18000Y24888D03*
G01X17000Y25888D03*
G01X17000Y24888D03*
G01X16000Y25888D03*
G01X16000Y24888D03*
G01X15000Y25888D03*
G01X15000Y24888D03*
G01X14000Y25888D03*
G01X14000Y24888D03*
G01X13000Y25888D03*
G01X13000Y24888D03*
G01X12000Y25888D03*
G01X12000Y24888D03*
G01X11000Y25888D03*
G01X11000Y24888D03*
G01X10000Y25888D03*
G01X10000Y24888D03*
G01X9000Y25888D03*
G01X9000Y24888D03*
M00*
M02*
